%TF.GenerationSoftware,KiCad,Pcbnew,10.0.3*%
%TF.CreationDate,2026-06-14T20:34:33-04:00*%
%TF.ProjectId,tuner,74756e65-722e-46b6-9963-61645f706362,rev?*%
%TF.SameCoordinates,Original*%
%TF.FileFunction,Soldermask,Bot*%
%TF.FilePolarity,Negative*%
%FSLAX46Y46*%
G04 Gerber Fmt 4.6, Leading zero omitted, Abs format (unit mm)*
G04 Created by KiCad (PCBNEW 10.0.3) date 2026-06-14 20:34:33*
%MOMM*%
%LPD*%
G01*
G04 APERTURE LIST*
%ADD10R,1.700000X1.700000*%
%ADD11C,1.700000*%
%ADD12C,1.800000*%
%ADD13R,1.800000X1.800000*%
G04 APERTURE END LIST*
D10*
%TO.C,J2*%
X194500000Y-93000000D03*
D11*
X194500000Y-95540000D03*
X194500000Y-98080000D03*
X194500000Y-100620000D03*
X194500000Y-103160000D03*
X194500000Y-105700000D03*
%TD*%
D10*
%TO.C,SW1*%
X145500000Y-128000000D03*
D11*
X145500000Y-130540000D03*
%TD*%
D10*
%TO.C,J_TUNE*%
X167500000Y-128000000D03*
D11*
X167500000Y-130540000D03*
X167500000Y-133080000D03*
%TD*%
D10*
%TO.C,J4*%
X137500000Y-77000000D03*
D11*
X137500000Y-79540000D03*
%TD*%
D12*
%TO.C,U2*%
X126930000Y-89760000D03*
X126930000Y-87220000D03*
D13*
X104070000Y-87220000D03*
D12*
X104070000Y-89760000D03*
X104070000Y-92300000D03*
X104070000Y-94840000D03*
X104070000Y-97380000D03*
X104070000Y-99920000D03*
X104070000Y-102460000D03*
X104070000Y-105000000D03*
X104070000Y-107540000D03*
X104070000Y-110080000D03*
X104070000Y-112620000D03*
X104070000Y-115160000D03*
X104070000Y-117700000D03*
X104070000Y-120240000D03*
X126930000Y-92300000D03*
X126930000Y-94840000D03*
X126930000Y-97380000D03*
X126930000Y-99920000D03*
X126930000Y-102460000D03*
X126930000Y-105000000D03*
X126930000Y-107540000D03*
X126930000Y-110080000D03*
X126930000Y-112620000D03*
X126930000Y-115160000D03*
X126930000Y-117700000D03*
X126930000Y-120240000D03*
X126930000Y-122780000D03*
X104070000Y-122780000D03*
%TD*%
D13*
%TO.C,T1*%
X165880000Y-118540000D03*
D12*
X165880000Y-113460000D03*
X181120000Y-119810000D03*
X181120000Y-116000000D03*
X181120000Y-112190000D03*
%TD*%
D10*
%TO.C,SW2*%
X156500000Y-128000000D03*
D11*
X156500000Y-130540000D03*
%TD*%
D10*
%TO.C,J6*%
X157500000Y-77000000D03*
D11*
X157500000Y-79540000D03*
X157500000Y-82080000D03*
X157500000Y-84620000D03*
%TD*%
D10*
%TO.C,J_OLED*%
X131500000Y-128000000D03*
D11*
X131500000Y-130540000D03*
X131500000Y-133080000D03*
X131500000Y-135620000D03*
%TD*%
D10*
%TO.C,J3*%
X129500000Y-77000000D03*
D11*
X129500000Y-79540000D03*
%TD*%
D10*
%TO.C,J1*%
X147500000Y-77000000D03*
D11*
X147500000Y-79540000D03*
%TD*%
D10*
%TO.C,J8*%
X189500000Y-77000000D03*
D11*
X189500000Y-79540000D03*
X189500000Y-82080000D03*
X189500000Y-84620000D03*
%TD*%
D13*
%TO.C,U4*%
X139880000Y-118810000D03*
D12*
X139880000Y-116270000D03*
X139880000Y-113730000D03*
X139880000Y-111190000D03*
X155120000Y-117540000D03*
X155120000Y-112460000D03*
%TD*%
D13*
%TO.C,U1*%
X163960000Y-92000000D03*
D12*
X166500000Y-92000000D03*
X169040000Y-92000000D03*
%TD*%
M02*
