M48
; DRILL file KiCad 10.0.3 date 2026-06-14T19:08:41
; FORMAT={-:-/ absolute / metric / decimal}
; #@! TF.CreationDate,2026-06-14T19:08:41-04:00
; #@! TF.GenerationSoftware,Kicad,Pcbnew,10.0.3
; #@! TF.FileFunction,MixedPlating,1,4
FMAT,2
METRIC
; #@! TA.AperFunction,Plated,PTH,ViaDrill
T1C0.400
; #@! TA.AperFunction,Plated,PTH,ComponentDrill
T2C1.000
%
G90
G05
T1
X129.288Y-132.754
X130.601Y-103.05
X132.12Y-113.299
X134.66Y-117.393
X134.788Y-105.581
X135.012Y-122.972
X135.559Y-99.998
X138.866Y-96.001
X140.304Y-84.117
X153.338Y-109.843
X153.5Y-101.877
X153.955Y-93.977
X154.04Y-108.782
X158.815Y-105.996
X159.181Y-111.075
X161.989Y-111.725
X165.834Y-102.308
X172.724Y-109.575
X173.751Y-121.405
X174.714Y-99.998
X178.445Y-111.105
X180.438Y-110.001
X180.976Y-114.087
X181.975Y-108.875
X182.048Y-104.839
X182.245Y-100.524
X182.347Y-99.472
X184.749Y-107.248
X184.873Y-119.087
X184.897Y-124.989
X185.86Y-116.341
X185.871Y-106.974
X185.995Y-95.856
X186.173Y-117.782
X188.068Y-86.387
X188.466Y-105.114
X188.64Y-108.17
X189.083Y-113.687
X190.141Y-113.275
X190.223Y-110.223
X190.234Y-111.98
X190.493Y-116.081
X191.729Y-106.774
X191.944Y-86.526
X192.868Y-122.455
X196.619Y-87.45
T2
X104.07Y-87.22
X104.07Y-89.76
X104.07Y-92.3
X104.07Y-94.84
X104.07Y-97.38
X104.07Y-99.92
X104.07Y-102.46
X104.07Y-105.0
X104.07Y-107.54
X104.07Y-110.08
X104.07Y-112.62
X104.07Y-115.16
X104.07Y-117.7
X104.07Y-120.24
X104.07Y-122.78
X126.93Y-87.22
X126.93Y-89.76
X126.93Y-92.3
X126.93Y-94.84
X126.93Y-97.38
X126.93Y-99.92
X126.93Y-102.46
X126.93Y-105.0
X126.93Y-107.54
X126.93Y-110.08
X126.93Y-112.62
X126.93Y-115.16
X126.93Y-117.7
X126.93Y-120.24
X126.93Y-122.78
X129.5Y-77.0
X129.5Y-79.54
X131.5Y-128.0
X131.5Y-130.54
X131.5Y-133.08
X131.5Y-135.62
X137.5Y-77.0
X137.5Y-79.54
X139.88Y-111.19
X139.88Y-113.73
X139.88Y-116.27
X139.88Y-118.81
X145.5Y-128.0
X145.5Y-130.54
X147.5Y-77.0
X147.5Y-79.54
X155.12Y-112.46
X155.12Y-117.54
X156.5Y-128.0
X156.5Y-130.54
X157.5Y-77.0
X157.5Y-79.54
X160.15Y-89.46
X160.15Y-94.54
X165.88Y-113.46
X165.88Y-118.54
X167.5Y-128.0
X167.5Y-130.54
X167.5Y-133.08
X172.85Y-89.46
X172.85Y-94.54
X181.12Y-112.19
X181.12Y-116.0
X181.12Y-119.81
X189.5Y-77.0
X189.5Y-79.54
X189.5Y-82.08
X189.5Y-84.62
X194.5Y-93.0
X194.5Y-95.54
X194.5Y-98.08
X194.5Y-100.62
X194.5Y-103.16
X194.5Y-105.7
T2
X176.0Y-78.0G85X177.0Y-78.0
G05
X178.0Y-80.4G85X179.0Y-80.4
G05
X178.0Y-85.9G85X179.0Y-85.9
G05
M30
