M48
; DRILL file KiCad 10.0.3 date 2026-06-14T20:34:34
; FORMAT={-:-/ absolute / metric / decimal}
; #@! TF.CreationDate,2026-06-14T20:34:34-04:00
; #@! TF.GenerationSoftware,Kicad,Pcbnew,10.0.3
; #@! TF.FileFunction,MixedPlating,1,4
FMAT,2
METRIC
; #@! TA.AperFunction,Plated,PTH,ComponentDrill
T1C1.000
%
G90
G05
T1
X104.07Y-87.22
X104.07Y-89.76
X104.07Y-92.3
X104.07Y-94.84
X104.07Y-97.38
X104.07Y-99.92
X104.07Y-102.46
X104.07Y-105.0
X104.07Y-107.54
X104.07Y-110.08
X104.07Y-112.62
X104.07Y-115.16
X104.07Y-117.7
X104.07Y-120.24
X104.07Y-122.78
X126.93Y-87.22
X126.93Y-89.76
X126.93Y-92.3
X126.93Y-94.84
X126.93Y-97.38
X126.93Y-99.92
X126.93Y-102.46
X126.93Y-105.0
X126.93Y-107.54
X126.93Y-110.08
X126.93Y-112.62
X126.93Y-115.16
X126.93Y-117.7
X126.93Y-120.24
X126.93Y-122.78
X129.5Y-77.0
X129.5Y-79.54
X131.5Y-128.0
X131.5Y-130.54
X131.5Y-133.08
X131.5Y-135.62
X137.5Y-77.0
X137.5Y-79.54
X139.88Y-111.19
X139.88Y-113.73
X139.88Y-116.27
X139.88Y-118.81
X145.5Y-128.0
X145.5Y-130.54
X147.5Y-77.0
X147.5Y-79.54
X155.12Y-112.46
X155.12Y-117.54
X156.5Y-128.0
X156.5Y-130.54
X157.5Y-77.0
X157.5Y-79.54
X157.5Y-82.08
X157.5Y-84.62
X163.96Y-92.0
X165.88Y-113.46
X165.88Y-118.54
X166.5Y-92.0
X167.5Y-128.0
X167.5Y-130.54
X167.5Y-133.08
X169.04Y-92.0
X181.12Y-112.19
X181.12Y-116.0
X181.12Y-119.81
X189.5Y-77.0
X189.5Y-79.54
X189.5Y-82.08
X189.5Y-84.62
X194.5Y-93.0
X194.5Y-95.54
X194.5Y-98.08
X194.5Y-100.62
X194.5Y-103.16
X194.5Y-105.7
M30
