%TF.GenerationSoftware,KiCad,Pcbnew,10.0.3*%
%TF.CreationDate,2026-06-14T20:34:33-04:00*%
%TF.ProjectId,tuner,74756e65-722e-46b6-9963-61645f706362,rev?*%
%TF.SameCoordinates,Original*%
%TF.FileFunction,Legend,Top*%
%TF.FilePolarity,Positive*%
%FSLAX46Y46*%
G04 Gerber Fmt 4.6, Leading zero omitted, Abs format (unit mm)*
G04 Created by KiCad (PCBNEW 10.0.3) date 2026-06-14 20:34:33*
%MOMM*%
%LPD*%
G01*
G04 APERTURE LIST*
%ADD10C,0.150000*%
%ADD11C,0.120000*%
G04 APERTURE END LIST*
D10*
X194233333Y-90182295D02*
X194233333Y-90753723D01*
X194233333Y-90753723D02*
X194195238Y-90868009D01*
X194195238Y-90868009D02*
X194119047Y-90944200D01*
X194119047Y-90944200D02*
X194004762Y-90982295D01*
X194004762Y-90982295D02*
X193928571Y-90982295D01*
X194576190Y-90258485D02*
X194614286Y-90220390D01*
X194614286Y-90220390D02*
X194690476Y-90182295D01*
X194690476Y-90182295D02*
X194880952Y-90182295D01*
X194880952Y-90182295D02*
X194957143Y-90220390D01*
X194957143Y-90220390D02*
X194995238Y-90258485D01*
X194995238Y-90258485D02*
X195033333Y-90334676D01*
X195033333Y-90334676D02*
X195033333Y-90410866D01*
X195033333Y-90410866D02*
X194995238Y-90525152D01*
X194995238Y-90525152D02*
X194538095Y-90982295D01*
X194538095Y-90982295D02*
X195033333Y-90982295D01*
X186212295Y-114133332D02*
X185831342Y-114399999D01*
X186212295Y-114590475D02*
X185412295Y-114590475D01*
X185412295Y-114590475D02*
X185412295Y-114285713D01*
X185412295Y-114285713D02*
X185450390Y-114209523D01*
X185450390Y-114209523D02*
X185488485Y-114171428D01*
X185488485Y-114171428D02*
X185564676Y-114133332D01*
X185564676Y-114133332D02*
X185678961Y-114133332D01*
X185678961Y-114133332D02*
X185755152Y-114171428D01*
X185755152Y-114171428D02*
X185793247Y-114209523D01*
X185793247Y-114209523D02*
X185831342Y-114285713D01*
X185831342Y-114285713D02*
X185831342Y-114590475D01*
X185412295Y-113409523D02*
X185412295Y-113790475D01*
X185412295Y-113790475D02*
X185793247Y-113828571D01*
X185793247Y-113828571D02*
X185755152Y-113790475D01*
X185755152Y-113790475D02*
X185717057Y-113714285D01*
X185717057Y-113714285D02*
X185717057Y-113523809D01*
X185717057Y-113523809D02*
X185755152Y-113447618D01*
X185755152Y-113447618D02*
X185793247Y-113409523D01*
X185793247Y-113409523D02*
X185869438Y-113371428D01*
X185869438Y-113371428D02*
X186059914Y-113371428D01*
X186059914Y-113371428D02*
X186136104Y-113409523D01*
X186136104Y-113409523D02*
X186174200Y-113447618D01*
X186174200Y-113447618D02*
X186212295Y-113523809D01*
X186212295Y-113523809D02*
X186212295Y-113714285D01*
X186212295Y-113714285D02*
X186174200Y-113790475D01*
X186174200Y-113790475D02*
X186136104Y-113828571D01*
X168212295Y-122133332D02*
X167831342Y-122399999D01*
X168212295Y-122590475D02*
X167412295Y-122590475D01*
X167412295Y-122590475D02*
X167412295Y-122285713D01*
X167412295Y-122285713D02*
X167450390Y-122209523D01*
X167450390Y-122209523D02*
X167488485Y-122171428D01*
X167488485Y-122171428D02*
X167564676Y-122133332D01*
X167564676Y-122133332D02*
X167678961Y-122133332D01*
X167678961Y-122133332D02*
X167755152Y-122171428D01*
X167755152Y-122171428D02*
X167793247Y-122209523D01*
X167793247Y-122209523D02*
X167831342Y-122285713D01*
X167831342Y-122285713D02*
X167831342Y-122590475D01*
X167412295Y-121866666D02*
X167412295Y-121371428D01*
X167412295Y-121371428D02*
X167717057Y-121638094D01*
X167717057Y-121638094D02*
X167717057Y-121523809D01*
X167717057Y-121523809D02*
X167755152Y-121447618D01*
X167755152Y-121447618D02*
X167793247Y-121409523D01*
X167793247Y-121409523D02*
X167869438Y-121371428D01*
X167869438Y-121371428D02*
X168059914Y-121371428D01*
X168059914Y-121371428D02*
X168136104Y-121409523D01*
X168136104Y-121409523D02*
X168174200Y-121447618D01*
X168174200Y-121447618D02*
X168212295Y-121523809D01*
X168212295Y-121523809D02*
X168212295Y-121752380D01*
X168212295Y-121752380D02*
X168174200Y-121828571D01*
X168174200Y-121828571D02*
X168136104Y-121866666D01*
X155490477Y-104606104D02*
X155452381Y-104644200D01*
X155452381Y-104644200D02*
X155338096Y-104682295D01*
X155338096Y-104682295D02*
X155261905Y-104682295D01*
X155261905Y-104682295D02*
X155147619Y-104644200D01*
X155147619Y-104644200D02*
X155071429Y-104568009D01*
X155071429Y-104568009D02*
X155033334Y-104491819D01*
X155033334Y-104491819D02*
X154995238Y-104339438D01*
X154995238Y-104339438D02*
X154995238Y-104225152D01*
X154995238Y-104225152D02*
X155033334Y-104072771D01*
X155033334Y-104072771D02*
X155071429Y-103996580D01*
X155071429Y-103996580D02*
X155147619Y-103920390D01*
X155147619Y-103920390D02*
X155261905Y-103882295D01*
X155261905Y-103882295D02*
X155338096Y-103882295D01*
X155338096Y-103882295D02*
X155452381Y-103920390D01*
X155452381Y-103920390D02*
X155490477Y-103958485D01*
X155642858Y-104758485D02*
X156252381Y-104758485D01*
X156442858Y-104682295D02*
X156442858Y-103882295D01*
X156823810Y-104682295D02*
X156823810Y-103882295D01*
X156823810Y-103882295D02*
X157280953Y-104682295D01*
X157280953Y-104682295D02*
X157280953Y-103882295D01*
X157623809Y-104453723D02*
X158004762Y-104453723D01*
X157547619Y-104682295D02*
X157814286Y-103882295D01*
X157814286Y-103882295D02*
X158080952Y-104682295D01*
X144433332Y-125944200D02*
X144547618Y-125982295D01*
X144547618Y-125982295D02*
X144738094Y-125982295D01*
X144738094Y-125982295D02*
X144814285Y-125944200D01*
X144814285Y-125944200D02*
X144852380Y-125906104D01*
X144852380Y-125906104D02*
X144890475Y-125829914D01*
X144890475Y-125829914D02*
X144890475Y-125753723D01*
X144890475Y-125753723D02*
X144852380Y-125677533D01*
X144852380Y-125677533D02*
X144814285Y-125639438D01*
X144814285Y-125639438D02*
X144738094Y-125601342D01*
X144738094Y-125601342D02*
X144585713Y-125563247D01*
X144585713Y-125563247D02*
X144509523Y-125525152D01*
X144509523Y-125525152D02*
X144471428Y-125487057D01*
X144471428Y-125487057D02*
X144433332Y-125410866D01*
X144433332Y-125410866D02*
X144433332Y-125334676D01*
X144433332Y-125334676D02*
X144471428Y-125258485D01*
X144471428Y-125258485D02*
X144509523Y-125220390D01*
X144509523Y-125220390D02*
X144585713Y-125182295D01*
X144585713Y-125182295D02*
X144776190Y-125182295D01*
X144776190Y-125182295D02*
X144890475Y-125220390D01*
X145157142Y-125182295D02*
X145347618Y-125982295D01*
X145347618Y-125982295D02*
X145499999Y-125410866D01*
X145499999Y-125410866D02*
X145652380Y-125982295D01*
X145652380Y-125982295D02*
X145842857Y-125182295D01*
X146566666Y-125982295D02*
X146109523Y-125982295D01*
X146338095Y-125982295D02*
X146338095Y-125182295D01*
X146338095Y-125182295D02*
X146261904Y-125296580D01*
X146261904Y-125296580D02*
X146185714Y-125372771D01*
X146185714Y-125372771D02*
X146109523Y-125410866D01*
X136233333Y-81293247D02*
X135966667Y-81293247D01*
X135966667Y-81712295D02*
X135966667Y-80912295D01*
X135966667Y-80912295D02*
X136347619Y-80912295D01*
X137071428Y-81712295D02*
X136614285Y-81712295D01*
X136842857Y-81712295D02*
X136842857Y-80912295D01*
X136842857Y-80912295D02*
X136766666Y-81026580D01*
X136766666Y-81026580D02*
X136690476Y-81102771D01*
X136690476Y-81102771D02*
X136614285Y-81140866D01*
X137366667Y-89936104D02*
X137328571Y-89974200D01*
X137328571Y-89974200D02*
X137214286Y-90012295D01*
X137214286Y-90012295D02*
X137138095Y-90012295D01*
X137138095Y-90012295D02*
X137023809Y-89974200D01*
X137023809Y-89974200D02*
X136947619Y-89898009D01*
X136947619Y-89898009D02*
X136909524Y-89821819D01*
X136909524Y-89821819D02*
X136871428Y-89669438D01*
X136871428Y-89669438D02*
X136871428Y-89555152D01*
X136871428Y-89555152D02*
X136909524Y-89402771D01*
X136909524Y-89402771D02*
X136947619Y-89326580D01*
X136947619Y-89326580D02*
X137023809Y-89250390D01*
X137023809Y-89250390D02*
X137138095Y-89212295D01*
X137138095Y-89212295D02*
X137214286Y-89212295D01*
X137214286Y-89212295D02*
X137328571Y-89250390D01*
X137328571Y-89250390D02*
X137366667Y-89288485D01*
X138128571Y-90012295D02*
X137671428Y-90012295D01*
X137900000Y-90012295D02*
X137900000Y-89212295D01*
X137900000Y-89212295D02*
X137823809Y-89326580D01*
X137823809Y-89326580D02*
X137747619Y-89402771D01*
X137747619Y-89402771D02*
X137671428Y-89440866D01*
X183985714Y-86606104D02*
X183947618Y-86644200D01*
X183947618Y-86644200D02*
X183833333Y-86682295D01*
X183833333Y-86682295D02*
X183757142Y-86682295D01*
X183757142Y-86682295D02*
X183642856Y-86644200D01*
X183642856Y-86644200D02*
X183566666Y-86568009D01*
X183566666Y-86568009D02*
X183528571Y-86491819D01*
X183528571Y-86491819D02*
X183490475Y-86339438D01*
X183490475Y-86339438D02*
X183490475Y-86225152D01*
X183490475Y-86225152D02*
X183528571Y-86072771D01*
X183528571Y-86072771D02*
X183566666Y-85996580D01*
X183566666Y-85996580D02*
X183642856Y-85920390D01*
X183642856Y-85920390D02*
X183757142Y-85882295D01*
X183757142Y-85882295D02*
X183833333Y-85882295D01*
X183833333Y-85882295D02*
X183947618Y-85920390D01*
X183947618Y-85920390D02*
X183985714Y-85958485D01*
X184747618Y-86682295D02*
X184290475Y-86682295D01*
X184519047Y-86682295D02*
X184519047Y-85882295D01*
X184519047Y-85882295D02*
X184442856Y-85996580D01*
X184442856Y-85996580D02*
X184366666Y-86072771D01*
X184366666Y-86072771D02*
X184290475Y-86110866D01*
X185014285Y-85882295D02*
X185509523Y-85882295D01*
X185509523Y-85882295D02*
X185242857Y-86187057D01*
X185242857Y-86187057D02*
X185357142Y-86187057D01*
X185357142Y-86187057D02*
X185433333Y-86225152D01*
X185433333Y-86225152D02*
X185471428Y-86263247D01*
X185471428Y-86263247D02*
X185509523Y-86339438D01*
X185509523Y-86339438D02*
X185509523Y-86529914D01*
X185509523Y-86529914D02*
X185471428Y-86606104D01*
X185471428Y-86606104D02*
X185433333Y-86644200D01*
X185433333Y-86644200D02*
X185357142Y-86682295D01*
X185357142Y-86682295D02*
X185128571Y-86682295D01*
X185128571Y-86682295D02*
X185052380Y-86644200D01*
X185052380Y-86644200D02*
X185014285Y-86606104D01*
X165804761Y-125182295D02*
X165804761Y-125753723D01*
X165804761Y-125753723D02*
X165766666Y-125868009D01*
X165766666Y-125868009D02*
X165690475Y-125944200D01*
X165690475Y-125944200D02*
X165576190Y-125982295D01*
X165576190Y-125982295D02*
X165499999Y-125982295D01*
X165995238Y-126058485D02*
X166604761Y-126058485D01*
X166680952Y-125182295D02*
X167138095Y-125182295D01*
X166909523Y-125982295D02*
X166909523Y-125182295D01*
X167404762Y-125182295D02*
X167404762Y-125829914D01*
X167404762Y-125829914D02*
X167442857Y-125906104D01*
X167442857Y-125906104D02*
X167480952Y-125944200D01*
X167480952Y-125944200D02*
X167557143Y-125982295D01*
X167557143Y-125982295D02*
X167709524Y-125982295D01*
X167709524Y-125982295D02*
X167785714Y-125944200D01*
X167785714Y-125944200D02*
X167823809Y-125906104D01*
X167823809Y-125906104D02*
X167861905Y-125829914D01*
X167861905Y-125829914D02*
X167861905Y-125182295D01*
X168242857Y-125982295D02*
X168242857Y-125182295D01*
X168242857Y-125182295D02*
X168700000Y-125982295D01*
X168700000Y-125982295D02*
X168700000Y-125182295D01*
X169080952Y-125563247D02*
X169347618Y-125563247D01*
X169461904Y-125982295D02*
X169080952Y-125982295D01*
X169080952Y-125982295D02*
X169080952Y-125182295D01*
X169080952Y-125182295D02*
X169461904Y-125182295D01*
X182212295Y-119371427D02*
X181831342Y-119638094D01*
X182212295Y-119828570D02*
X181412295Y-119828570D01*
X181412295Y-119828570D02*
X181412295Y-119523808D01*
X181412295Y-119523808D02*
X181450390Y-119447618D01*
X181450390Y-119447618D02*
X181488485Y-119409523D01*
X181488485Y-119409523D02*
X181564676Y-119371427D01*
X181564676Y-119371427D02*
X181678961Y-119371427D01*
X181678961Y-119371427D02*
X181755152Y-119409523D01*
X181755152Y-119409523D02*
X181793247Y-119447618D01*
X181793247Y-119447618D02*
X181831342Y-119523808D01*
X181831342Y-119523808D02*
X181831342Y-119828570D01*
X182288485Y-119219047D02*
X182288485Y-118609523D01*
X182136104Y-117961903D02*
X182174200Y-117999999D01*
X182174200Y-117999999D02*
X182212295Y-118114284D01*
X182212295Y-118114284D02*
X182212295Y-118190475D01*
X182212295Y-118190475D02*
X182174200Y-118304761D01*
X182174200Y-118304761D02*
X182098009Y-118380951D01*
X182098009Y-118380951D02*
X182021819Y-118419046D01*
X182021819Y-118419046D02*
X181869438Y-118457142D01*
X181869438Y-118457142D02*
X181755152Y-118457142D01*
X181755152Y-118457142D02*
X181602771Y-118419046D01*
X181602771Y-118419046D02*
X181526580Y-118380951D01*
X181526580Y-118380951D02*
X181450390Y-118304761D01*
X181450390Y-118304761D02*
X181412295Y-118190475D01*
X181412295Y-118190475D02*
X181412295Y-118114284D01*
X181412295Y-118114284D02*
X181450390Y-117999999D01*
X181450390Y-117999999D02*
X181488485Y-117961903D01*
X182212295Y-117619046D02*
X181412295Y-117619046D01*
X181412295Y-117352380D02*
X182212295Y-117085713D01*
X182212295Y-117085713D02*
X181412295Y-116819047D01*
X182212295Y-116133333D02*
X182212295Y-116590476D01*
X182212295Y-116361904D02*
X181412295Y-116361904D01*
X181412295Y-116361904D02*
X181526580Y-116438095D01*
X181526580Y-116438095D02*
X181602771Y-116514285D01*
X181602771Y-116514285D02*
X181640866Y-116590476D01*
X191985714Y-86606104D02*
X191947618Y-86644200D01*
X191947618Y-86644200D02*
X191833333Y-86682295D01*
X191833333Y-86682295D02*
X191757142Y-86682295D01*
X191757142Y-86682295D02*
X191642856Y-86644200D01*
X191642856Y-86644200D02*
X191566666Y-86568009D01*
X191566666Y-86568009D02*
X191528571Y-86491819D01*
X191528571Y-86491819D02*
X191490475Y-86339438D01*
X191490475Y-86339438D02*
X191490475Y-86225152D01*
X191490475Y-86225152D02*
X191528571Y-86072771D01*
X191528571Y-86072771D02*
X191566666Y-85996580D01*
X191566666Y-85996580D02*
X191642856Y-85920390D01*
X191642856Y-85920390D02*
X191757142Y-85882295D01*
X191757142Y-85882295D02*
X191833333Y-85882295D01*
X191833333Y-85882295D02*
X191947618Y-85920390D01*
X191947618Y-85920390D02*
X191985714Y-85958485D01*
X192747618Y-86682295D02*
X192290475Y-86682295D01*
X192519047Y-86682295D02*
X192519047Y-85882295D01*
X192519047Y-85882295D02*
X192442856Y-85996580D01*
X192442856Y-85996580D02*
X192366666Y-86072771D01*
X192366666Y-86072771D02*
X192290475Y-86110866D01*
X193471428Y-85882295D02*
X193090476Y-85882295D01*
X193090476Y-85882295D02*
X193052380Y-86263247D01*
X193052380Y-86263247D02*
X193090476Y-86225152D01*
X193090476Y-86225152D02*
X193166666Y-86187057D01*
X193166666Y-86187057D02*
X193357142Y-86187057D01*
X193357142Y-86187057D02*
X193433333Y-86225152D01*
X193433333Y-86225152D02*
X193471428Y-86263247D01*
X193471428Y-86263247D02*
X193509523Y-86339438D01*
X193509523Y-86339438D02*
X193509523Y-86529914D01*
X193509523Y-86529914D02*
X193471428Y-86606104D01*
X193471428Y-86606104D02*
X193433333Y-86644200D01*
X193433333Y-86644200D02*
X193357142Y-86682295D01*
X193357142Y-86682295D02*
X193166666Y-86682295D01*
X193166666Y-86682295D02*
X193090476Y-86644200D01*
X193090476Y-86644200D02*
X193052380Y-86606104D01*
X160232295Y-113857142D02*
X159851342Y-114123809D01*
X160232295Y-114314285D02*
X159432295Y-114314285D01*
X159432295Y-114314285D02*
X159432295Y-114009523D01*
X159432295Y-114009523D02*
X159470390Y-113933333D01*
X159470390Y-113933333D02*
X159508485Y-113895238D01*
X159508485Y-113895238D02*
X159584676Y-113857142D01*
X159584676Y-113857142D02*
X159698961Y-113857142D01*
X159698961Y-113857142D02*
X159775152Y-113895238D01*
X159775152Y-113895238D02*
X159813247Y-113933333D01*
X159813247Y-113933333D02*
X159851342Y-114009523D01*
X159851342Y-114009523D02*
X159851342Y-114314285D01*
X160308485Y-113704762D02*
X160308485Y-113095238D01*
X160194200Y-112942857D02*
X160232295Y-112828571D01*
X160232295Y-112828571D02*
X160232295Y-112638095D01*
X160232295Y-112638095D02*
X160194200Y-112561904D01*
X160194200Y-112561904D02*
X160156104Y-112523809D01*
X160156104Y-112523809D02*
X160079914Y-112485714D01*
X160079914Y-112485714D02*
X160003723Y-112485714D01*
X160003723Y-112485714D02*
X159927533Y-112523809D01*
X159927533Y-112523809D02*
X159889438Y-112561904D01*
X159889438Y-112561904D02*
X159851342Y-112638095D01*
X159851342Y-112638095D02*
X159813247Y-112790476D01*
X159813247Y-112790476D02*
X159775152Y-112866666D01*
X159775152Y-112866666D02*
X159737057Y-112904761D01*
X159737057Y-112904761D02*
X159660866Y-112942857D01*
X159660866Y-112942857D02*
X159584676Y-112942857D01*
X159584676Y-112942857D02*
X159508485Y-112904761D01*
X159508485Y-112904761D02*
X159470390Y-112866666D01*
X159470390Y-112866666D02*
X159432295Y-112790476D01*
X159432295Y-112790476D02*
X159432295Y-112599999D01*
X159432295Y-112599999D02*
X159470390Y-112485714D01*
X160232295Y-112142856D02*
X159432295Y-112142856D01*
X159813247Y-112142856D02*
X159813247Y-111685713D01*
X160232295Y-111685713D02*
X159432295Y-111685713D01*
X182212295Y-126514285D02*
X181831342Y-126780952D01*
X182212295Y-126971428D02*
X181412295Y-126971428D01*
X181412295Y-126971428D02*
X181412295Y-126666666D01*
X181412295Y-126666666D02*
X181450390Y-126590476D01*
X181450390Y-126590476D02*
X181488485Y-126552381D01*
X181488485Y-126552381D02*
X181564676Y-126514285D01*
X181564676Y-126514285D02*
X181678961Y-126514285D01*
X181678961Y-126514285D02*
X181755152Y-126552381D01*
X181755152Y-126552381D02*
X181793247Y-126590476D01*
X181793247Y-126590476D02*
X181831342Y-126666666D01*
X181831342Y-126666666D02*
X181831342Y-126971428D01*
X182212295Y-125752381D02*
X182212295Y-126209524D01*
X182212295Y-125980952D02*
X181412295Y-125980952D01*
X181412295Y-125980952D02*
X181526580Y-126057143D01*
X181526580Y-126057143D02*
X181602771Y-126133333D01*
X181602771Y-126133333D02*
X181640866Y-126209524D01*
X181412295Y-125485714D02*
X181412295Y-124990476D01*
X181412295Y-124990476D02*
X181717057Y-125257142D01*
X181717057Y-125257142D02*
X181717057Y-125142857D01*
X181717057Y-125142857D02*
X181755152Y-125066666D01*
X181755152Y-125066666D02*
X181793247Y-125028571D01*
X181793247Y-125028571D02*
X181869438Y-124990476D01*
X181869438Y-124990476D02*
X182059914Y-124990476D01*
X182059914Y-124990476D02*
X182136104Y-125028571D01*
X182136104Y-125028571D02*
X182174200Y-125066666D01*
X182174200Y-125066666D02*
X182212295Y-125142857D01*
X182212295Y-125142857D02*
X182212295Y-125371428D01*
X182212295Y-125371428D02*
X182174200Y-125447619D01*
X182174200Y-125447619D02*
X182136104Y-125485714D01*
X175423809Y-107038485D02*
X175347619Y-107000390D01*
X175347619Y-107000390D02*
X175271428Y-106924200D01*
X175271428Y-106924200D02*
X175157142Y-106809914D01*
X175157142Y-106809914D02*
X175080952Y-106771819D01*
X175080952Y-106771819D02*
X175004761Y-106771819D01*
X175042857Y-106962295D02*
X174966666Y-106924200D01*
X174966666Y-106924200D02*
X174890476Y-106848009D01*
X174890476Y-106848009D02*
X174852380Y-106695628D01*
X174852380Y-106695628D02*
X174852380Y-106428961D01*
X174852380Y-106428961D02*
X174890476Y-106276580D01*
X174890476Y-106276580D02*
X174966666Y-106200390D01*
X174966666Y-106200390D02*
X175042857Y-106162295D01*
X175042857Y-106162295D02*
X175195238Y-106162295D01*
X175195238Y-106162295D02*
X175271428Y-106200390D01*
X175271428Y-106200390D02*
X175347619Y-106276580D01*
X175347619Y-106276580D02*
X175385714Y-106428961D01*
X175385714Y-106428961D02*
X175385714Y-106695628D01*
X175385714Y-106695628D02*
X175347619Y-106848009D01*
X175347619Y-106848009D02*
X175271428Y-106924200D01*
X175271428Y-106924200D02*
X175195238Y-106962295D01*
X175195238Y-106962295D02*
X175042857Y-106962295D01*
X176147618Y-106962295D02*
X175690475Y-106962295D01*
X175919047Y-106962295D02*
X175919047Y-106162295D01*
X175919047Y-106162295D02*
X175842856Y-106276580D01*
X175842856Y-106276580D02*
X175766666Y-106352771D01*
X175766666Y-106352771D02*
X175690475Y-106390866D01*
X162366667Y-101606104D02*
X162328571Y-101644200D01*
X162328571Y-101644200D02*
X162214286Y-101682295D01*
X162214286Y-101682295D02*
X162138095Y-101682295D01*
X162138095Y-101682295D02*
X162023809Y-101644200D01*
X162023809Y-101644200D02*
X161947619Y-101568009D01*
X161947619Y-101568009D02*
X161909524Y-101491819D01*
X161909524Y-101491819D02*
X161871428Y-101339438D01*
X161871428Y-101339438D02*
X161871428Y-101225152D01*
X161871428Y-101225152D02*
X161909524Y-101072771D01*
X161909524Y-101072771D02*
X161947619Y-100996580D01*
X161947619Y-100996580D02*
X162023809Y-100920390D01*
X162023809Y-100920390D02*
X162138095Y-100882295D01*
X162138095Y-100882295D02*
X162214286Y-100882295D01*
X162214286Y-100882295D02*
X162328571Y-100920390D01*
X162328571Y-100920390D02*
X162366667Y-100958485D01*
X163052381Y-100882295D02*
X162900000Y-100882295D01*
X162900000Y-100882295D02*
X162823809Y-100920390D01*
X162823809Y-100920390D02*
X162785714Y-100958485D01*
X162785714Y-100958485D02*
X162709524Y-101072771D01*
X162709524Y-101072771D02*
X162671428Y-101225152D01*
X162671428Y-101225152D02*
X162671428Y-101529914D01*
X162671428Y-101529914D02*
X162709524Y-101606104D01*
X162709524Y-101606104D02*
X162747619Y-101644200D01*
X162747619Y-101644200D02*
X162823809Y-101682295D01*
X162823809Y-101682295D02*
X162976190Y-101682295D01*
X162976190Y-101682295D02*
X163052381Y-101644200D01*
X163052381Y-101644200D02*
X163090476Y-101606104D01*
X163090476Y-101606104D02*
X163128571Y-101529914D01*
X163128571Y-101529914D02*
X163128571Y-101339438D01*
X163128571Y-101339438D02*
X163090476Y-101263247D01*
X163090476Y-101263247D02*
X163052381Y-101225152D01*
X163052381Y-101225152D02*
X162976190Y-101187057D01*
X162976190Y-101187057D02*
X162823809Y-101187057D01*
X162823809Y-101187057D02*
X162747619Y-101225152D01*
X162747619Y-101225152D02*
X162709524Y-101263247D01*
X162709524Y-101263247D02*
X162671428Y-101339438D01*
X132212295Y-127428570D02*
X131831342Y-127695237D01*
X132212295Y-127885713D02*
X131412295Y-127885713D01*
X131412295Y-127885713D02*
X131412295Y-127580951D01*
X131412295Y-127580951D02*
X131450390Y-127504761D01*
X131450390Y-127504761D02*
X131488485Y-127466666D01*
X131488485Y-127466666D02*
X131564676Y-127428570D01*
X131564676Y-127428570D02*
X131678961Y-127428570D01*
X131678961Y-127428570D02*
X131755152Y-127466666D01*
X131755152Y-127466666D02*
X131793247Y-127504761D01*
X131793247Y-127504761D02*
X131831342Y-127580951D01*
X131831342Y-127580951D02*
X131831342Y-127885713D01*
X132288485Y-127276190D02*
X132288485Y-126666666D01*
X132212295Y-126476189D02*
X131412295Y-126476189D01*
X131412295Y-125942856D02*
X131412295Y-125790475D01*
X131412295Y-125790475D02*
X131450390Y-125714285D01*
X131450390Y-125714285D02*
X131526580Y-125638094D01*
X131526580Y-125638094D02*
X131678961Y-125599999D01*
X131678961Y-125599999D02*
X131945628Y-125599999D01*
X131945628Y-125599999D02*
X132098009Y-125638094D01*
X132098009Y-125638094D02*
X132174200Y-125714285D01*
X132174200Y-125714285D02*
X132212295Y-125790475D01*
X132212295Y-125790475D02*
X132212295Y-125942856D01*
X132212295Y-125942856D02*
X132174200Y-126019047D01*
X132174200Y-126019047D02*
X132098009Y-126095237D01*
X132098009Y-126095237D02*
X131945628Y-126133333D01*
X131945628Y-126133333D02*
X131678961Y-126133333D01*
X131678961Y-126133333D02*
X131526580Y-126095237D01*
X131526580Y-126095237D02*
X131450390Y-126019047D01*
X131450390Y-126019047D02*
X131412295Y-125942856D01*
X132212295Y-124838095D02*
X132212295Y-125295238D01*
X132212295Y-125066666D02*
X131412295Y-125066666D01*
X131412295Y-125066666D02*
X131526580Y-125142857D01*
X131526580Y-125142857D02*
X131602771Y-125219047D01*
X131602771Y-125219047D02*
X131640866Y-125295238D01*
X131488485Y-124533333D02*
X131450390Y-124495237D01*
X131450390Y-124495237D02*
X131412295Y-124419047D01*
X131412295Y-124419047D02*
X131412295Y-124228571D01*
X131412295Y-124228571D02*
X131450390Y-124152380D01*
X131450390Y-124152380D02*
X131488485Y-124114285D01*
X131488485Y-124114285D02*
X131564676Y-124076190D01*
X131564676Y-124076190D02*
X131640866Y-124076190D01*
X131640866Y-124076190D02*
X131755152Y-124114285D01*
X131755152Y-124114285D02*
X132212295Y-124571428D01*
X132212295Y-124571428D02*
X132212295Y-124076190D01*
X152642857Y-97936104D02*
X152604761Y-97974200D01*
X152604761Y-97974200D02*
X152490476Y-98012295D01*
X152490476Y-98012295D02*
X152414285Y-98012295D01*
X152414285Y-98012295D02*
X152299999Y-97974200D01*
X152299999Y-97974200D02*
X152223809Y-97898009D01*
X152223809Y-97898009D02*
X152185714Y-97821819D01*
X152185714Y-97821819D02*
X152147618Y-97669438D01*
X152147618Y-97669438D02*
X152147618Y-97555152D01*
X152147618Y-97555152D02*
X152185714Y-97402771D01*
X152185714Y-97402771D02*
X152223809Y-97326580D01*
X152223809Y-97326580D02*
X152299999Y-97250390D01*
X152299999Y-97250390D02*
X152414285Y-97212295D01*
X152414285Y-97212295D02*
X152490476Y-97212295D01*
X152490476Y-97212295D02*
X152604761Y-97250390D01*
X152604761Y-97250390D02*
X152642857Y-97288485D01*
X152795238Y-98088485D02*
X153404761Y-98088485D01*
X153480952Y-97212295D02*
X153747619Y-98012295D01*
X153747619Y-98012295D02*
X154014285Y-97212295D01*
X154280952Y-98012295D02*
X154280952Y-97212295D01*
X154280952Y-97212295D02*
X154547618Y-97783723D01*
X154547618Y-97783723D02*
X154814285Y-97212295D01*
X154814285Y-97212295D02*
X154814285Y-98012295D01*
X132106104Y-108133332D02*
X132144200Y-108171428D01*
X132144200Y-108171428D02*
X132182295Y-108285713D01*
X132182295Y-108285713D02*
X132182295Y-108361904D01*
X132182295Y-108361904D02*
X132144200Y-108476190D01*
X132144200Y-108476190D02*
X132068009Y-108552380D01*
X132068009Y-108552380D02*
X131991819Y-108590475D01*
X131991819Y-108590475D02*
X131839438Y-108628571D01*
X131839438Y-108628571D02*
X131725152Y-108628571D01*
X131725152Y-108628571D02*
X131572771Y-108590475D01*
X131572771Y-108590475D02*
X131496580Y-108552380D01*
X131496580Y-108552380D02*
X131420390Y-108476190D01*
X131420390Y-108476190D02*
X131382295Y-108361904D01*
X131382295Y-108361904D02*
X131382295Y-108285713D01*
X131382295Y-108285713D02*
X131420390Y-108171428D01*
X131420390Y-108171428D02*
X131458485Y-108133332D01*
X131382295Y-107409523D02*
X131382295Y-107790475D01*
X131382295Y-107790475D02*
X131763247Y-107828571D01*
X131763247Y-107828571D02*
X131725152Y-107790475D01*
X131725152Y-107790475D02*
X131687057Y-107714285D01*
X131687057Y-107714285D02*
X131687057Y-107523809D01*
X131687057Y-107523809D02*
X131725152Y-107447618D01*
X131725152Y-107447618D02*
X131763247Y-107409523D01*
X131763247Y-107409523D02*
X131839438Y-107371428D01*
X131839438Y-107371428D02*
X132029914Y-107371428D01*
X132029914Y-107371428D02*
X132106104Y-107409523D01*
X132106104Y-107409523D02*
X132144200Y-107447618D01*
X132144200Y-107447618D02*
X132182295Y-107523809D01*
X132182295Y-107523809D02*
X132182295Y-107714285D01*
X132182295Y-107714285D02*
X132144200Y-107790475D01*
X132144200Y-107790475D02*
X132106104Y-107828571D01*
X155890476Y-107162295D02*
X155890476Y-107809914D01*
X155890476Y-107809914D02*
X155928571Y-107886104D01*
X155928571Y-107886104D02*
X155966666Y-107924200D01*
X155966666Y-107924200D02*
X156042857Y-107962295D01*
X156042857Y-107962295D02*
X156195238Y-107962295D01*
X156195238Y-107962295D02*
X156271428Y-107924200D01*
X156271428Y-107924200D02*
X156309523Y-107886104D01*
X156309523Y-107886104D02*
X156347619Y-107809914D01*
X156347619Y-107809914D02*
X156347619Y-107162295D01*
X157071428Y-107162295D02*
X156919047Y-107162295D01*
X156919047Y-107162295D02*
X156842856Y-107200390D01*
X156842856Y-107200390D02*
X156804761Y-107238485D01*
X156804761Y-107238485D02*
X156728571Y-107352771D01*
X156728571Y-107352771D02*
X156690475Y-107505152D01*
X156690475Y-107505152D02*
X156690475Y-107809914D01*
X156690475Y-107809914D02*
X156728571Y-107886104D01*
X156728571Y-107886104D02*
X156766666Y-107924200D01*
X156766666Y-107924200D02*
X156842856Y-107962295D01*
X156842856Y-107962295D02*
X156995237Y-107962295D01*
X156995237Y-107962295D02*
X157071428Y-107924200D01*
X157071428Y-107924200D02*
X157109523Y-107886104D01*
X157109523Y-107886104D02*
X157147618Y-107809914D01*
X157147618Y-107809914D02*
X157147618Y-107619438D01*
X157147618Y-107619438D02*
X157109523Y-107543247D01*
X157109523Y-107543247D02*
X157071428Y-107505152D01*
X157071428Y-107505152D02*
X156995237Y-107467057D01*
X156995237Y-107467057D02*
X156842856Y-107467057D01*
X156842856Y-107467057D02*
X156766666Y-107505152D01*
X156766666Y-107505152D02*
X156728571Y-107543247D01*
X156728571Y-107543247D02*
X156690475Y-107619438D01*
X188909524Y-104512295D02*
X188909524Y-103712295D01*
X188909524Y-103712295D02*
X189100000Y-103712295D01*
X189100000Y-103712295D02*
X189214286Y-103750390D01*
X189214286Y-103750390D02*
X189290476Y-103826580D01*
X189290476Y-103826580D02*
X189328571Y-103902771D01*
X189328571Y-103902771D02*
X189366667Y-104055152D01*
X189366667Y-104055152D02*
X189366667Y-104169438D01*
X189366667Y-104169438D02*
X189328571Y-104321819D01*
X189328571Y-104321819D02*
X189290476Y-104398009D01*
X189290476Y-104398009D02*
X189214286Y-104474200D01*
X189214286Y-104474200D02*
X189100000Y-104512295D01*
X189100000Y-104512295D02*
X188909524Y-104512295D01*
X189633333Y-103712295D02*
X190128571Y-103712295D01*
X190128571Y-103712295D02*
X189861905Y-104017057D01*
X189861905Y-104017057D02*
X189976190Y-104017057D01*
X189976190Y-104017057D02*
X190052381Y-104055152D01*
X190052381Y-104055152D02*
X190090476Y-104093247D01*
X190090476Y-104093247D02*
X190128571Y-104169438D01*
X190128571Y-104169438D02*
X190128571Y-104359914D01*
X190128571Y-104359914D02*
X190090476Y-104436104D01*
X190090476Y-104436104D02*
X190052381Y-104474200D01*
X190052381Y-104474200D02*
X189976190Y-104512295D01*
X189976190Y-104512295D02*
X189747619Y-104512295D01*
X189747619Y-104512295D02*
X189671428Y-104474200D01*
X189671428Y-104474200D02*
X189633333Y-104436104D01*
X137233333Y-74182295D02*
X137233333Y-74753723D01*
X137233333Y-74753723D02*
X137195238Y-74868009D01*
X137195238Y-74868009D02*
X137119047Y-74944200D01*
X137119047Y-74944200D02*
X137004762Y-74982295D01*
X137004762Y-74982295D02*
X136928571Y-74982295D01*
X137957143Y-74448961D02*
X137957143Y-74982295D01*
X137766667Y-74144200D02*
X137576190Y-74715628D01*
X137576190Y-74715628D02*
X138071429Y-74715628D01*
X114890476Y-96562295D02*
X114890476Y-97209914D01*
X114890476Y-97209914D02*
X114928571Y-97286104D01*
X114928571Y-97286104D02*
X114966666Y-97324200D01*
X114966666Y-97324200D02*
X115042857Y-97362295D01*
X115042857Y-97362295D02*
X115195238Y-97362295D01*
X115195238Y-97362295D02*
X115271428Y-97324200D01*
X115271428Y-97324200D02*
X115309523Y-97286104D01*
X115309523Y-97286104D02*
X115347619Y-97209914D01*
X115347619Y-97209914D02*
X115347619Y-96562295D01*
X115690475Y-96638485D02*
X115728571Y-96600390D01*
X115728571Y-96600390D02*
X115804761Y-96562295D01*
X115804761Y-96562295D02*
X115995237Y-96562295D01*
X115995237Y-96562295D02*
X116071428Y-96600390D01*
X116071428Y-96600390D02*
X116109523Y-96638485D01*
X116109523Y-96638485D02*
X116147618Y-96714676D01*
X116147618Y-96714676D02*
X116147618Y-96790866D01*
X116147618Y-96790866D02*
X116109523Y-96905152D01*
X116109523Y-96905152D02*
X115652380Y-97362295D01*
X115652380Y-97362295D02*
X116147618Y-97362295D01*
X182106104Y-114514285D02*
X182144200Y-114552381D01*
X182144200Y-114552381D02*
X182182295Y-114666666D01*
X182182295Y-114666666D02*
X182182295Y-114742857D01*
X182182295Y-114742857D02*
X182144200Y-114857143D01*
X182144200Y-114857143D02*
X182068009Y-114933333D01*
X182068009Y-114933333D02*
X181991819Y-114971428D01*
X181991819Y-114971428D02*
X181839438Y-115009524D01*
X181839438Y-115009524D02*
X181725152Y-115009524D01*
X181725152Y-115009524D02*
X181572771Y-114971428D01*
X181572771Y-114971428D02*
X181496580Y-114933333D01*
X181496580Y-114933333D02*
X181420390Y-114857143D01*
X181420390Y-114857143D02*
X181382295Y-114742857D01*
X181382295Y-114742857D02*
X181382295Y-114666666D01*
X181382295Y-114666666D02*
X181420390Y-114552381D01*
X181420390Y-114552381D02*
X181458485Y-114514285D01*
X182182295Y-113752381D02*
X182182295Y-114209524D01*
X182182295Y-113980952D02*
X181382295Y-113980952D01*
X181382295Y-113980952D02*
X181496580Y-114057143D01*
X181496580Y-114057143D02*
X181572771Y-114133333D01*
X181572771Y-114133333D02*
X181610866Y-114209524D01*
X181382295Y-113257142D02*
X181382295Y-113180952D01*
X181382295Y-113180952D02*
X181420390Y-113104761D01*
X181420390Y-113104761D02*
X181458485Y-113066666D01*
X181458485Y-113066666D02*
X181534676Y-113028571D01*
X181534676Y-113028571D02*
X181687057Y-112990476D01*
X181687057Y-112990476D02*
X181877533Y-112990476D01*
X181877533Y-112990476D02*
X182029914Y-113028571D01*
X182029914Y-113028571D02*
X182106104Y-113066666D01*
X182106104Y-113066666D02*
X182144200Y-113104761D01*
X182144200Y-113104761D02*
X182182295Y-113180952D01*
X182182295Y-113180952D02*
X182182295Y-113257142D01*
X182182295Y-113257142D02*
X182144200Y-113333333D01*
X182144200Y-113333333D02*
X182106104Y-113371428D01*
X182106104Y-113371428D02*
X182029914Y-113409523D01*
X182029914Y-113409523D02*
X181877533Y-113447619D01*
X181877533Y-113447619D02*
X181687057Y-113447619D01*
X181687057Y-113447619D02*
X181534676Y-113409523D01*
X181534676Y-113409523D02*
X181458485Y-113371428D01*
X181458485Y-113371428D02*
X181420390Y-113333333D01*
X181420390Y-113333333D02*
X181382295Y-113257142D01*
X179423809Y-107038485D02*
X179347619Y-107000390D01*
X179347619Y-107000390D02*
X179271428Y-106924200D01*
X179271428Y-106924200D02*
X179157142Y-106809914D01*
X179157142Y-106809914D02*
X179080952Y-106771819D01*
X179080952Y-106771819D02*
X179004761Y-106771819D01*
X179042857Y-106962295D02*
X178966666Y-106924200D01*
X178966666Y-106924200D02*
X178890476Y-106848009D01*
X178890476Y-106848009D02*
X178852380Y-106695628D01*
X178852380Y-106695628D02*
X178852380Y-106428961D01*
X178852380Y-106428961D02*
X178890476Y-106276580D01*
X178890476Y-106276580D02*
X178966666Y-106200390D01*
X178966666Y-106200390D02*
X179042857Y-106162295D01*
X179042857Y-106162295D02*
X179195238Y-106162295D01*
X179195238Y-106162295D02*
X179271428Y-106200390D01*
X179271428Y-106200390D02*
X179347619Y-106276580D01*
X179347619Y-106276580D02*
X179385714Y-106428961D01*
X179385714Y-106428961D02*
X179385714Y-106695628D01*
X179385714Y-106695628D02*
X179347619Y-106848009D01*
X179347619Y-106848009D02*
X179271428Y-106924200D01*
X179271428Y-106924200D02*
X179195238Y-106962295D01*
X179195238Y-106962295D02*
X179042857Y-106962295D01*
X179690475Y-106238485D02*
X179728571Y-106200390D01*
X179728571Y-106200390D02*
X179804761Y-106162295D01*
X179804761Y-106162295D02*
X179995237Y-106162295D01*
X179995237Y-106162295D02*
X180071428Y-106200390D01*
X180071428Y-106200390D02*
X180109523Y-106238485D01*
X180109523Y-106238485D02*
X180147618Y-106314676D01*
X180147618Y-106314676D02*
X180147618Y-106390866D01*
X180147618Y-106390866D02*
X180109523Y-106505152D01*
X180109523Y-106505152D02*
X179652380Y-106962295D01*
X179652380Y-106962295D02*
X180147618Y-106962295D01*
X190212295Y-119371427D02*
X189831342Y-119638094D01*
X190212295Y-119828570D02*
X189412295Y-119828570D01*
X189412295Y-119828570D02*
X189412295Y-119523808D01*
X189412295Y-119523808D02*
X189450390Y-119447618D01*
X189450390Y-119447618D02*
X189488485Y-119409523D01*
X189488485Y-119409523D02*
X189564676Y-119371427D01*
X189564676Y-119371427D02*
X189678961Y-119371427D01*
X189678961Y-119371427D02*
X189755152Y-119409523D01*
X189755152Y-119409523D02*
X189793247Y-119447618D01*
X189793247Y-119447618D02*
X189831342Y-119523808D01*
X189831342Y-119523808D02*
X189831342Y-119828570D01*
X190288485Y-119219047D02*
X190288485Y-118609523D01*
X190136104Y-117961903D02*
X190174200Y-117999999D01*
X190174200Y-117999999D02*
X190212295Y-118114284D01*
X190212295Y-118114284D02*
X190212295Y-118190475D01*
X190212295Y-118190475D02*
X190174200Y-118304761D01*
X190174200Y-118304761D02*
X190098009Y-118380951D01*
X190098009Y-118380951D02*
X190021819Y-118419046D01*
X190021819Y-118419046D02*
X189869438Y-118457142D01*
X189869438Y-118457142D02*
X189755152Y-118457142D01*
X189755152Y-118457142D02*
X189602771Y-118419046D01*
X189602771Y-118419046D02*
X189526580Y-118380951D01*
X189526580Y-118380951D02*
X189450390Y-118304761D01*
X189450390Y-118304761D02*
X189412295Y-118190475D01*
X189412295Y-118190475D02*
X189412295Y-118114284D01*
X189412295Y-118114284D02*
X189450390Y-117999999D01*
X189450390Y-117999999D02*
X189488485Y-117961903D01*
X190212295Y-117619046D02*
X189412295Y-117619046D01*
X189412295Y-117352380D02*
X190212295Y-117085713D01*
X190212295Y-117085713D02*
X189412295Y-116819047D01*
X189412295Y-116628571D02*
X189412295Y-116133333D01*
X189412295Y-116133333D02*
X189717057Y-116399999D01*
X189717057Y-116399999D02*
X189717057Y-116285714D01*
X189717057Y-116285714D02*
X189755152Y-116209523D01*
X189755152Y-116209523D02*
X189793247Y-116171428D01*
X189793247Y-116171428D02*
X189869438Y-116133333D01*
X189869438Y-116133333D02*
X190059914Y-116133333D01*
X190059914Y-116133333D02*
X190136104Y-116171428D01*
X190136104Y-116171428D02*
X190174200Y-116209523D01*
X190174200Y-116209523D02*
X190212295Y-116285714D01*
X190212295Y-116285714D02*
X190212295Y-116514285D01*
X190212295Y-116514285D02*
X190174200Y-116590476D01*
X190174200Y-116590476D02*
X190136104Y-116628571D01*
X190212295Y-122514285D02*
X189831342Y-122780952D01*
X190212295Y-122971428D02*
X189412295Y-122971428D01*
X189412295Y-122971428D02*
X189412295Y-122666666D01*
X189412295Y-122666666D02*
X189450390Y-122590476D01*
X189450390Y-122590476D02*
X189488485Y-122552381D01*
X189488485Y-122552381D02*
X189564676Y-122514285D01*
X189564676Y-122514285D02*
X189678961Y-122514285D01*
X189678961Y-122514285D02*
X189755152Y-122552381D01*
X189755152Y-122552381D02*
X189793247Y-122590476D01*
X189793247Y-122590476D02*
X189831342Y-122666666D01*
X189831342Y-122666666D02*
X189831342Y-122971428D01*
X190212295Y-121752381D02*
X190212295Y-122209524D01*
X190212295Y-121980952D02*
X189412295Y-121980952D01*
X189412295Y-121980952D02*
X189526580Y-122057143D01*
X189526580Y-122057143D02*
X189602771Y-122133333D01*
X189602771Y-122133333D02*
X189640866Y-122209524D01*
X189488485Y-121447619D02*
X189450390Y-121409523D01*
X189450390Y-121409523D02*
X189412295Y-121333333D01*
X189412295Y-121333333D02*
X189412295Y-121142857D01*
X189412295Y-121142857D02*
X189450390Y-121066666D01*
X189450390Y-121066666D02*
X189488485Y-121028571D01*
X189488485Y-121028571D02*
X189564676Y-120990476D01*
X189564676Y-120990476D02*
X189640866Y-120990476D01*
X189640866Y-120990476D02*
X189755152Y-121028571D01*
X189755152Y-121028571D02*
X190212295Y-121485714D01*
X190212295Y-121485714D02*
X190212295Y-120990476D01*
X190212295Y-126761904D02*
X189831342Y-127028571D01*
X190212295Y-127219047D02*
X189412295Y-127219047D01*
X189412295Y-127219047D02*
X189412295Y-126914285D01*
X189412295Y-126914285D02*
X189450390Y-126838095D01*
X189450390Y-126838095D02*
X189488485Y-126800000D01*
X189488485Y-126800000D02*
X189564676Y-126761904D01*
X189564676Y-126761904D02*
X189678961Y-126761904D01*
X189678961Y-126761904D02*
X189755152Y-126800000D01*
X189755152Y-126800000D02*
X189793247Y-126838095D01*
X189793247Y-126838095D02*
X189831342Y-126914285D01*
X189831342Y-126914285D02*
X189831342Y-127219047D01*
X190288485Y-126609524D02*
X190288485Y-126000000D01*
X189412295Y-125923809D02*
X189412295Y-125466666D01*
X190212295Y-125695238D02*
X189412295Y-125695238D01*
X190212295Y-125199999D02*
X189412295Y-125199999D01*
X189412295Y-125199999D02*
X189412295Y-125009523D01*
X189412295Y-125009523D02*
X189450390Y-124895237D01*
X189450390Y-124895237D02*
X189526580Y-124819047D01*
X189526580Y-124819047D02*
X189602771Y-124780952D01*
X189602771Y-124780952D02*
X189755152Y-124742856D01*
X189755152Y-124742856D02*
X189869438Y-124742856D01*
X189869438Y-124742856D02*
X190021819Y-124780952D01*
X190021819Y-124780952D02*
X190098009Y-124819047D01*
X190098009Y-124819047D02*
X190174200Y-124895237D01*
X190174200Y-124895237D02*
X190212295Y-125009523D01*
X190212295Y-125009523D02*
X190212295Y-125199999D01*
X190212295Y-114133332D02*
X189831342Y-114399999D01*
X190212295Y-114590475D02*
X189412295Y-114590475D01*
X189412295Y-114590475D02*
X189412295Y-114285713D01*
X189412295Y-114285713D02*
X189450390Y-114209523D01*
X189450390Y-114209523D02*
X189488485Y-114171428D01*
X189488485Y-114171428D02*
X189564676Y-114133332D01*
X189564676Y-114133332D02*
X189678961Y-114133332D01*
X189678961Y-114133332D02*
X189755152Y-114171428D01*
X189755152Y-114171428D02*
X189793247Y-114209523D01*
X189793247Y-114209523D02*
X189831342Y-114285713D01*
X189831342Y-114285713D02*
X189831342Y-114590475D01*
X189412295Y-113447618D02*
X189412295Y-113599999D01*
X189412295Y-113599999D02*
X189450390Y-113676190D01*
X189450390Y-113676190D02*
X189488485Y-113714285D01*
X189488485Y-113714285D02*
X189602771Y-113790475D01*
X189602771Y-113790475D02*
X189755152Y-113828571D01*
X189755152Y-113828571D02*
X190059914Y-113828571D01*
X190059914Y-113828571D02*
X190136104Y-113790475D01*
X190136104Y-113790475D02*
X190174200Y-113752380D01*
X190174200Y-113752380D02*
X190212295Y-113676190D01*
X190212295Y-113676190D02*
X190212295Y-113523809D01*
X190212295Y-113523809D02*
X190174200Y-113447618D01*
X190174200Y-113447618D02*
X190136104Y-113409523D01*
X190136104Y-113409523D02*
X190059914Y-113371428D01*
X190059914Y-113371428D02*
X189869438Y-113371428D01*
X189869438Y-113371428D02*
X189793247Y-113409523D01*
X189793247Y-113409523D02*
X189755152Y-113447618D01*
X189755152Y-113447618D02*
X189717057Y-113523809D01*
X189717057Y-113523809D02*
X189717057Y-113676190D01*
X189717057Y-113676190D02*
X189755152Y-113752380D01*
X189755152Y-113752380D02*
X189793247Y-113790475D01*
X189793247Y-113790475D02*
X189869438Y-113828571D01*
X172366667Y-98606104D02*
X172328571Y-98644200D01*
X172328571Y-98644200D02*
X172214286Y-98682295D01*
X172214286Y-98682295D02*
X172138095Y-98682295D01*
X172138095Y-98682295D02*
X172023809Y-98644200D01*
X172023809Y-98644200D02*
X171947619Y-98568009D01*
X171947619Y-98568009D02*
X171909524Y-98491819D01*
X171909524Y-98491819D02*
X171871428Y-98339438D01*
X171871428Y-98339438D02*
X171871428Y-98225152D01*
X171871428Y-98225152D02*
X171909524Y-98072771D01*
X171909524Y-98072771D02*
X171947619Y-97996580D01*
X171947619Y-97996580D02*
X172023809Y-97920390D01*
X172023809Y-97920390D02*
X172138095Y-97882295D01*
X172138095Y-97882295D02*
X172214286Y-97882295D01*
X172214286Y-97882295D02*
X172328571Y-97920390D01*
X172328571Y-97920390D02*
X172366667Y-97958485D01*
X172633333Y-97882295D02*
X173128571Y-97882295D01*
X173128571Y-97882295D02*
X172861905Y-98187057D01*
X172861905Y-98187057D02*
X172976190Y-98187057D01*
X172976190Y-98187057D02*
X173052381Y-98225152D01*
X173052381Y-98225152D02*
X173090476Y-98263247D01*
X173090476Y-98263247D02*
X173128571Y-98339438D01*
X173128571Y-98339438D02*
X173128571Y-98529914D01*
X173128571Y-98529914D02*
X173090476Y-98606104D01*
X173090476Y-98606104D02*
X173052381Y-98644200D01*
X173052381Y-98644200D02*
X172976190Y-98682295D01*
X172976190Y-98682295D02*
X172747619Y-98682295D01*
X172747619Y-98682295D02*
X172671428Y-98644200D01*
X172671428Y-98644200D02*
X172633333Y-98606104D01*
X186212295Y-119371427D02*
X185831342Y-119638094D01*
X186212295Y-119828570D02*
X185412295Y-119828570D01*
X185412295Y-119828570D02*
X185412295Y-119523808D01*
X185412295Y-119523808D02*
X185450390Y-119447618D01*
X185450390Y-119447618D02*
X185488485Y-119409523D01*
X185488485Y-119409523D02*
X185564676Y-119371427D01*
X185564676Y-119371427D02*
X185678961Y-119371427D01*
X185678961Y-119371427D02*
X185755152Y-119409523D01*
X185755152Y-119409523D02*
X185793247Y-119447618D01*
X185793247Y-119447618D02*
X185831342Y-119523808D01*
X185831342Y-119523808D02*
X185831342Y-119828570D01*
X186288485Y-119219047D02*
X186288485Y-118609523D01*
X186136104Y-117961903D02*
X186174200Y-117999999D01*
X186174200Y-117999999D02*
X186212295Y-118114284D01*
X186212295Y-118114284D02*
X186212295Y-118190475D01*
X186212295Y-118190475D02*
X186174200Y-118304761D01*
X186174200Y-118304761D02*
X186098009Y-118380951D01*
X186098009Y-118380951D02*
X186021819Y-118419046D01*
X186021819Y-118419046D02*
X185869438Y-118457142D01*
X185869438Y-118457142D02*
X185755152Y-118457142D01*
X185755152Y-118457142D02*
X185602771Y-118419046D01*
X185602771Y-118419046D02*
X185526580Y-118380951D01*
X185526580Y-118380951D02*
X185450390Y-118304761D01*
X185450390Y-118304761D02*
X185412295Y-118190475D01*
X185412295Y-118190475D02*
X185412295Y-118114284D01*
X185412295Y-118114284D02*
X185450390Y-117999999D01*
X185450390Y-117999999D02*
X185488485Y-117961903D01*
X186212295Y-117619046D02*
X185412295Y-117619046D01*
X185412295Y-117352380D02*
X186212295Y-117085713D01*
X186212295Y-117085713D02*
X185412295Y-116819047D01*
X185488485Y-116590476D02*
X185450390Y-116552380D01*
X185450390Y-116552380D02*
X185412295Y-116476190D01*
X185412295Y-116476190D02*
X185412295Y-116285714D01*
X185412295Y-116285714D02*
X185450390Y-116209523D01*
X185450390Y-116209523D02*
X185488485Y-116171428D01*
X185488485Y-116171428D02*
X185564676Y-116133333D01*
X185564676Y-116133333D02*
X185640866Y-116133333D01*
X185640866Y-116133333D02*
X185755152Y-116171428D01*
X185755152Y-116171428D02*
X186212295Y-116628571D01*
X186212295Y-116628571D02*
X186212295Y-116133333D01*
X179985714Y-86606104D02*
X179947618Y-86644200D01*
X179947618Y-86644200D02*
X179833333Y-86682295D01*
X179833333Y-86682295D02*
X179757142Y-86682295D01*
X179757142Y-86682295D02*
X179642856Y-86644200D01*
X179642856Y-86644200D02*
X179566666Y-86568009D01*
X179566666Y-86568009D02*
X179528571Y-86491819D01*
X179528571Y-86491819D02*
X179490475Y-86339438D01*
X179490475Y-86339438D02*
X179490475Y-86225152D01*
X179490475Y-86225152D02*
X179528571Y-86072771D01*
X179528571Y-86072771D02*
X179566666Y-85996580D01*
X179566666Y-85996580D02*
X179642856Y-85920390D01*
X179642856Y-85920390D02*
X179757142Y-85882295D01*
X179757142Y-85882295D02*
X179833333Y-85882295D01*
X179833333Y-85882295D02*
X179947618Y-85920390D01*
X179947618Y-85920390D02*
X179985714Y-85958485D01*
X180747618Y-86682295D02*
X180290475Y-86682295D01*
X180519047Y-86682295D02*
X180519047Y-85882295D01*
X180519047Y-85882295D02*
X180442856Y-85996580D01*
X180442856Y-85996580D02*
X180366666Y-86072771D01*
X180366666Y-86072771D02*
X180290475Y-86110866D01*
X181052380Y-85958485D02*
X181090476Y-85920390D01*
X181090476Y-85920390D02*
X181166666Y-85882295D01*
X181166666Y-85882295D02*
X181357142Y-85882295D01*
X181357142Y-85882295D02*
X181433333Y-85920390D01*
X181433333Y-85920390D02*
X181471428Y-85958485D01*
X181471428Y-85958485D02*
X181509523Y-86034676D01*
X181509523Y-86034676D02*
X181509523Y-86110866D01*
X181509523Y-86110866D02*
X181471428Y-86225152D01*
X181471428Y-86225152D02*
X181014285Y-86682295D01*
X181014285Y-86682295D02*
X181509523Y-86682295D01*
X190106104Y-110133332D02*
X190144200Y-110171428D01*
X190144200Y-110171428D02*
X190182295Y-110285713D01*
X190182295Y-110285713D02*
X190182295Y-110361904D01*
X190182295Y-110361904D02*
X190144200Y-110476190D01*
X190144200Y-110476190D02*
X190068009Y-110552380D01*
X190068009Y-110552380D02*
X189991819Y-110590475D01*
X189991819Y-110590475D02*
X189839438Y-110628571D01*
X189839438Y-110628571D02*
X189725152Y-110628571D01*
X189725152Y-110628571D02*
X189572771Y-110590475D01*
X189572771Y-110590475D02*
X189496580Y-110552380D01*
X189496580Y-110552380D02*
X189420390Y-110476190D01*
X189420390Y-110476190D02*
X189382295Y-110361904D01*
X189382295Y-110361904D02*
X189382295Y-110285713D01*
X189382295Y-110285713D02*
X189420390Y-110171428D01*
X189420390Y-110171428D02*
X189458485Y-110133332D01*
X190182295Y-109752380D02*
X190182295Y-109599999D01*
X190182295Y-109599999D02*
X190144200Y-109523809D01*
X190144200Y-109523809D02*
X190106104Y-109485713D01*
X190106104Y-109485713D02*
X189991819Y-109409523D01*
X189991819Y-109409523D02*
X189839438Y-109371428D01*
X189839438Y-109371428D02*
X189534676Y-109371428D01*
X189534676Y-109371428D02*
X189458485Y-109409523D01*
X189458485Y-109409523D02*
X189420390Y-109447618D01*
X189420390Y-109447618D02*
X189382295Y-109523809D01*
X189382295Y-109523809D02*
X189382295Y-109676190D01*
X189382295Y-109676190D02*
X189420390Y-109752380D01*
X189420390Y-109752380D02*
X189458485Y-109790475D01*
X189458485Y-109790475D02*
X189534676Y-109828571D01*
X189534676Y-109828571D02*
X189725152Y-109828571D01*
X189725152Y-109828571D02*
X189801342Y-109790475D01*
X189801342Y-109790475D02*
X189839438Y-109752380D01*
X189839438Y-109752380D02*
X189877533Y-109676190D01*
X189877533Y-109676190D02*
X189877533Y-109523809D01*
X189877533Y-109523809D02*
X189839438Y-109447618D01*
X189839438Y-109447618D02*
X189801342Y-109409523D01*
X189801342Y-109409523D02*
X189725152Y-109371428D01*
X172890476Y-107562295D02*
X173347619Y-107562295D01*
X173119047Y-108362295D02*
X173119047Y-107562295D01*
X174033333Y-108362295D02*
X173576190Y-108362295D01*
X173804762Y-108362295D02*
X173804762Y-107562295D01*
X173804762Y-107562295D02*
X173728571Y-107676580D01*
X173728571Y-107676580D02*
X173652381Y-107752771D01*
X173652381Y-107752771D02*
X173576190Y-107790866D01*
X132212295Y-114838094D02*
X131831342Y-115104761D01*
X132212295Y-115295237D02*
X131412295Y-115295237D01*
X131412295Y-115295237D02*
X131412295Y-114990475D01*
X131412295Y-114990475D02*
X131450390Y-114914285D01*
X131450390Y-114914285D02*
X131488485Y-114876190D01*
X131488485Y-114876190D02*
X131564676Y-114838094D01*
X131564676Y-114838094D02*
X131678961Y-114838094D01*
X131678961Y-114838094D02*
X131755152Y-114876190D01*
X131755152Y-114876190D02*
X131793247Y-114914285D01*
X131793247Y-114914285D02*
X131831342Y-114990475D01*
X131831342Y-114990475D02*
X131831342Y-115295237D01*
X132288485Y-114685714D02*
X132288485Y-114076190D01*
X131793247Y-113885713D02*
X131793247Y-113619047D01*
X132212295Y-113504761D02*
X132212295Y-113885713D01*
X132212295Y-113885713D02*
X131412295Y-113885713D01*
X131412295Y-113885713D02*
X131412295Y-113504761D01*
X132212295Y-113161903D02*
X131412295Y-113161903D01*
X131412295Y-113161903D02*
X132212295Y-112704760D01*
X132212295Y-112704760D02*
X131412295Y-112704760D01*
X155433332Y-125944200D02*
X155547618Y-125982295D01*
X155547618Y-125982295D02*
X155738094Y-125982295D01*
X155738094Y-125982295D02*
X155814285Y-125944200D01*
X155814285Y-125944200D02*
X155852380Y-125906104D01*
X155852380Y-125906104D02*
X155890475Y-125829914D01*
X155890475Y-125829914D02*
X155890475Y-125753723D01*
X155890475Y-125753723D02*
X155852380Y-125677533D01*
X155852380Y-125677533D02*
X155814285Y-125639438D01*
X155814285Y-125639438D02*
X155738094Y-125601342D01*
X155738094Y-125601342D02*
X155585713Y-125563247D01*
X155585713Y-125563247D02*
X155509523Y-125525152D01*
X155509523Y-125525152D02*
X155471428Y-125487057D01*
X155471428Y-125487057D02*
X155433332Y-125410866D01*
X155433332Y-125410866D02*
X155433332Y-125334676D01*
X155433332Y-125334676D02*
X155471428Y-125258485D01*
X155471428Y-125258485D02*
X155509523Y-125220390D01*
X155509523Y-125220390D02*
X155585713Y-125182295D01*
X155585713Y-125182295D02*
X155776190Y-125182295D01*
X155776190Y-125182295D02*
X155890475Y-125220390D01*
X156157142Y-125182295D02*
X156347618Y-125982295D01*
X156347618Y-125982295D02*
X156499999Y-125410866D01*
X156499999Y-125410866D02*
X156652380Y-125982295D01*
X156652380Y-125982295D02*
X156842857Y-125182295D01*
X157109523Y-125258485D02*
X157147619Y-125220390D01*
X157147619Y-125220390D02*
X157223809Y-125182295D01*
X157223809Y-125182295D02*
X157414285Y-125182295D01*
X157414285Y-125182295D02*
X157490476Y-125220390D01*
X157490476Y-125220390D02*
X157528571Y-125258485D01*
X157528571Y-125258485D02*
X157566666Y-125334676D01*
X157566666Y-125334676D02*
X157566666Y-125410866D01*
X157566666Y-125410866D02*
X157528571Y-125525152D01*
X157528571Y-125525152D02*
X157071428Y-125982295D01*
X157071428Y-125982295D02*
X157566666Y-125982295D01*
X168106104Y-116133332D02*
X168144200Y-116171428D01*
X168144200Y-116171428D02*
X168182295Y-116285713D01*
X168182295Y-116285713D02*
X168182295Y-116361904D01*
X168182295Y-116361904D02*
X168144200Y-116476190D01*
X168144200Y-116476190D02*
X168068009Y-116552380D01*
X168068009Y-116552380D02*
X167991819Y-116590475D01*
X167991819Y-116590475D02*
X167839438Y-116628571D01*
X167839438Y-116628571D02*
X167725152Y-116628571D01*
X167725152Y-116628571D02*
X167572771Y-116590475D01*
X167572771Y-116590475D02*
X167496580Y-116552380D01*
X167496580Y-116552380D02*
X167420390Y-116476190D01*
X167420390Y-116476190D02*
X167382295Y-116361904D01*
X167382295Y-116361904D02*
X167382295Y-116285713D01*
X167382295Y-116285713D02*
X167420390Y-116171428D01*
X167420390Y-116171428D02*
X167458485Y-116133332D01*
X167382295Y-115866666D02*
X167382295Y-115333332D01*
X167382295Y-115333332D02*
X168182295Y-115676190D01*
X157233333Y-74182295D02*
X157233333Y-74753723D01*
X157233333Y-74753723D02*
X157195238Y-74868009D01*
X157195238Y-74868009D02*
X157119047Y-74944200D01*
X157119047Y-74944200D02*
X157004762Y-74982295D01*
X157004762Y-74982295D02*
X156928571Y-74982295D01*
X157957143Y-74182295D02*
X157804762Y-74182295D01*
X157804762Y-74182295D02*
X157728571Y-74220390D01*
X157728571Y-74220390D02*
X157690476Y-74258485D01*
X157690476Y-74258485D02*
X157614286Y-74372771D01*
X157614286Y-74372771D02*
X157576190Y-74525152D01*
X157576190Y-74525152D02*
X157576190Y-74829914D01*
X157576190Y-74829914D02*
X157614286Y-74906104D01*
X157614286Y-74906104D02*
X157652381Y-74944200D01*
X157652381Y-74944200D02*
X157728571Y-74982295D01*
X157728571Y-74982295D02*
X157880952Y-74982295D01*
X157880952Y-74982295D02*
X157957143Y-74944200D01*
X157957143Y-74944200D02*
X157995238Y-74906104D01*
X157995238Y-74906104D02*
X158033333Y-74829914D01*
X158033333Y-74829914D02*
X158033333Y-74639438D01*
X158033333Y-74639438D02*
X157995238Y-74563247D01*
X157995238Y-74563247D02*
X157957143Y-74525152D01*
X157957143Y-74525152D02*
X157880952Y-74487057D01*
X157880952Y-74487057D02*
X157728571Y-74487057D01*
X157728571Y-74487057D02*
X157652381Y-74525152D01*
X157652381Y-74525152D02*
X157614286Y-74563247D01*
X157614286Y-74563247D02*
X157576190Y-74639438D01*
X187985714Y-86606104D02*
X187947618Y-86644200D01*
X187947618Y-86644200D02*
X187833333Y-86682295D01*
X187833333Y-86682295D02*
X187757142Y-86682295D01*
X187757142Y-86682295D02*
X187642856Y-86644200D01*
X187642856Y-86644200D02*
X187566666Y-86568009D01*
X187566666Y-86568009D02*
X187528571Y-86491819D01*
X187528571Y-86491819D02*
X187490475Y-86339438D01*
X187490475Y-86339438D02*
X187490475Y-86225152D01*
X187490475Y-86225152D02*
X187528571Y-86072771D01*
X187528571Y-86072771D02*
X187566666Y-85996580D01*
X187566666Y-85996580D02*
X187642856Y-85920390D01*
X187642856Y-85920390D02*
X187757142Y-85882295D01*
X187757142Y-85882295D02*
X187833333Y-85882295D01*
X187833333Y-85882295D02*
X187947618Y-85920390D01*
X187947618Y-85920390D02*
X187985714Y-85958485D01*
X188747618Y-86682295D02*
X188290475Y-86682295D01*
X188519047Y-86682295D02*
X188519047Y-85882295D01*
X188519047Y-85882295D02*
X188442856Y-85996580D01*
X188442856Y-85996580D02*
X188366666Y-86072771D01*
X188366666Y-86072771D02*
X188290475Y-86110866D01*
X189433333Y-86148961D02*
X189433333Y-86682295D01*
X189242857Y-85844200D02*
X189052380Y-86415628D01*
X189052380Y-86415628D02*
X189547619Y-86415628D01*
X138719048Y-131712295D02*
X138452381Y-131331342D01*
X138261905Y-131712295D02*
X138261905Y-130912295D01*
X138261905Y-130912295D02*
X138566667Y-130912295D01*
X138566667Y-130912295D02*
X138642857Y-130950390D01*
X138642857Y-130950390D02*
X138680952Y-130988485D01*
X138680952Y-130988485D02*
X138719048Y-131064676D01*
X138719048Y-131064676D02*
X138719048Y-131178961D01*
X138719048Y-131178961D02*
X138680952Y-131255152D01*
X138680952Y-131255152D02*
X138642857Y-131293247D01*
X138642857Y-131293247D02*
X138566667Y-131331342D01*
X138566667Y-131331342D02*
X138261905Y-131331342D01*
X138871429Y-131788485D02*
X139480952Y-131788485D01*
X139633333Y-131674200D02*
X139747619Y-131712295D01*
X139747619Y-131712295D02*
X139938095Y-131712295D01*
X139938095Y-131712295D02*
X140014286Y-131674200D01*
X140014286Y-131674200D02*
X140052381Y-131636104D01*
X140052381Y-131636104D02*
X140090476Y-131559914D01*
X140090476Y-131559914D02*
X140090476Y-131483723D01*
X140090476Y-131483723D02*
X140052381Y-131407533D01*
X140052381Y-131407533D02*
X140014286Y-131369438D01*
X140014286Y-131369438D02*
X139938095Y-131331342D01*
X139938095Y-131331342D02*
X139785714Y-131293247D01*
X139785714Y-131293247D02*
X139709524Y-131255152D01*
X139709524Y-131255152D02*
X139671429Y-131217057D01*
X139671429Y-131217057D02*
X139633333Y-131140866D01*
X139633333Y-131140866D02*
X139633333Y-131064676D01*
X139633333Y-131064676D02*
X139671429Y-130988485D01*
X139671429Y-130988485D02*
X139709524Y-130950390D01*
X139709524Y-130950390D02*
X139785714Y-130912295D01*
X139785714Y-130912295D02*
X139976191Y-130912295D01*
X139976191Y-130912295D02*
X140090476Y-130950390D01*
X140395238Y-131483723D02*
X140776191Y-131483723D01*
X140319048Y-131712295D02*
X140585715Y-130912295D01*
X140585715Y-130912295D02*
X140852381Y-131712295D01*
X129804761Y-125182295D02*
X129804761Y-125753723D01*
X129804761Y-125753723D02*
X129766666Y-125868009D01*
X129766666Y-125868009D02*
X129690475Y-125944200D01*
X129690475Y-125944200D02*
X129576190Y-125982295D01*
X129576190Y-125982295D02*
X129499999Y-125982295D01*
X129995238Y-126058485D02*
X130604761Y-126058485D01*
X130947619Y-125182295D02*
X131100000Y-125182295D01*
X131100000Y-125182295D02*
X131176190Y-125220390D01*
X131176190Y-125220390D02*
X131252381Y-125296580D01*
X131252381Y-125296580D02*
X131290476Y-125448961D01*
X131290476Y-125448961D02*
X131290476Y-125715628D01*
X131290476Y-125715628D02*
X131252381Y-125868009D01*
X131252381Y-125868009D02*
X131176190Y-125944200D01*
X131176190Y-125944200D02*
X131100000Y-125982295D01*
X131100000Y-125982295D02*
X130947619Y-125982295D01*
X130947619Y-125982295D02*
X130871428Y-125944200D01*
X130871428Y-125944200D02*
X130795238Y-125868009D01*
X130795238Y-125868009D02*
X130757142Y-125715628D01*
X130757142Y-125715628D02*
X130757142Y-125448961D01*
X130757142Y-125448961D02*
X130795238Y-125296580D01*
X130795238Y-125296580D02*
X130871428Y-125220390D01*
X130871428Y-125220390D02*
X130947619Y-125182295D01*
X132014285Y-125982295D02*
X131633333Y-125982295D01*
X131633333Y-125982295D02*
X131633333Y-125182295D01*
X132280952Y-125563247D02*
X132547618Y-125563247D01*
X132661904Y-125982295D02*
X132280952Y-125982295D01*
X132280952Y-125982295D02*
X132280952Y-125182295D01*
X132280952Y-125182295D02*
X132661904Y-125182295D01*
X133004762Y-125982295D02*
X133004762Y-125182295D01*
X133004762Y-125182295D02*
X133195238Y-125182295D01*
X133195238Y-125182295D02*
X133309524Y-125220390D01*
X133309524Y-125220390D02*
X133385714Y-125296580D01*
X133385714Y-125296580D02*
X133423809Y-125372771D01*
X133423809Y-125372771D02*
X133461905Y-125525152D01*
X133461905Y-125525152D02*
X133461905Y-125639438D01*
X133461905Y-125639438D02*
X133423809Y-125791819D01*
X133423809Y-125791819D02*
X133385714Y-125868009D01*
X133385714Y-125868009D02*
X133309524Y-125944200D01*
X133309524Y-125944200D02*
X133195238Y-125982295D01*
X133195238Y-125982295D02*
X133004762Y-125982295D01*
X149366667Y-90586104D02*
X149328571Y-90624200D01*
X149328571Y-90624200D02*
X149214286Y-90662295D01*
X149214286Y-90662295D02*
X149138095Y-90662295D01*
X149138095Y-90662295D02*
X149023809Y-90624200D01*
X149023809Y-90624200D02*
X148947619Y-90548009D01*
X148947619Y-90548009D02*
X148909524Y-90471819D01*
X148909524Y-90471819D02*
X148871428Y-90319438D01*
X148871428Y-90319438D02*
X148871428Y-90205152D01*
X148871428Y-90205152D02*
X148909524Y-90052771D01*
X148909524Y-90052771D02*
X148947619Y-89976580D01*
X148947619Y-89976580D02*
X149023809Y-89900390D01*
X149023809Y-89900390D02*
X149138095Y-89862295D01*
X149138095Y-89862295D02*
X149214286Y-89862295D01*
X149214286Y-89862295D02*
X149328571Y-89900390D01*
X149328571Y-89900390D02*
X149366667Y-89938485D01*
X149671428Y-89938485D02*
X149709524Y-89900390D01*
X149709524Y-89900390D02*
X149785714Y-89862295D01*
X149785714Y-89862295D02*
X149976190Y-89862295D01*
X149976190Y-89862295D02*
X150052381Y-89900390D01*
X150052381Y-89900390D02*
X150090476Y-89938485D01*
X150090476Y-89938485D02*
X150128571Y-90014676D01*
X150128571Y-90014676D02*
X150128571Y-90090866D01*
X150128571Y-90090866D02*
X150090476Y-90205152D01*
X150090476Y-90205152D02*
X149633333Y-90662295D01*
X149633333Y-90662295D02*
X150128571Y-90662295D01*
X129233333Y-74182295D02*
X129233333Y-74753723D01*
X129233333Y-74753723D02*
X129195238Y-74868009D01*
X129195238Y-74868009D02*
X129119047Y-74944200D01*
X129119047Y-74944200D02*
X129004762Y-74982295D01*
X129004762Y-74982295D02*
X128928571Y-74982295D01*
X129538095Y-74182295D02*
X130033333Y-74182295D01*
X130033333Y-74182295D02*
X129766667Y-74487057D01*
X129766667Y-74487057D02*
X129880952Y-74487057D01*
X129880952Y-74487057D02*
X129957143Y-74525152D01*
X129957143Y-74525152D02*
X129995238Y-74563247D01*
X129995238Y-74563247D02*
X130033333Y-74639438D01*
X130033333Y-74639438D02*
X130033333Y-74829914D01*
X130033333Y-74829914D02*
X129995238Y-74906104D01*
X129995238Y-74906104D02*
X129957143Y-74944200D01*
X129957143Y-74944200D02*
X129880952Y-74982295D01*
X129880952Y-74982295D02*
X129652381Y-74982295D01*
X129652381Y-74982295D02*
X129576190Y-74944200D01*
X129576190Y-74944200D02*
X129538095Y-74906104D01*
X147233333Y-74182295D02*
X147233333Y-74753723D01*
X147233333Y-74753723D02*
X147195238Y-74868009D01*
X147195238Y-74868009D02*
X147119047Y-74944200D01*
X147119047Y-74944200D02*
X147004762Y-74982295D01*
X147004762Y-74982295D02*
X146928571Y-74982295D01*
X148033333Y-74982295D02*
X147576190Y-74982295D01*
X147804762Y-74982295D02*
X147804762Y-74182295D01*
X147804762Y-74182295D02*
X147728571Y-74296580D01*
X147728571Y-74296580D02*
X147652381Y-74372771D01*
X147652381Y-74372771D02*
X147576190Y-74410866D01*
X186212295Y-122133332D02*
X185831342Y-122399999D01*
X186212295Y-122590475D02*
X185412295Y-122590475D01*
X185412295Y-122590475D02*
X185412295Y-122285713D01*
X185412295Y-122285713D02*
X185450390Y-122209523D01*
X185450390Y-122209523D02*
X185488485Y-122171428D01*
X185488485Y-122171428D02*
X185564676Y-122133332D01*
X185564676Y-122133332D02*
X185678961Y-122133332D01*
X185678961Y-122133332D02*
X185755152Y-122171428D01*
X185755152Y-122171428D02*
X185793247Y-122209523D01*
X185793247Y-122209523D02*
X185831342Y-122285713D01*
X185831342Y-122285713D02*
X185831342Y-122590475D01*
X185755152Y-121676190D02*
X185717057Y-121752380D01*
X185717057Y-121752380D02*
X185678961Y-121790475D01*
X185678961Y-121790475D02*
X185602771Y-121828571D01*
X185602771Y-121828571D02*
X185564676Y-121828571D01*
X185564676Y-121828571D02*
X185488485Y-121790475D01*
X185488485Y-121790475D02*
X185450390Y-121752380D01*
X185450390Y-121752380D02*
X185412295Y-121676190D01*
X185412295Y-121676190D02*
X185412295Y-121523809D01*
X185412295Y-121523809D02*
X185450390Y-121447618D01*
X185450390Y-121447618D02*
X185488485Y-121409523D01*
X185488485Y-121409523D02*
X185564676Y-121371428D01*
X185564676Y-121371428D02*
X185602771Y-121371428D01*
X185602771Y-121371428D02*
X185678961Y-121409523D01*
X185678961Y-121409523D02*
X185717057Y-121447618D01*
X185717057Y-121447618D02*
X185755152Y-121523809D01*
X185755152Y-121523809D02*
X185755152Y-121676190D01*
X185755152Y-121676190D02*
X185793247Y-121752380D01*
X185793247Y-121752380D02*
X185831342Y-121790475D01*
X185831342Y-121790475D02*
X185907533Y-121828571D01*
X185907533Y-121828571D02*
X186059914Y-121828571D01*
X186059914Y-121828571D02*
X186136104Y-121790475D01*
X186136104Y-121790475D02*
X186174200Y-121752380D01*
X186174200Y-121752380D02*
X186212295Y-121676190D01*
X186212295Y-121676190D02*
X186212295Y-121523809D01*
X186212295Y-121523809D02*
X186174200Y-121447618D01*
X186174200Y-121447618D02*
X186136104Y-121409523D01*
X186136104Y-121409523D02*
X186059914Y-121371428D01*
X186059914Y-121371428D02*
X185907533Y-121371428D01*
X185907533Y-121371428D02*
X185831342Y-121409523D01*
X185831342Y-121409523D02*
X185793247Y-121447618D01*
X185793247Y-121447618D02*
X185755152Y-121523809D01*
X155557143Y-131712295D02*
X155290476Y-131331342D01*
X155100000Y-131712295D02*
X155100000Y-130912295D01*
X155100000Y-130912295D02*
X155404762Y-130912295D01*
X155404762Y-130912295D02*
X155480952Y-130950390D01*
X155480952Y-130950390D02*
X155519047Y-130988485D01*
X155519047Y-130988485D02*
X155557143Y-131064676D01*
X155557143Y-131064676D02*
X155557143Y-131178961D01*
X155557143Y-131178961D02*
X155519047Y-131255152D01*
X155519047Y-131255152D02*
X155480952Y-131293247D01*
X155480952Y-131293247D02*
X155404762Y-131331342D01*
X155404762Y-131331342D02*
X155100000Y-131331342D01*
X155709524Y-131788485D02*
X156319047Y-131788485D01*
X156471428Y-131674200D02*
X156585714Y-131712295D01*
X156585714Y-131712295D02*
X156776190Y-131712295D01*
X156776190Y-131712295D02*
X156852381Y-131674200D01*
X156852381Y-131674200D02*
X156890476Y-131636104D01*
X156890476Y-131636104D02*
X156928571Y-131559914D01*
X156928571Y-131559914D02*
X156928571Y-131483723D01*
X156928571Y-131483723D02*
X156890476Y-131407533D01*
X156890476Y-131407533D02*
X156852381Y-131369438D01*
X156852381Y-131369438D02*
X156776190Y-131331342D01*
X156776190Y-131331342D02*
X156623809Y-131293247D01*
X156623809Y-131293247D02*
X156547619Y-131255152D01*
X156547619Y-131255152D02*
X156509524Y-131217057D01*
X156509524Y-131217057D02*
X156471428Y-131140866D01*
X156471428Y-131140866D02*
X156471428Y-131064676D01*
X156471428Y-131064676D02*
X156509524Y-130988485D01*
X156509524Y-130988485D02*
X156547619Y-130950390D01*
X156547619Y-130950390D02*
X156623809Y-130912295D01*
X156623809Y-130912295D02*
X156814286Y-130912295D01*
X156814286Y-130912295D02*
X156928571Y-130950390D01*
X157538095Y-131293247D02*
X157652381Y-131331342D01*
X157652381Y-131331342D02*
X157690476Y-131369438D01*
X157690476Y-131369438D02*
X157728572Y-131445628D01*
X157728572Y-131445628D02*
X157728572Y-131559914D01*
X157728572Y-131559914D02*
X157690476Y-131636104D01*
X157690476Y-131636104D02*
X157652381Y-131674200D01*
X157652381Y-131674200D02*
X157576191Y-131712295D01*
X157576191Y-131712295D02*
X157271429Y-131712295D01*
X157271429Y-131712295D02*
X157271429Y-130912295D01*
X157271429Y-130912295D02*
X157538095Y-130912295D01*
X157538095Y-130912295D02*
X157614286Y-130950390D01*
X157614286Y-130950390D02*
X157652381Y-130988485D01*
X157652381Y-130988485D02*
X157690476Y-131064676D01*
X157690476Y-131064676D02*
X157690476Y-131140866D01*
X157690476Y-131140866D02*
X157652381Y-131217057D01*
X157652381Y-131217057D02*
X157614286Y-131255152D01*
X157614286Y-131255152D02*
X157538095Y-131293247D01*
X157538095Y-131293247D02*
X157271429Y-131293247D01*
X157880953Y-131788485D02*
X158490476Y-131788485D01*
X158680953Y-131712295D02*
X158680953Y-130912295D01*
X158680953Y-130912295D02*
X158985715Y-130912295D01*
X158985715Y-130912295D02*
X159061905Y-130950390D01*
X159061905Y-130950390D02*
X159100000Y-130988485D01*
X159100000Y-130988485D02*
X159138096Y-131064676D01*
X159138096Y-131064676D02*
X159138096Y-131178961D01*
X159138096Y-131178961D02*
X159100000Y-131255152D01*
X159100000Y-131255152D02*
X159061905Y-131293247D01*
X159061905Y-131293247D02*
X158985715Y-131331342D01*
X158985715Y-131331342D02*
X158680953Y-131331342D01*
X159480953Y-131712295D02*
X159480953Y-130912295D01*
X159480953Y-130912295D02*
X159671429Y-130912295D01*
X159671429Y-130912295D02*
X159785715Y-130950390D01*
X159785715Y-130950390D02*
X159861905Y-131026580D01*
X159861905Y-131026580D02*
X159900000Y-131102771D01*
X159900000Y-131102771D02*
X159938096Y-131255152D01*
X159938096Y-131255152D02*
X159938096Y-131369438D01*
X159938096Y-131369438D02*
X159900000Y-131521819D01*
X159900000Y-131521819D02*
X159861905Y-131598009D01*
X159861905Y-131598009D02*
X159785715Y-131674200D01*
X159785715Y-131674200D02*
X159671429Y-131712295D01*
X159671429Y-131712295D02*
X159480953Y-131712295D01*
X186212295Y-110133332D02*
X185831342Y-110399999D01*
X186212295Y-110590475D02*
X185412295Y-110590475D01*
X185412295Y-110590475D02*
X185412295Y-110285713D01*
X185412295Y-110285713D02*
X185450390Y-110209523D01*
X185450390Y-110209523D02*
X185488485Y-110171428D01*
X185488485Y-110171428D02*
X185564676Y-110133332D01*
X185564676Y-110133332D02*
X185678961Y-110133332D01*
X185678961Y-110133332D02*
X185755152Y-110171428D01*
X185755152Y-110171428D02*
X185793247Y-110209523D01*
X185793247Y-110209523D02*
X185831342Y-110285713D01*
X185831342Y-110285713D02*
X185831342Y-110590475D01*
X185678961Y-109447618D02*
X186212295Y-109447618D01*
X185374200Y-109638094D02*
X185945628Y-109828571D01*
X185945628Y-109828571D02*
X185945628Y-109333332D01*
X150661905Y-131712295D02*
X150395238Y-131331342D01*
X150204762Y-131712295D02*
X150204762Y-130912295D01*
X150204762Y-130912295D02*
X150509524Y-130912295D01*
X150509524Y-130912295D02*
X150585714Y-130950390D01*
X150585714Y-130950390D02*
X150623809Y-130988485D01*
X150623809Y-130988485D02*
X150661905Y-131064676D01*
X150661905Y-131064676D02*
X150661905Y-131178961D01*
X150661905Y-131178961D02*
X150623809Y-131255152D01*
X150623809Y-131255152D02*
X150585714Y-131293247D01*
X150585714Y-131293247D02*
X150509524Y-131331342D01*
X150509524Y-131331342D02*
X150204762Y-131331342D01*
X150814286Y-131788485D02*
X151423809Y-131788485D01*
X151576190Y-131674200D02*
X151690476Y-131712295D01*
X151690476Y-131712295D02*
X151880952Y-131712295D01*
X151880952Y-131712295D02*
X151957143Y-131674200D01*
X151957143Y-131674200D02*
X151995238Y-131636104D01*
X151995238Y-131636104D02*
X152033333Y-131559914D01*
X152033333Y-131559914D02*
X152033333Y-131483723D01*
X152033333Y-131483723D02*
X151995238Y-131407533D01*
X151995238Y-131407533D02*
X151957143Y-131369438D01*
X151957143Y-131369438D02*
X151880952Y-131331342D01*
X151880952Y-131331342D02*
X151728571Y-131293247D01*
X151728571Y-131293247D02*
X151652381Y-131255152D01*
X151652381Y-131255152D02*
X151614286Y-131217057D01*
X151614286Y-131217057D02*
X151576190Y-131140866D01*
X151576190Y-131140866D02*
X151576190Y-131064676D01*
X151576190Y-131064676D02*
X151614286Y-130988485D01*
X151614286Y-130988485D02*
X151652381Y-130950390D01*
X151652381Y-130950390D02*
X151728571Y-130912295D01*
X151728571Y-130912295D02*
X151919048Y-130912295D01*
X151919048Y-130912295D02*
X152033333Y-130950390D01*
X152642857Y-131293247D02*
X152757143Y-131331342D01*
X152757143Y-131331342D02*
X152795238Y-131369438D01*
X152795238Y-131369438D02*
X152833334Y-131445628D01*
X152833334Y-131445628D02*
X152833334Y-131559914D01*
X152833334Y-131559914D02*
X152795238Y-131636104D01*
X152795238Y-131636104D02*
X152757143Y-131674200D01*
X152757143Y-131674200D02*
X152680953Y-131712295D01*
X152680953Y-131712295D02*
X152376191Y-131712295D01*
X152376191Y-131712295D02*
X152376191Y-130912295D01*
X152376191Y-130912295D02*
X152642857Y-130912295D01*
X152642857Y-130912295D02*
X152719048Y-130950390D01*
X152719048Y-130950390D02*
X152757143Y-130988485D01*
X152757143Y-130988485D02*
X152795238Y-131064676D01*
X152795238Y-131064676D02*
X152795238Y-131140866D01*
X152795238Y-131140866D02*
X152757143Y-131217057D01*
X152757143Y-131217057D02*
X152719048Y-131255152D01*
X152719048Y-131255152D02*
X152642857Y-131293247D01*
X152642857Y-131293247D02*
X152376191Y-131293247D01*
X132106104Y-120838094D02*
X132144200Y-120876190D01*
X132144200Y-120876190D02*
X132182295Y-120990475D01*
X132182295Y-120990475D02*
X132182295Y-121066666D01*
X132182295Y-121066666D02*
X132144200Y-121180952D01*
X132144200Y-121180952D02*
X132068009Y-121257142D01*
X132068009Y-121257142D02*
X131991819Y-121295237D01*
X131991819Y-121295237D02*
X131839438Y-121333333D01*
X131839438Y-121333333D02*
X131725152Y-121333333D01*
X131725152Y-121333333D02*
X131572771Y-121295237D01*
X131572771Y-121295237D02*
X131496580Y-121257142D01*
X131496580Y-121257142D02*
X131420390Y-121180952D01*
X131420390Y-121180952D02*
X131382295Y-121066666D01*
X131382295Y-121066666D02*
X131382295Y-120990475D01*
X131382295Y-120990475D02*
X131420390Y-120876190D01*
X131420390Y-120876190D02*
X131458485Y-120838094D01*
X132258485Y-120685714D02*
X132258485Y-120076190D01*
X131763247Y-119885713D02*
X131763247Y-119619047D01*
X132182295Y-119504761D02*
X132182295Y-119885713D01*
X132182295Y-119885713D02*
X131382295Y-119885713D01*
X131382295Y-119885713D02*
X131382295Y-119504761D01*
X132182295Y-119161903D02*
X131382295Y-119161903D01*
X131382295Y-119161903D02*
X132182295Y-118704760D01*
X132182295Y-118704760D02*
X131382295Y-118704760D01*
X182909524Y-104512295D02*
X182909524Y-103712295D01*
X182909524Y-103712295D02*
X183100000Y-103712295D01*
X183100000Y-103712295D02*
X183214286Y-103750390D01*
X183214286Y-103750390D02*
X183290476Y-103826580D01*
X183290476Y-103826580D02*
X183328571Y-103902771D01*
X183328571Y-103902771D02*
X183366667Y-104055152D01*
X183366667Y-104055152D02*
X183366667Y-104169438D01*
X183366667Y-104169438D02*
X183328571Y-104321819D01*
X183328571Y-104321819D02*
X183290476Y-104398009D01*
X183290476Y-104398009D02*
X183214286Y-104474200D01*
X183214286Y-104474200D02*
X183100000Y-104512295D01*
X183100000Y-104512295D02*
X182909524Y-104512295D01*
X183671428Y-103788485D02*
X183709524Y-103750390D01*
X183709524Y-103750390D02*
X183785714Y-103712295D01*
X183785714Y-103712295D02*
X183976190Y-103712295D01*
X183976190Y-103712295D02*
X184052381Y-103750390D01*
X184052381Y-103750390D02*
X184090476Y-103788485D01*
X184090476Y-103788485D02*
X184128571Y-103864676D01*
X184128571Y-103864676D02*
X184128571Y-103940866D01*
X184128571Y-103940866D02*
X184090476Y-104055152D01*
X184090476Y-104055152D02*
X183633333Y-104512295D01*
X183633333Y-104512295D02*
X184128571Y-104512295D01*
X186212295Y-126780951D02*
X185831342Y-127047618D01*
X186212295Y-127238094D02*
X185412295Y-127238094D01*
X185412295Y-127238094D02*
X185412295Y-126933332D01*
X185412295Y-126933332D02*
X185450390Y-126857142D01*
X185450390Y-126857142D02*
X185488485Y-126819047D01*
X185488485Y-126819047D02*
X185564676Y-126780951D01*
X185564676Y-126780951D02*
X185678961Y-126780951D01*
X185678961Y-126780951D02*
X185755152Y-126819047D01*
X185755152Y-126819047D02*
X185793247Y-126857142D01*
X185793247Y-126857142D02*
X185831342Y-126933332D01*
X185831342Y-126933332D02*
X185831342Y-127238094D01*
X186288485Y-126628571D02*
X186288485Y-126019047D01*
X185412295Y-125942856D02*
X185412295Y-125485713D01*
X186212295Y-125714285D02*
X185412295Y-125714285D01*
X185412295Y-125219046D02*
X186059914Y-125219046D01*
X186059914Y-125219046D02*
X186136104Y-125180951D01*
X186136104Y-125180951D02*
X186174200Y-125142856D01*
X186174200Y-125142856D02*
X186212295Y-125066665D01*
X186212295Y-125066665D02*
X186212295Y-124914284D01*
X186212295Y-124914284D02*
X186174200Y-124838094D01*
X186174200Y-124838094D02*
X186136104Y-124799999D01*
X186136104Y-124799999D02*
X186059914Y-124761903D01*
X186059914Y-124761903D02*
X185412295Y-124761903D01*
X132106104Y-102133332D02*
X132144200Y-102171428D01*
X132144200Y-102171428D02*
X132182295Y-102285713D01*
X132182295Y-102285713D02*
X132182295Y-102361904D01*
X132182295Y-102361904D02*
X132144200Y-102476190D01*
X132144200Y-102476190D02*
X132068009Y-102552380D01*
X132068009Y-102552380D02*
X131991819Y-102590475D01*
X131991819Y-102590475D02*
X131839438Y-102628571D01*
X131839438Y-102628571D02*
X131725152Y-102628571D01*
X131725152Y-102628571D02*
X131572771Y-102590475D01*
X131572771Y-102590475D02*
X131496580Y-102552380D01*
X131496580Y-102552380D02*
X131420390Y-102476190D01*
X131420390Y-102476190D02*
X131382295Y-102361904D01*
X131382295Y-102361904D02*
X131382295Y-102285713D01*
X131382295Y-102285713D02*
X131420390Y-102171428D01*
X131420390Y-102171428D02*
X131458485Y-102133332D01*
X131648961Y-101447618D02*
X132182295Y-101447618D01*
X131344200Y-101638094D02*
X131915628Y-101828571D01*
X131915628Y-101828571D02*
X131915628Y-101333332D01*
X175985714Y-86606104D02*
X175947618Y-86644200D01*
X175947618Y-86644200D02*
X175833333Y-86682295D01*
X175833333Y-86682295D02*
X175757142Y-86682295D01*
X175757142Y-86682295D02*
X175642856Y-86644200D01*
X175642856Y-86644200D02*
X175566666Y-86568009D01*
X175566666Y-86568009D02*
X175528571Y-86491819D01*
X175528571Y-86491819D02*
X175490475Y-86339438D01*
X175490475Y-86339438D02*
X175490475Y-86225152D01*
X175490475Y-86225152D02*
X175528571Y-86072771D01*
X175528571Y-86072771D02*
X175566666Y-85996580D01*
X175566666Y-85996580D02*
X175642856Y-85920390D01*
X175642856Y-85920390D02*
X175757142Y-85882295D01*
X175757142Y-85882295D02*
X175833333Y-85882295D01*
X175833333Y-85882295D02*
X175947618Y-85920390D01*
X175947618Y-85920390D02*
X175985714Y-85958485D01*
X176747618Y-86682295D02*
X176290475Y-86682295D01*
X176519047Y-86682295D02*
X176519047Y-85882295D01*
X176519047Y-85882295D02*
X176442856Y-85996580D01*
X176442856Y-85996580D02*
X176366666Y-86072771D01*
X176366666Y-86072771D02*
X176290475Y-86110866D01*
X177509523Y-86682295D02*
X177052380Y-86682295D01*
X177280952Y-86682295D02*
X177280952Y-85882295D01*
X177280952Y-85882295D02*
X177204761Y-85996580D01*
X177204761Y-85996580D02*
X177128571Y-86072771D01*
X177128571Y-86072771D02*
X177052380Y-86110866D01*
X180890476Y-92662295D02*
X180890476Y-93309914D01*
X180890476Y-93309914D02*
X180928571Y-93386104D01*
X180928571Y-93386104D02*
X180966666Y-93424200D01*
X180966666Y-93424200D02*
X181042857Y-93462295D01*
X181042857Y-93462295D02*
X181195238Y-93462295D01*
X181195238Y-93462295D02*
X181271428Y-93424200D01*
X181271428Y-93424200D02*
X181309523Y-93386104D01*
X181309523Y-93386104D02*
X181347619Y-93309914D01*
X181347619Y-93309914D02*
X181347619Y-92662295D01*
X181652380Y-92662295D02*
X182147618Y-92662295D01*
X182147618Y-92662295D02*
X181880952Y-92967057D01*
X181880952Y-92967057D02*
X181995237Y-92967057D01*
X181995237Y-92967057D02*
X182071428Y-93005152D01*
X182071428Y-93005152D02*
X182109523Y-93043247D01*
X182109523Y-93043247D02*
X182147618Y-93119438D01*
X182147618Y-93119438D02*
X182147618Y-93309914D01*
X182147618Y-93309914D02*
X182109523Y-93386104D01*
X182109523Y-93386104D02*
X182071428Y-93424200D01*
X182071428Y-93424200D02*
X181995237Y-93462295D01*
X181995237Y-93462295D02*
X181766666Y-93462295D01*
X181766666Y-93462295D02*
X181690475Y-93424200D01*
X181690475Y-93424200D02*
X181652380Y-93386104D01*
X182212295Y-122133332D02*
X181831342Y-122399999D01*
X182212295Y-122590475D02*
X181412295Y-122590475D01*
X181412295Y-122590475D02*
X181412295Y-122285713D01*
X181412295Y-122285713D02*
X181450390Y-122209523D01*
X181450390Y-122209523D02*
X181488485Y-122171428D01*
X181488485Y-122171428D02*
X181564676Y-122133332D01*
X181564676Y-122133332D02*
X181678961Y-122133332D01*
X181678961Y-122133332D02*
X181755152Y-122171428D01*
X181755152Y-122171428D02*
X181793247Y-122209523D01*
X181793247Y-122209523D02*
X181831342Y-122285713D01*
X181831342Y-122285713D02*
X181831342Y-122590475D01*
X181412295Y-121866666D02*
X181412295Y-121333332D01*
X181412295Y-121333332D02*
X182212295Y-121676190D01*
X182106104Y-110133332D02*
X182144200Y-110171428D01*
X182144200Y-110171428D02*
X182182295Y-110285713D01*
X182182295Y-110285713D02*
X182182295Y-110361904D01*
X182182295Y-110361904D02*
X182144200Y-110476190D01*
X182144200Y-110476190D02*
X182068009Y-110552380D01*
X182068009Y-110552380D02*
X181991819Y-110590475D01*
X181991819Y-110590475D02*
X181839438Y-110628571D01*
X181839438Y-110628571D02*
X181725152Y-110628571D01*
X181725152Y-110628571D02*
X181572771Y-110590475D01*
X181572771Y-110590475D02*
X181496580Y-110552380D01*
X181496580Y-110552380D02*
X181420390Y-110476190D01*
X181420390Y-110476190D02*
X181382295Y-110361904D01*
X181382295Y-110361904D02*
X181382295Y-110285713D01*
X181382295Y-110285713D02*
X181420390Y-110171428D01*
X181420390Y-110171428D02*
X181458485Y-110133332D01*
X181725152Y-109676190D02*
X181687057Y-109752380D01*
X181687057Y-109752380D02*
X181648961Y-109790475D01*
X181648961Y-109790475D02*
X181572771Y-109828571D01*
X181572771Y-109828571D02*
X181534676Y-109828571D01*
X181534676Y-109828571D02*
X181458485Y-109790475D01*
X181458485Y-109790475D02*
X181420390Y-109752380D01*
X181420390Y-109752380D02*
X181382295Y-109676190D01*
X181382295Y-109676190D02*
X181382295Y-109523809D01*
X181382295Y-109523809D02*
X181420390Y-109447618D01*
X181420390Y-109447618D02*
X181458485Y-109409523D01*
X181458485Y-109409523D02*
X181534676Y-109371428D01*
X181534676Y-109371428D02*
X181572771Y-109371428D01*
X181572771Y-109371428D02*
X181648961Y-109409523D01*
X181648961Y-109409523D02*
X181687057Y-109447618D01*
X181687057Y-109447618D02*
X181725152Y-109523809D01*
X181725152Y-109523809D02*
X181725152Y-109676190D01*
X181725152Y-109676190D02*
X181763247Y-109752380D01*
X181763247Y-109752380D02*
X181801342Y-109790475D01*
X181801342Y-109790475D02*
X181877533Y-109828571D01*
X181877533Y-109828571D02*
X182029914Y-109828571D01*
X182029914Y-109828571D02*
X182106104Y-109790475D01*
X182106104Y-109790475D02*
X182144200Y-109752380D01*
X182144200Y-109752380D02*
X182182295Y-109676190D01*
X182182295Y-109676190D02*
X182182295Y-109523809D01*
X182182295Y-109523809D02*
X182144200Y-109447618D01*
X182144200Y-109447618D02*
X182106104Y-109409523D01*
X182106104Y-109409523D02*
X182029914Y-109371428D01*
X182029914Y-109371428D02*
X181877533Y-109371428D01*
X181877533Y-109371428D02*
X181801342Y-109409523D01*
X181801342Y-109409523D02*
X181763247Y-109447618D01*
X181763247Y-109447618D02*
X181725152Y-109523809D01*
X143909524Y-81362295D02*
X143909524Y-80562295D01*
X143909524Y-80562295D02*
X144100000Y-80562295D01*
X144100000Y-80562295D02*
X144214286Y-80600390D01*
X144214286Y-80600390D02*
X144290476Y-80676580D01*
X144290476Y-80676580D02*
X144328571Y-80752771D01*
X144328571Y-80752771D02*
X144366667Y-80905152D01*
X144366667Y-80905152D02*
X144366667Y-81019438D01*
X144366667Y-81019438D02*
X144328571Y-81171819D01*
X144328571Y-81171819D02*
X144290476Y-81248009D01*
X144290476Y-81248009D02*
X144214286Y-81324200D01*
X144214286Y-81324200D02*
X144100000Y-81362295D01*
X144100000Y-81362295D02*
X143909524Y-81362295D01*
X145128571Y-81362295D02*
X144671428Y-81362295D01*
X144900000Y-81362295D02*
X144900000Y-80562295D01*
X144900000Y-80562295D02*
X144823809Y-80676580D01*
X144823809Y-80676580D02*
X144747619Y-80752771D01*
X144747619Y-80752771D02*
X144671428Y-80790866D01*
X189233333Y-74182295D02*
X189233333Y-74753723D01*
X189233333Y-74753723D02*
X189195238Y-74868009D01*
X189195238Y-74868009D02*
X189119047Y-74944200D01*
X189119047Y-74944200D02*
X189004762Y-74982295D01*
X189004762Y-74982295D02*
X188928571Y-74982295D01*
X189728571Y-74525152D02*
X189652381Y-74487057D01*
X189652381Y-74487057D02*
X189614286Y-74448961D01*
X189614286Y-74448961D02*
X189576190Y-74372771D01*
X189576190Y-74372771D02*
X189576190Y-74334676D01*
X189576190Y-74334676D02*
X189614286Y-74258485D01*
X189614286Y-74258485D02*
X189652381Y-74220390D01*
X189652381Y-74220390D02*
X189728571Y-74182295D01*
X189728571Y-74182295D02*
X189880952Y-74182295D01*
X189880952Y-74182295D02*
X189957143Y-74220390D01*
X189957143Y-74220390D02*
X189995238Y-74258485D01*
X189995238Y-74258485D02*
X190033333Y-74334676D01*
X190033333Y-74334676D02*
X190033333Y-74372771D01*
X190033333Y-74372771D02*
X189995238Y-74448961D01*
X189995238Y-74448961D02*
X189957143Y-74487057D01*
X189957143Y-74487057D02*
X189880952Y-74525152D01*
X189880952Y-74525152D02*
X189728571Y-74525152D01*
X189728571Y-74525152D02*
X189652381Y-74563247D01*
X189652381Y-74563247D02*
X189614286Y-74601342D01*
X189614286Y-74601342D02*
X189576190Y-74677533D01*
X189576190Y-74677533D02*
X189576190Y-74829914D01*
X189576190Y-74829914D02*
X189614286Y-74906104D01*
X189614286Y-74906104D02*
X189652381Y-74944200D01*
X189652381Y-74944200D02*
X189728571Y-74982295D01*
X189728571Y-74982295D02*
X189880952Y-74982295D01*
X189880952Y-74982295D02*
X189957143Y-74944200D01*
X189957143Y-74944200D02*
X189995238Y-74906104D01*
X189995238Y-74906104D02*
X190033333Y-74829914D01*
X190033333Y-74829914D02*
X190033333Y-74677533D01*
X190033333Y-74677533D02*
X189995238Y-74601342D01*
X189995238Y-74601342D02*
X189957143Y-74563247D01*
X189957143Y-74563247D02*
X189880952Y-74525152D01*
X143595238Y-131712295D02*
X143328571Y-131331342D01*
X143138095Y-131712295D02*
X143138095Y-130912295D01*
X143138095Y-130912295D02*
X143442857Y-130912295D01*
X143442857Y-130912295D02*
X143519047Y-130950390D01*
X143519047Y-130950390D02*
X143557142Y-130988485D01*
X143557142Y-130988485D02*
X143595238Y-131064676D01*
X143595238Y-131064676D02*
X143595238Y-131178961D01*
X143595238Y-131178961D02*
X143557142Y-131255152D01*
X143557142Y-131255152D02*
X143519047Y-131293247D01*
X143519047Y-131293247D02*
X143442857Y-131331342D01*
X143442857Y-131331342D02*
X143138095Y-131331342D01*
X143747619Y-131788485D02*
X144357142Y-131788485D01*
X144509523Y-131674200D02*
X144623809Y-131712295D01*
X144623809Y-131712295D02*
X144814285Y-131712295D01*
X144814285Y-131712295D02*
X144890476Y-131674200D01*
X144890476Y-131674200D02*
X144928571Y-131636104D01*
X144928571Y-131636104D02*
X144966666Y-131559914D01*
X144966666Y-131559914D02*
X144966666Y-131483723D01*
X144966666Y-131483723D02*
X144928571Y-131407533D01*
X144928571Y-131407533D02*
X144890476Y-131369438D01*
X144890476Y-131369438D02*
X144814285Y-131331342D01*
X144814285Y-131331342D02*
X144661904Y-131293247D01*
X144661904Y-131293247D02*
X144585714Y-131255152D01*
X144585714Y-131255152D02*
X144547619Y-131217057D01*
X144547619Y-131217057D02*
X144509523Y-131140866D01*
X144509523Y-131140866D02*
X144509523Y-131064676D01*
X144509523Y-131064676D02*
X144547619Y-130988485D01*
X144547619Y-130988485D02*
X144585714Y-130950390D01*
X144585714Y-130950390D02*
X144661904Y-130912295D01*
X144661904Y-130912295D02*
X144852381Y-130912295D01*
X144852381Y-130912295D02*
X144966666Y-130950390D01*
X145271428Y-131483723D02*
X145652381Y-131483723D01*
X145195238Y-131712295D02*
X145461905Y-130912295D01*
X145461905Y-130912295D02*
X145728571Y-131712295D01*
X145804762Y-131788485D02*
X146414285Y-131788485D01*
X146604762Y-131712295D02*
X146604762Y-130912295D01*
X146604762Y-130912295D02*
X146909524Y-130912295D01*
X146909524Y-130912295D02*
X146985714Y-130950390D01*
X146985714Y-130950390D02*
X147023809Y-130988485D01*
X147023809Y-130988485D02*
X147061905Y-131064676D01*
X147061905Y-131064676D02*
X147061905Y-131178961D01*
X147061905Y-131178961D02*
X147023809Y-131255152D01*
X147023809Y-131255152D02*
X146985714Y-131293247D01*
X146985714Y-131293247D02*
X146909524Y-131331342D01*
X146909524Y-131331342D02*
X146604762Y-131331342D01*
X147404762Y-130912295D02*
X147404762Y-131559914D01*
X147404762Y-131559914D02*
X147442857Y-131636104D01*
X147442857Y-131636104D02*
X147480952Y-131674200D01*
X147480952Y-131674200D02*
X147557143Y-131712295D01*
X147557143Y-131712295D02*
X147709524Y-131712295D01*
X147709524Y-131712295D02*
X147785714Y-131674200D01*
X147785714Y-131674200D02*
X147823809Y-131636104D01*
X147823809Y-131636104D02*
X147861905Y-131559914D01*
X147861905Y-131559914D02*
X147861905Y-130912295D01*
X146890476Y-106562295D02*
X146890476Y-107209914D01*
X146890476Y-107209914D02*
X146928571Y-107286104D01*
X146928571Y-107286104D02*
X146966666Y-107324200D01*
X146966666Y-107324200D02*
X147042857Y-107362295D01*
X147042857Y-107362295D02*
X147195238Y-107362295D01*
X147195238Y-107362295D02*
X147271428Y-107324200D01*
X147271428Y-107324200D02*
X147309523Y-107286104D01*
X147309523Y-107286104D02*
X147347619Y-107209914D01*
X147347619Y-107209914D02*
X147347619Y-106562295D01*
X148071428Y-106828961D02*
X148071428Y-107362295D01*
X147880952Y-106524200D02*
X147690475Y-107095628D01*
X147690475Y-107095628D02*
X148185714Y-107095628D01*
X165890476Y-83562295D02*
X165890476Y-84209914D01*
X165890476Y-84209914D02*
X165928571Y-84286104D01*
X165928571Y-84286104D02*
X165966666Y-84324200D01*
X165966666Y-84324200D02*
X166042857Y-84362295D01*
X166042857Y-84362295D02*
X166195238Y-84362295D01*
X166195238Y-84362295D02*
X166271428Y-84324200D01*
X166271428Y-84324200D02*
X166309523Y-84286104D01*
X166309523Y-84286104D02*
X166347619Y-84209914D01*
X166347619Y-84209914D02*
X166347619Y-83562295D01*
X167147618Y-84362295D02*
X166690475Y-84362295D01*
X166919047Y-84362295D02*
X166919047Y-83562295D01*
X166919047Y-83562295D02*
X166842856Y-83676580D01*
X166842856Y-83676580D02*
X166766666Y-83752771D01*
X166766666Y-83752771D02*
X166690475Y-83790866D01*
%TO.C,J2*%
D11*
X193120000Y-91620000D02*
X194500000Y-91620000D01*
X193120000Y-93000000D02*
X193120000Y-91620000D01*
X193120000Y-94270000D02*
X193120000Y-107080000D01*
X193120000Y-94270000D02*
X195880000Y-94270000D01*
X193120000Y-107080000D02*
X195880000Y-107080000D01*
X195880000Y-94270000D02*
X195880000Y-107080000D01*
%TO.C,R5*%
X186765000Y-114227064D02*
X186765000Y-113772936D01*
X188235000Y-114227064D02*
X188235000Y-113772936D01*
%TO.C,R3*%
X168765000Y-122227064D02*
X168765000Y-121772936D01*
X170235000Y-122227064D02*
X170235000Y-121772936D01*
%TO.C,C_INA*%
X156238748Y-105265000D02*
X156761252Y-105265000D01*
X156238748Y-106735000D02*
X156761252Y-106735000D01*
%TO.C,SW1*%
X144120000Y-126620000D02*
X145500000Y-126620000D01*
X144120000Y-128000000D02*
X144120000Y-126620000D01*
X144120000Y-129270000D02*
X144120000Y-131920000D01*
X144120000Y-129270000D02*
X146880000Y-129270000D01*
X144120000Y-131920000D02*
X146880000Y-131920000D01*
X146880000Y-129270000D02*
X146880000Y-131920000D01*
%TO.C,F1*%
X135113748Y-82290000D02*
X137886252Y-82290000D01*
X135113748Y-85710000D02*
X137886252Y-85710000D01*
%TO.C,C1*%
X133062500Y-92152500D02*
X133850000Y-92152500D01*
X133456250Y-91758750D02*
X133456250Y-92546250D01*
X134090000Y-91654437D02*
X134090000Y-92940000D01*
X134090000Y-91654437D02*
X135154437Y-90590000D01*
X134090000Y-96345563D02*
X134090000Y-95060000D01*
X134090000Y-96345563D02*
X135154437Y-97410000D01*
X135154437Y-90590000D02*
X140910000Y-90590000D01*
X135154437Y-97410000D02*
X140910000Y-97410000D01*
X140910000Y-90590000D02*
X140910000Y-92940000D01*
X140910000Y-97410000D02*
X140910000Y-95060000D01*
%TO.C,C13*%
X184238748Y-87265000D02*
X184761252Y-87265000D01*
X184238748Y-88735000D02*
X184761252Y-88735000D01*
%TO.C,J_TUNE*%
X166120000Y-126620000D02*
X167500000Y-126620000D01*
X166120000Y-128000000D02*
X166120000Y-126620000D01*
X166120000Y-129270000D02*
X166120000Y-134460000D01*
X166120000Y-129270000D02*
X168880000Y-129270000D01*
X166120000Y-134460000D02*
X168880000Y-134460000D01*
X168880000Y-129270000D02*
X168880000Y-134460000D01*
%TO.C,R_CIV1*%
X182765000Y-118227064D02*
X182765000Y-117772936D01*
X184235000Y-118227064D02*
X184235000Y-117772936D01*
%TO.C,C15*%
X192238748Y-87265000D02*
X192761252Y-87265000D01*
X192238748Y-88735000D02*
X192761252Y-88735000D01*
%TO.C,R_SH*%
X160790000Y-115177064D02*
X160790000Y-110822936D01*
X164210000Y-115177064D02*
X164210000Y-110822936D01*
%TO.C,R13*%
X182765000Y-126227064D02*
X182765000Y-125772936D01*
X184235000Y-126227064D02*
X184235000Y-125772936D01*
%TO.C,Q1*%
X174740000Y-107440000D02*
X176260000Y-107440000D01*
X174740000Y-107490000D02*
X174740000Y-107440000D01*
X174740000Y-109390000D02*
X174740000Y-108610000D01*
X174740000Y-110560000D02*
X174740000Y-110510000D01*
X176260000Y-107440000D02*
X176260000Y-108440000D01*
X176260000Y-109560000D02*
X176260000Y-110560000D01*
X176260000Y-110560000D02*
X174740000Y-110560000D01*
X174200000Y-108620000D02*
X174440000Y-108950000D01*
X173960000Y-108950000D01*
X174200000Y-108620000D01*
G36*
X174440000Y-108950000D02*
G01*
X173960000Y-108950000D01*
X174200000Y-108620000D01*
X174440000Y-108950000D01*
G37*
%TO.C,C6*%
X162238748Y-102265000D02*
X162761252Y-102265000D01*
X162238748Y-103735000D02*
X162761252Y-103735000D01*
%TO.C,R_IO12*%
X132765000Y-126227064D02*
X132765000Y-125772936D01*
X134235000Y-126227064D02*
X134235000Y-125772936D01*
%TO.C,C_VM*%
X149062500Y-100152500D02*
X149850000Y-100152500D01*
X149456250Y-99758750D02*
X149456250Y-100546250D01*
X150090000Y-99654437D02*
X150090000Y-100940000D01*
X150090000Y-99654437D02*
X151154437Y-98590000D01*
X150090000Y-104345563D02*
X150090000Y-103060000D01*
X150090000Y-104345563D02*
X151154437Y-105410000D01*
X151154437Y-98590000D02*
X156910000Y-98590000D01*
X151154437Y-105410000D02*
X156910000Y-105410000D01*
X156910000Y-98590000D02*
X156910000Y-100940000D01*
X156910000Y-105410000D02*
X156910000Y-103060000D01*
%TO.C,C5*%
X132765000Y-108261252D02*
X132765000Y-107738748D01*
X134235000Y-108261252D02*
X134235000Y-107738748D01*
%TO.C,U6*%
X155590000Y-108440000D02*
X157410000Y-108440000D01*
X155590000Y-108490000D02*
X155590000Y-108440000D01*
X155590000Y-111560000D02*
X155590000Y-111510000D01*
X157410000Y-108440000D02*
X157410000Y-108490000D01*
X157410000Y-109610000D02*
X157410000Y-110390000D01*
X157410000Y-111510000D02*
X157410000Y-111560000D01*
X157410000Y-111560000D02*
X155590000Y-111560000D01*
X155050000Y-108490000D02*
X154810000Y-108160000D01*
X155290000Y-108160000D01*
X155050000Y-108490000D01*
G36*
X155050000Y-108490000D02*
G01*
X154810000Y-108160000D01*
X155290000Y-108160000D01*
X155050000Y-108490000D01*
G37*
%TO.C,D3*%
X187890000Y-105150000D02*
X187890000Y-106850000D01*
X187890000Y-105150000D02*
X190550000Y-105150000D01*
X187890000Y-106850000D02*
X190550000Y-106850000D01*
%TO.C,J4*%
X136120000Y-75620000D02*
X137500000Y-75620000D01*
X136120000Y-77000000D02*
X136120000Y-75620000D01*
X136120000Y-78270000D02*
X136120000Y-80920000D01*
X136120000Y-78270000D02*
X138880000Y-78270000D01*
X136120000Y-80920000D02*
X138880000Y-80920000D01*
X138880000Y-78270000D02*
X138880000Y-80920000D01*
%TO.C,U2*%
X101570000Y-85020000D02*
X129430000Y-85020000D01*
X101570000Y-124980000D02*
X101570000Y-85020000D01*
X129430000Y-85020000D02*
X129430000Y-124980000D01*
X129430000Y-124980000D02*
X101570000Y-124980000D01*
%TO.C,C10*%
X182765000Y-114261252D02*
X182765000Y-113738748D01*
X184235000Y-114261252D02*
X184235000Y-113738748D01*
%TO.C,Q2*%
X178740000Y-107440000D02*
X180260000Y-107440000D01*
X178740000Y-107490000D02*
X178740000Y-107440000D01*
X178740000Y-109390000D02*
X178740000Y-108610000D01*
X178740000Y-110560000D02*
X178740000Y-110510000D01*
X180260000Y-107440000D02*
X180260000Y-108440000D01*
X180260000Y-109560000D02*
X180260000Y-110560000D01*
X180260000Y-110560000D02*
X178740000Y-110560000D01*
X178200000Y-108620000D02*
X178440000Y-108950000D01*
X177960000Y-108950000D01*
X178200000Y-108620000D01*
G36*
X178440000Y-108950000D02*
G01*
X177960000Y-108950000D01*
X178200000Y-108620000D01*
X178440000Y-108950000D01*
G37*
%TO.C,R_CIV3*%
X190765000Y-118227064D02*
X190765000Y-117772936D01*
X192235000Y-118227064D02*
X192235000Y-117772936D01*
%TO.C,R12*%
X190765000Y-122227064D02*
X190765000Y-121772936D01*
X192235000Y-122227064D02*
X192235000Y-121772936D01*
%TO.C,R_TD*%
X190765000Y-126227064D02*
X190765000Y-125772936D01*
X192235000Y-126227064D02*
X192235000Y-125772936D01*
%TO.C,R6*%
X190765000Y-114227064D02*
X190765000Y-113772936D01*
X192235000Y-114227064D02*
X192235000Y-113772936D01*
%TO.C,C3*%
X172238748Y-99265000D02*
X172761252Y-99265000D01*
X172238748Y-100735000D02*
X172761252Y-100735000D01*
%TO.C,R_CIV2*%
X186765000Y-118227064D02*
X186765000Y-117772936D01*
X188235000Y-118227064D02*
X188235000Y-117772936D01*
%TO.C,C12*%
X180238748Y-87265000D02*
X180761252Y-87265000D01*
X180238748Y-88735000D02*
X180761252Y-88735000D01*
%TO.C,C9*%
X190765000Y-110261252D02*
X190765000Y-109738748D01*
X192235000Y-110261252D02*
X192235000Y-109738748D01*
%TO.C,T1*%
X168000000Y-116000000D02*
X168330000Y-114120000D01*
X168330000Y-114120000D02*
X169290000Y-112460000D01*
X168330000Y-117880000D02*
X168000000Y-116000000D01*
X169290000Y-112460000D02*
X170750000Y-111240000D01*
X169290000Y-119540000D02*
X168330000Y-117880000D01*
X170750000Y-111240000D02*
X172540000Y-110580000D01*
X170750000Y-120760000D02*
X169290000Y-119540000D01*
X172540000Y-110580000D02*
X174460000Y-110580000D01*
X172540000Y-121420000D02*
X170750000Y-120760000D01*
X174460000Y-110580000D02*
X176250000Y-111240000D01*
X174460000Y-121420000D02*
X172540000Y-121420000D01*
X176250000Y-111240000D02*
X177710000Y-112460000D01*
X176250000Y-120760000D02*
X174460000Y-121420000D01*
X177710000Y-112460000D02*
X178670000Y-114120000D01*
X177710000Y-119540000D02*
X176250000Y-120760000D01*
X178670000Y-114120000D02*
X179000000Y-116000000D01*
X178670000Y-117880000D02*
X177710000Y-119540000D01*
X179000000Y-116000000D02*
X178670000Y-117880000D01*
%TO.C,R_EN*%
X132765000Y-114227064D02*
X132765000Y-113772936D01*
X134235000Y-114227064D02*
X134235000Y-113772936D01*
%TO.C,SW2*%
X155120000Y-126620000D02*
X156500000Y-126620000D01*
X155120000Y-128000000D02*
X155120000Y-126620000D01*
X155120000Y-129270000D02*
X155120000Y-131920000D01*
X155120000Y-129270000D02*
X157880000Y-129270000D01*
X155120000Y-131920000D02*
X157880000Y-131920000D01*
X157880000Y-129270000D02*
X157880000Y-131920000D01*
%TO.C,C7*%
X168765000Y-116261252D02*
X168765000Y-115738748D01*
X170235000Y-116261252D02*
X170235000Y-115738748D01*
%TO.C,J6*%
X156120000Y-75620000D02*
X157500000Y-75620000D01*
X156120000Y-77000000D02*
X156120000Y-75620000D01*
X156120000Y-78270000D02*
X156120000Y-86000000D01*
X156120000Y-78270000D02*
X158880000Y-78270000D01*
X156120000Y-86000000D02*
X158880000Y-86000000D01*
X158880000Y-78270000D02*
X158880000Y-86000000D01*
%TO.C,C14*%
X188238748Y-87265000D02*
X188761252Y-87265000D01*
X188238748Y-88735000D02*
X188761252Y-88735000D01*
%TO.C,R_SA*%
X139272936Y-132265000D02*
X139727064Y-132265000D01*
X139272936Y-133735000D02*
X139727064Y-133735000D01*
%TO.C,J_OLED*%
X130120000Y-126620000D02*
X131500000Y-126620000D01*
X130120000Y-128000000D02*
X130120000Y-126620000D01*
X130120000Y-129270000D02*
X130120000Y-137000000D01*
X130120000Y-129270000D02*
X132880000Y-129270000D01*
X130120000Y-137000000D02*
X132880000Y-137000000D01*
X132880000Y-129270000D02*
X132880000Y-137000000D01*
%TO.C,C2*%
X145875000Y-92315000D02*
X146500000Y-92315000D01*
X146187500Y-92002500D02*
X146187500Y-92627500D01*
X146740000Y-92304437D02*
X146740000Y-92940000D01*
X146740000Y-92304437D02*
X147804437Y-91240000D01*
X146740000Y-95695563D02*
X146740000Y-95060000D01*
X146740000Y-95695563D02*
X147804437Y-96760000D01*
X147804437Y-91240000D02*
X152260000Y-91240000D01*
X147804437Y-96760000D02*
X152260000Y-96760000D01*
X152260000Y-91240000D02*
X152260000Y-92940000D01*
X152260000Y-96760000D02*
X152260000Y-95060000D01*
%TO.C,J3*%
X128120000Y-75620000D02*
X129500000Y-75620000D01*
X128120000Y-77000000D02*
X128120000Y-75620000D01*
X128120000Y-78270000D02*
X128120000Y-80920000D01*
X128120000Y-78270000D02*
X130880000Y-78270000D01*
X128120000Y-80920000D02*
X130880000Y-80920000D01*
X130880000Y-78270000D02*
X130880000Y-80920000D01*
%TO.C,J1*%
X146120000Y-75620000D02*
X147500000Y-75620000D01*
X146120000Y-77000000D02*
X146120000Y-75620000D01*
X146120000Y-78270000D02*
X146120000Y-80920000D01*
X146120000Y-78270000D02*
X148880000Y-78270000D01*
X146120000Y-80920000D02*
X148880000Y-80920000D01*
X148880000Y-78270000D02*
X148880000Y-80920000D01*
%TO.C,R8*%
X186765000Y-122227064D02*
X186765000Y-121772936D01*
X188235000Y-122227064D02*
X188235000Y-121772936D01*
%TO.C,R_SB_PD*%
X157272936Y-132265000D02*
X157727064Y-132265000D01*
X157272936Y-133735000D02*
X157727064Y-133735000D01*
%TO.C,R4*%
X186765000Y-110227064D02*
X186765000Y-109772936D01*
X188235000Y-110227064D02*
X188235000Y-109772936D01*
%TO.C,R_SB*%
X151272936Y-132265000D02*
X151727064Y-132265000D01*
X151272936Y-133735000D02*
X151727064Y-133735000D01*
%TO.C,C_EN*%
X132765000Y-120261252D02*
X132765000Y-119738748D01*
X134235000Y-120261252D02*
X134235000Y-119738748D01*
%TO.C,D2*%
X181890000Y-105150000D02*
X181890000Y-106850000D01*
X181890000Y-105150000D02*
X184550000Y-105150000D01*
X181890000Y-106850000D02*
X184550000Y-106850000D01*
%TO.C,R_TU*%
X186765000Y-126227064D02*
X186765000Y-125772936D01*
X188235000Y-126227064D02*
X188235000Y-125772936D01*
%TO.C,C4*%
X132765000Y-102261252D02*
X132765000Y-101738748D01*
X134235000Y-102261252D02*
X134235000Y-101738748D01*
%TO.C,C11*%
X176238748Y-87265000D02*
X176761252Y-87265000D01*
X176238748Y-88735000D02*
X176761252Y-88735000D01*
%TO.C,U3*%
X179440000Y-93940000D02*
X183560000Y-93940000D01*
X179440000Y-93995000D02*
X179440000Y-93940000D01*
X179440000Y-104060000D02*
X179440000Y-104005000D01*
X183560000Y-93940000D02*
X183560000Y-93995000D01*
X183560000Y-104005000D02*
X183560000Y-104060000D01*
X183560000Y-104060000D02*
X179440000Y-104060000D01*
X178900000Y-93990000D02*
X178660000Y-93660000D01*
X179140000Y-93660000D01*
X178900000Y-93990000D01*
G36*
X178900000Y-93990000D02*
G01*
X178660000Y-93660000D01*
X179140000Y-93660000D01*
X178900000Y-93990000D01*
G37*
%TO.C,R7*%
X182765000Y-122227064D02*
X182765000Y-121772936D01*
X184235000Y-122227064D02*
X184235000Y-121772936D01*
%TO.C,C8*%
X182765000Y-110261252D02*
X182765000Y-109738748D01*
X184235000Y-110261252D02*
X184235000Y-109738748D01*
%TO.C,D1*%
X140840000Y-81850000D02*
X140840000Y-86150000D01*
X140840000Y-81850000D02*
X146650000Y-81850000D01*
X140840000Y-86150000D02*
X146650000Y-86150000D01*
%TO.C,J8*%
X188120000Y-75620000D02*
X189500000Y-75620000D01*
X188120000Y-77000000D02*
X188120000Y-75620000D01*
X188120000Y-78270000D02*
X188120000Y-86000000D01*
X188120000Y-78270000D02*
X190880000Y-78270000D01*
X188120000Y-86000000D02*
X190880000Y-86000000D01*
X190880000Y-78270000D02*
X190880000Y-86000000D01*
%TO.C,R_SA_PU*%
X145272936Y-132265000D02*
X145727064Y-132265000D01*
X145272936Y-133735000D02*
X145727064Y-133735000D01*
%TO.C,U4*%
X138500000Y-108000000D02*
X156500000Y-108000000D01*
X138500000Y-122000000D02*
X138500000Y-108000000D01*
X156500000Y-108000000D02*
X156500000Y-122000000D01*
X156500000Y-122000000D02*
X138500000Y-122000000D01*
%TO.C,U1*%
X160800000Y-90200000D02*
X172200000Y-90200000D01*
X160800000Y-99200000D02*
X160800000Y-90200000D01*
X172200000Y-90200000D02*
X172200000Y-99200000D01*
X172200000Y-99200000D02*
X160800000Y-99200000D01*
%TD*%
M02*
