%TF.GenerationSoftware,KiCad,Pcbnew,10.0.3*%
%TF.CreationDate,2026-06-14T20:34:33-04:00*%
%TF.ProjectId,tuner,74756e65-722e-46b6-9963-61645f706362,rev?*%
%TF.SameCoordinates,Original*%
%TF.FileFunction,Copper,L2,Inr*%
%TF.FilePolarity,Positive*%
%FSLAX46Y46*%
G04 Gerber Fmt 4.6, Leading zero omitted, Abs format (unit mm)*
G04 Created by KiCad (PCBNEW 10.0.3) date 2026-06-14 20:34:33*
%MOMM*%
%LPD*%
G01*
G04 APERTURE LIST*
%TA.AperFunction,ComponentPad*%
%ADD10R,1.700000X1.700000*%
%TD*%
%TA.AperFunction,ComponentPad*%
%ADD11C,1.700000*%
%TD*%
%TA.AperFunction,ComponentPad*%
%ADD12C,1.800000*%
%TD*%
%TA.AperFunction,ComponentPad*%
%ADD13R,1.800000X1.800000*%
%TD*%
G04 APERTURE END LIST*
D10*
%TO.N,GND*%
%TO.C,J2*%
X194500000Y-93000000D03*
D11*
%TO.N,/RS232_TX*%
X194500000Y-95540000D03*
%TO.N,/RS232_RX*%
X194500000Y-98080000D03*
%TO.N,/CIV_BUS*%
X194500000Y-100620000D03*
%TO.N,+3V3*%
X194500000Y-103160000D03*
%TO.N,GND*%
X194500000Y-105700000D03*
%TD*%
D10*
%TO.N,/BTN_TUNE*%
%TO.C,SW1*%
X145500000Y-128000000D03*
D11*
%TO.N,GND*%
X145500000Y-130540000D03*
%TD*%
D10*
%TO.N,/TUNE_UP*%
%TO.C,J_TUNE*%
X167500000Y-128000000D03*
D11*
%TO.N,GND*%
X167500000Y-130540000D03*
%TO.N,/TUNE_DOWN*%
X167500000Y-133080000D03*
%TD*%
D10*
%TO.N,/RF_LINE_OUT*%
%TO.C,J4*%
X137500000Y-77000000D03*
D11*
%TO.N,GND*%
X137500000Y-79540000D03*
%TD*%
D12*
%TO.N,GND*%
%TO.C,U2*%
X126930000Y-89760000D03*
%TO.N,+3V3*%
X126930000Y-87220000D03*
D13*
%TO.N,/ESP_EN*%
X104070000Y-87220000D03*
D12*
%TO.N,/ANT_SENSE_A*%
X104070000Y-89760000D03*
%TO.N,/ANT_SENSE_B*%
X104070000Y-92300000D03*
%TO.N,/SWR_FWD*%
X104070000Y-94840000D03*
%TO.N,/SWR_REV*%
X104070000Y-97380000D03*
%TO.N,/BTN_TUNE*%
X104070000Y-99920000D03*
%TO.N,/BTN_PARK*%
X104070000Y-102460000D03*
%TO.N,/MTR_IN1*%
X104070000Y-105000000D03*
%TO.N,/MTR_IN2*%
X104070000Y-107540000D03*
%TO.N,/MTR_ISENSE*%
X104070000Y-110080000D03*
%TO.N,/CIV_RX*%
X104070000Y-112620000D03*
%TO.N,/IO12_STRAP*%
X104070000Y-115160000D03*
%TO.N,GND*%
X104070000Y-117700000D03*
%TO.N,/CIV_TX*%
X104070000Y-120240000D03*
%TO.N,unconnected-(U2-IO15-Pad23)*%
X126930000Y-92300000D03*
%TO.N,unconnected-(U2-IO2-Pad24)*%
X126930000Y-94840000D03*
%TO.N,/I2C_SDA*%
X126930000Y-97380000D03*
%TO.N,/RADIO_RX*%
X126930000Y-99920000D03*
%TO.N,/RADIO_TX*%
X126930000Y-102460000D03*
%TO.N,/I2C_SCL*%
X126930000Y-105000000D03*
%TO.N,unconnected-(U2-IO18-Pad30)*%
X126930000Y-107540000D03*
%TO.N,unconnected-(U2-IO19-Pad31)*%
X126930000Y-110080000D03*
%TO.N,unconnected-(U2-IO21-Pad33)*%
X126930000Y-112620000D03*
%TO.N,/DBG_RX*%
X126930000Y-115160000D03*
%TO.N,/DBG_TX*%
X126930000Y-117700000D03*
%TO.N,/TUNE_UP*%
X126930000Y-120240000D03*
%TO.N,/TUNE_DOWN*%
X126930000Y-122780000D03*
%TO.N,N/C*%
X104070000Y-122780000D03*
%TD*%
D13*
%TO.N,/RF_LINE_IN*%
%TO.C,T1*%
X165880000Y-118540000D03*
D12*
%TO.N,/RF_LINE_OUT*%
X165880000Y-113460000D03*
%TO.N,/FWD_AC*%
X181120000Y-119810000D03*
%TO.N,/VSAMPLE*%
X181120000Y-116000000D03*
%TO.N,/REV_AC*%
X181120000Y-112190000D03*
%TD*%
D10*
%TO.N,/BTN_PARK*%
%TO.C,SW2*%
X156500000Y-128000000D03*
D11*
%TO.N,GND*%
X156500000Y-130540000D03*
%TD*%
D10*
%TO.N,/MTR_OUT1*%
%TO.C,J6*%
X157500000Y-77000000D03*
D11*
%TO.N,/MTR_OUT2*%
X157500000Y-79540000D03*
%TO.N,/ANT_SENSE_A_RAW*%
X157500000Y-82080000D03*
%TO.N,/ANT_SENSE_B_RAW*%
X157500000Y-84620000D03*
%TD*%
D10*
%TO.N,GND*%
%TO.C,J_OLED*%
X131500000Y-128000000D03*
D11*
%TO.N,+3V3*%
X131500000Y-130540000D03*
%TO.N,/I2C_SCL*%
X131500000Y-133080000D03*
%TO.N,/I2C_SDA*%
X131500000Y-135620000D03*
%TD*%
D10*
%TO.N,/RF_LINE_IN*%
%TO.C,J3*%
X129500000Y-77000000D03*
D11*
%TO.N,GND*%
X129500000Y-79540000D03*
%TD*%
D10*
%TO.N,/12V_FUSED_IN*%
%TO.C,J1*%
X147500000Y-77000000D03*
D11*
%TO.N,GND*%
X147500000Y-79540000D03*
%TD*%
D10*
%TO.N,GND*%
%TO.C,J8*%
X189500000Y-77000000D03*
D11*
%TO.N,+3V3*%
X189500000Y-79540000D03*
%TO.N,/DBG_TX*%
X189500000Y-82080000D03*
%TO.N,/DBG_RX*%
X189500000Y-84620000D03*
%TD*%
D13*
%TO.N,+12V*%
%TO.C,U4*%
X139880000Y-118810000D03*
D12*
%TO.N,/MTR_SNS*%
X139880000Y-116270000D03*
%TO.N,/MTR_IN1*%
X139880000Y-113730000D03*
%TO.N,/MTR_IN2*%
X139880000Y-111190000D03*
%TO.N,/MTR_OUT1*%
X155120000Y-117540000D03*
%TO.N,/MTR_OUT2*%
X155120000Y-112460000D03*
%TD*%
D13*
%TO.N,+12V*%
%TO.C,U1*%
X163960000Y-92000000D03*
D12*
%TO.N,GND*%
X166500000Y-92000000D03*
%TO.N,+3V3*%
X169040000Y-92000000D03*
%TD*%
M02*
