%TF.GenerationSoftware,KiCad,Pcbnew,10.0.3*%
%TF.CreationDate,2026-06-14T20:34:33-04:00*%
%TF.ProjectId,tuner,74756e65-722e-46b6-9963-61645f706362,rev?*%
%TF.SameCoordinates,Original*%
%TF.FileFunction,Copper,L1,Top*%
%TF.FilePolarity,Positive*%
%FSLAX46Y46*%
G04 Gerber Fmt 4.6, Leading zero omitted, Abs format (unit mm)*
G04 Created by KiCad (PCBNEW 10.0.3) date 2026-06-14 20:34:33*
%MOMM*%
%LPD*%
G01*
G04 APERTURE LIST*
G04 Aperture macros list*
%AMRoundRect*
0 Rectangle with rounded corners*
0 $1 Rounding radius*
0 $2 $3 $4 $5 $6 $7 $8 $9 X,Y pos of 4 corners*
0 Add a 4 corners polygon primitive as box body*
4,1,4,$2,$3,$4,$5,$6,$7,$8,$9,$2,$3,0*
0 Add four circle primitives for the rounded corners*
1,1,$1+$1,$2,$3*
1,1,$1+$1,$4,$5*
1,1,$1+$1,$6,$7*
1,1,$1+$1,$8,$9*
0 Add four rect primitives between the rounded corners*
20,1,$1+$1,$2,$3,$4,$5,0*
20,1,$1+$1,$4,$5,$6,$7,0*
20,1,$1+$1,$6,$7,$8,$9,0*
20,1,$1+$1,$8,$9,$2,$3,0*%
G04 Aperture macros list end*
%TA.AperFunction,ComponentPad*%
%ADD10R,1.700000X1.700000*%
%TD*%
%TA.AperFunction,ComponentPad*%
%ADD11C,1.700000*%
%TD*%
%TA.AperFunction,SMDPad,CuDef*%
%ADD12RoundRect,0.250000X0.450000X-0.262500X0.450000X0.262500X-0.450000X0.262500X-0.450000X-0.262500X0*%
%TD*%
%TA.AperFunction,SMDPad,CuDef*%
%ADD13RoundRect,0.250000X-0.250000X-0.475000X0.250000X-0.475000X0.250000X0.475000X-0.250000X0.475000X0*%
%TD*%
%TA.AperFunction,SMDPad,CuDef*%
%ADD14RoundRect,0.250000X-0.312500X-1.450000X0.312500X-1.450000X0.312500X1.450000X-0.312500X1.450000X0*%
%TD*%
%TA.AperFunction,SMDPad,CuDef*%
%ADD15RoundRect,0.250000X-1.500000X-0.550000X1.500000X-0.550000X1.500000X0.550000X-1.500000X0.550000X0*%
%TD*%
%TA.AperFunction,SMDPad,CuDef*%
%ADD16RoundRect,0.250000X1.425000X-0.362500X1.425000X0.362500X-1.425000X0.362500X-1.425000X-0.362500X0*%
%TD*%
%TA.AperFunction,SMDPad,CuDef*%
%ADD17RoundRect,0.150000X-0.587500X-0.150000X0.587500X-0.150000X0.587500X0.150000X-0.587500X0.150000X0*%
%TD*%
%TA.AperFunction,SMDPad,CuDef*%
%ADD18RoundRect,0.250000X0.475000X-0.250000X0.475000X0.250000X-0.475000X0.250000X-0.475000X-0.250000X0*%
%TD*%
%TA.AperFunction,SMDPad,CuDef*%
%ADD19RoundRect,0.150000X-0.512500X-0.150000X0.512500X-0.150000X0.512500X0.150000X-0.512500X0.150000X0*%
%TD*%
%TA.AperFunction,SMDPad,CuDef*%
%ADD20RoundRect,0.112500X-0.187500X-0.112500X0.187500X-0.112500X0.187500X0.112500X-0.187500X0.112500X0*%
%TD*%
%TA.AperFunction,ComponentPad*%
%ADD21C,1.800000*%
%TD*%
%TA.AperFunction,ComponentPad*%
%ADD22R,1.800000X1.800000*%
%TD*%
%TA.AperFunction,SMDPad,CuDef*%
%ADD23RoundRect,0.250000X-0.262500X-0.450000X0.262500X-0.450000X0.262500X0.450000X-0.262500X0.450000X0*%
%TD*%
%TA.AperFunction,SMDPad,CuDef*%
%ADD24RoundRect,0.250000X-1.250000X-0.550000X1.250000X-0.550000X1.250000X0.550000X-1.250000X0.550000X0*%
%TD*%
%TA.AperFunction,SMDPad,CuDef*%
%ADD25RoundRect,0.150000X-0.825000X-0.150000X0.825000X-0.150000X0.825000X0.150000X-0.825000X0.150000X0*%
%TD*%
%TA.AperFunction,SMDPad,CuDef*%
%ADD26RoundRect,0.250000X-1.000000X-0.900000X1.000000X-0.900000X1.000000X0.900000X-1.000000X0.900000X0*%
%TD*%
G04 APERTURE END LIST*
D10*
%TO.P,J2,1*%
%TO.N,GND*%
X194500000Y-93000000D03*
D11*
%TO.P,J2,2*%
%TO.N,/RS232_TX*%
X194500000Y-95540000D03*
%TO.P,J2,3*%
%TO.N,/RS232_RX*%
X194500000Y-98080000D03*
%TO.P,J2,4*%
%TO.N,/CIV_BUS*%
X194500000Y-100620000D03*
%TO.P,J2,5*%
%TO.N,+3V3*%
X194500000Y-103160000D03*
%TO.P,J2,6*%
%TO.N,GND*%
X194500000Y-105700000D03*
%TD*%
D12*
%TO.P,R5,1*%
%TO.N,/SWR_FWD*%
X187500000Y-114912500D03*
%TO.P,R5,2*%
%TO.N,GND*%
X187500000Y-113087500D03*
%TD*%
%TO.P,R3,1*%
%TO.N,/FWD_AC*%
X169500000Y-122912500D03*
%TO.P,R3,2*%
%TO.N,/REV_AC*%
X169500000Y-121087500D03*
%TD*%
D13*
%TO.P,C_INA,1*%
%TO.N,+3V3*%
X155550000Y-106000000D03*
%TO.P,C_INA,2*%
%TO.N,GND*%
X157450000Y-106000000D03*
%TD*%
D10*
%TO.P,SW1,1*%
%TO.N,/BTN_TUNE*%
X145500000Y-128000000D03*
D11*
%TO.P,SW1,2*%
%TO.N,GND*%
X145500000Y-130540000D03*
%TD*%
D14*
%TO.P,F1,1*%
%TO.N,+12V*%
X134362500Y-84000000D03*
%TO.P,F1,2*%
%TO.N,/12V_FUSED_IN*%
X138637500Y-84000000D03*
%TD*%
D15*
%TO.P,C1,1*%
%TO.N,+12V*%
X134700000Y-94000000D03*
%TO.P,C1,2*%
%TO.N,GND*%
X140300000Y-94000000D03*
%TD*%
D13*
%TO.P,C13,1*%
%TO.N,/CP_VSP*%
X183550000Y-88000000D03*
%TO.P,C13,2*%
%TO.N,+3V3*%
X185450000Y-88000000D03*
%TD*%
D10*
%TO.P,J_TUNE,1*%
%TO.N,/TUNE_UP*%
X167500000Y-128000000D03*
D11*
%TO.P,J_TUNE,2*%
%TO.N,GND*%
X167500000Y-130540000D03*
%TO.P,J_TUNE,3*%
%TO.N,/TUNE_DOWN*%
X167500000Y-133080000D03*
%TD*%
D12*
%TO.P,R_CIV1,1*%
%TO.N,/CIV_TX*%
X183500000Y-118912500D03*
%TO.P,R_CIV1,2*%
%TO.N,/CIV_Q1B*%
X183500000Y-117087500D03*
%TD*%
D13*
%TO.P,C15,1*%
%TO.N,+3V3*%
X191550000Y-88000000D03*
%TO.P,C15,2*%
%TO.N,GND*%
X193450000Y-88000000D03*
%TD*%
D16*
%TO.P,R_SH,1*%
%TO.N,/MTR_SNS*%
X162500000Y-115962500D03*
%TO.P,R_SH,2*%
%TO.N,GND*%
X162500000Y-110037500D03*
%TD*%
D12*
%TO.P,R13,1*%
%TO.N,+3V3*%
X183500000Y-126912500D03*
%TO.P,R13,2*%
%TO.N,/I2C_SCL*%
X183500000Y-125087500D03*
%TD*%
D17*
%TO.P,Q1,1*%
%TO.N,/CIV_Q1B*%
X174562500Y-108050000D03*
%TO.P,Q1,2*%
%TO.N,GND*%
X174562500Y-109950000D03*
%TO.P,Q1,3*%
%TO.N,/CIV_BUS*%
X176437500Y-109000000D03*
%TD*%
D13*
%TO.P,C6,1*%
%TO.N,+12V*%
X161550000Y-103000000D03*
%TO.P,C6,2*%
%TO.N,GND*%
X163450000Y-103000000D03*
%TD*%
D12*
%TO.P,R_IO12,1*%
%TO.N,/IO12_STRAP*%
X133500000Y-126912500D03*
%TO.P,R_IO12,2*%
%TO.N,GND*%
X133500000Y-125087500D03*
%TD*%
D15*
%TO.P,C_VM,1*%
%TO.N,+12V*%
X150700000Y-102000000D03*
%TO.P,C_VM,2*%
%TO.N,GND*%
X156300000Y-102000000D03*
%TD*%
D18*
%TO.P,C5,1*%
%TO.N,+3V3*%
X133500000Y-108950000D03*
%TO.P,C5,2*%
%TO.N,GND*%
X133500000Y-107050000D03*
%TD*%
D19*
%TO.P,U6,1*%
%TO.N,/MTR_ISENSE*%
X155362500Y-109050000D03*
%TO.P,U6,2*%
%TO.N,GND*%
X155362500Y-110000000D03*
%TO.P,U6,3*%
%TO.N,/MTR_SNS*%
X155362500Y-110950000D03*
%TO.P,U6,4*%
%TO.N,GND*%
X157637500Y-110950000D03*
%TO.P,U6,5*%
%TO.N,+3V3*%
X157637500Y-109050000D03*
%TD*%
D20*
%TO.P,D3,1*%
%TO.N,/SWR_REV*%
X188450000Y-106000000D03*
%TO.P,D3,2*%
%TO.N,/REV_AC*%
X190550000Y-106000000D03*
%TD*%
D10*
%TO.P,J4,1*%
%TO.N,/RF_LINE_OUT*%
X137500000Y-77000000D03*
D11*
%TO.P,J4,2*%
%TO.N,GND*%
X137500000Y-79540000D03*
%TD*%
D21*
%TO.P,U2,1*%
%TO.N,GND*%
X126930000Y-89760000D03*
%TO.P,U2,2*%
%TO.N,+3V3*%
X126930000Y-87220000D03*
D22*
%TO.P,U2,3*%
%TO.N,/ESP_EN*%
X104070000Y-87220000D03*
D21*
%TO.P,U2,4*%
%TO.N,/ANT_SENSE_A*%
X104070000Y-89760000D03*
%TO.P,U2,5*%
%TO.N,/ANT_SENSE_B*%
X104070000Y-92300000D03*
%TO.P,U2,6*%
%TO.N,/SWR_FWD*%
X104070000Y-94840000D03*
%TO.P,U2,7*%
%TO.N,/SWR_REV*%
X104070000Y-97380000D03*
%TO.P,U2,8*%
%TO.N,/BTN_TUNE*%
X104070000Y-99920000D03*
%TO.P,U2,9*%
%TO.N,/BTN_PARK*%
X104070000Y-102460000D03*
%TO.P,U2,10*%
%TO.N,/MTR_IN1*%
X104070000Y-105000000D03*
%TO.P,U2,11*%
%TO.N,/MTR_IN2*%
X104070000Y-107540000D03*
%TO.P,U2,12*%
%TO.N,/MTR_ISENSE*%
X104070000Y-110080000D03*
%TO.P,U2,13*%
%TO.N,/CIV_RX*%
X104070000Y-112620000D03*
%TO.P,U2,14*%
%TO.N,/IO12_STRAP*%
X104070000Y-115160000D03*
%TO.P,U2,15*%
%TO.N,GND*%
X104070000Y-117700000D03*
%TO.P,U2,16*%
%TO.N,/CIV_TX*%
X104070000Y-120240000D03*
%TO.P,U2,23*%
%TO.N,unconnected-(U2-IO15-Pad23)*%
X126930000Y-92300000D03*
%TO.P,U2,24*%
%TO.N,unconnected-(U2-IO2-Pad24)*%
X126930000Y-94840000D03*
%TO.P,U2,26*%
%TO.N,/I2C_SDA*%
X126930000Y-97380000D03*
%TO.P,U2,27*%
%TO.N,/RADIO_RX*%
X126930000Y-99920000D03*
%TO.P,U2,28*%
%TO.N,/RADIO_TX*%
X126930000Y-102460000D03*
%TO.P,U2,29*%
%TO.N,/I2C_SCL*%
X126930000Y-105000000D03*
%TO.P,U2,30*%
%TO.N,unconnected-(U2-IO18-Pad30)*%
X126930000Y-107540000D03*
%TO.P,U2,31*%
%TO.N,unconnected-(U2-IO19-Pad31)*%
X126930000Y-110080000D03*
%TO.P,U2,33*%
%TO.N,unconnected-(U2-IO21-Pad33)*%
X126930000Y-112620000D03*
%TO.P,U2,34*%
%TO.N,/DBG_RX*%
X126930000Y-115160000D03*
%TO.P,U2,35*%
%TO.N,/DBG_TX*%
X126930000Y-117700000D03*
%TO.P,U2,36*%
%TO.N,/TUNE_UP*%
X126930000Y-120240000D03*
%TO.P,U2,37*%
%TO.N,/TUNE_DOWN*%
X126930000Y-122780000D03*
%TO.P,U2,VIN*%
%TO.N,N/C*%
X104070000Y-122780000D03*
%TD*%
D18*
%TO.P,C10,1*%
%TO.N,/SWR_REV*%
X183500000Y-114950000D03*
%TO.P,C10,2*%
%TO.N,GND*%
X183500000Y-113050000D03*
%TD*%
D17*
%TO.P,Q2,1*%
%TO.N,/CIV_Q2B*%
X178562500Y-108050000D03*
%TO.P,Q2,2*%
%TO.N,GND*%
X178562500Y-109950000D03*
%TO.P,Q2,3*%
%TO.N,/CIV_RX*%
X180437500Y-109000000D03*
%TD*%
D12*
%TO.P,R_CIV3,1*%
%TO.N,+3V3*%
X191500000Y-118912500D03*
%TO.P,R_CIV3,2*%
%TO.N,/CIV_RX*%
X191500000Y-117087500D03*
%TD*%
%TO.P,R12,1*%
%TO.N,+3V3*%
X191500000Y-122912500D03*
%TO.P,R12,2*%
%TO.N,/I2C_SDA*%
X191500000Y-121087500D03*
%TD*%
%TO.P,R_TD,1*%
%TO.N,+3V3*%
X191500000Y-126912500D03*
%TO.P,R_TD,2*%
%TO.N,/TUNE_DOWN*%
X191500000Y-125087500D03*
%TD*%
%TO.P,R6,1*%
%TO.N,/SWR_REV*%
X191500000Y-114912500D03*
%TO.P,R6,2*%
%TO.N,GND*%
X191500000Y-113087500D03*
%TD*%
D13*
%TO.P,C3,1*%
%TO.N,+3V3*%
X171550000Y-100000000D03*
%TO.P,C3,2*%
%TO.N,GND*%
X173450000Y-100000000D03*
%TD*%
D12*
%TO.P,R_CIV2,1*%
%TO.N,/CIV_BUS*%
X187500000Y-118912500D03*
%TO.P,R_CIV2,2*%
%TO.N,/CIV_Q2B*%
X187500000Y-117087500D03*
%TD*%
D13*
%TO.P,C12,1*%
%TO.N,/CP_C2P*%
X179550000Y-88000000D03*
%TO.P,C12,2*%
%TO.N,/CP_C2N*%
X181450000Y-88000000D03*
%TD*%
D18*
%TO.P,C9,1*%
%TO.N,/SWR_FWD*%
X191500000Y-110950000D03*
%TO.P,C9,2*%
%TO.N,GND*%
X191500000Y-109050000D03*
%TD*%
D22*
%TO.P,T1,1*%
%TO.N,/RF_LINE_IN*%
X165880000Y-118540000D03*
D21*
%TO.P,T1,2*%
%TO.N,/RF_LINE_OUT*%
X165880000Y-113460000D03*
%TO.P,T1,3*%
%TO.N,/FWD_AC*%
X181120000Y-119810000D03*
%TO.P,T1,4*%
%TO.N,/VSAMPLE*%
X181120000Y-116000000D03*
%TO.P,T1,5*%
%TO.N,/REV_AC*%
X181120000Y-112190000D03*
%TD*%
D12*
%TO.P,R_EN,1*%
%TO.N,+3V3*%
X133500000Y-114912500D03*
%TO.P,R_EN,2*%
%TO.N,/ESP_EN*%
X133500000Y-113087500D03*
%TD*%
D10*
%TO.P,SW2,1*%
%TO.N,/BTN_PARK*%
X156500000Y-128000000D03*
D11*
%TO.P,SW2,2*%
%TO.N,GND*%
X156500000Y-130540000D03*
%TD*%
D18*
%TO.P,C7,1*%
%TO.N,/VSAMPLE*%
X169500000Y-116950000D03*
%TO.P,C7,2*%
%TO.N,/RF_LINE_OUT*%
X169500000Y-115050000D03*
%TD*%
D10*
%TO.P,J6,1*%
%TO.N,/MTR_OUT1*%
X157500000Y-77000000D03*
D11*
%TO.P,J6,2*%
%TO.N,/MTR_OUT2*%
X157500000Y-79540000D03*
%TO.P,J6,3*%
%TO.N,/ANT_SENSE_A_RAW*%
X157500000Y-82080000D03*
%TO.P,J6,4*%
%TO.N,/ANT_SENSE_B_RAW*%
X157500000Y-84620000D03*
%TD*%
D13*
%TO.P,C14,1*%
%TO.N,/CP_VSN*%
X187550000Y-88000000D03*
%TO.P,C14,2*%
%TO.N,GND*%
X189450000Y-88000000D03*
%TD*%
D23*
%TO.P,R_SA,1*%
%TO.N,/ANT_SENSE_A_RAW*%
X138587500Y-133000000D03*
%TO.P,R_SA,2*%
%TO.N,/ANT_SENSE_A*%
X140412500Y-133000000D03*
%TD*%
D10*
%TO.P,J_OLED,1*%
%TO.N,GND*%
X131500000Y-128000000D03*
D11*
%TO.P,J_OLED,2*%
%TO.N,+3V3*%
X131500000Y-130540000D03*
%TO.P,J_OLED,3*%
%TO.N,/I2C_SCL*%
X131500000Y-133080000D03*
%TO.P,J_OLED,4*%
%TO.N,/I2C_SDA*%
X131500000Y-135620000D03*
%TD*%
D24*
%TO.P,C2,1*%
%TO.N,+3V3*%
X147300000Y-94000000D03*
%TO.P,C2,2*%
%TO.N,GND*%
X151700000Y-94000000D03*
%TD*%
D10*
%TO.P,J3,1*%
%TO.N,/RF_LINE_IN*%
X129500000Y-77000000D03*
D11*
%TO.P,J3,2*%
%TO.N,GND*%
X129500000Y-79540000D03*
%TD*%
D10*
%TO.P,J1,1*%
%TO.N,/12V_FUSED_IN*%
X147500000Y-77000000D03*
D11*
%TO.P,J1,2*%
%TO.N,GND*%
X147500000Y-79540000D03*
%TD*%
D12*
%TO.P,R8,1*%
%TO.N,+3V3*%
X187500000Y-122912500D03*
%TO.P,R8,2*%
%TO.N,/BTN_PARK*%
X187500000Y-121087500D03*
%TD*%
D23*
%TO.P,R_SB_PD,1*%
%TO.N,/ANT_SENSE_B*%
X156587500Y-133000000D03*
%TO.P,R_SB_PD,2*%
%TO.N,GND*%
X158412500Y-133000000D03*
%TD*%
D12*
%TO.P,R4,1*%
%TO.N,/VSAMPLE*%
X187500000Y-110912500D03*
%TO.P,R4,2*%
%TO.N,GND*%
X187500000Y-109087500D03*
%TD*%
D23*
%TO.P,R_SB,1*%
%TO.N,/ANT_SENSE_B_RAW*%
X150587500Y-133000000D03*
%TO.P,R_SB,2*%
%TO.N,/ANT_SENSE_B*%
X152412500Y-133000000D03*
%TD*%
D18*
%TO.P,C_EN,1*%
%TO.N,/ESP_EN*%
X133500000Y-120950000D03*
%TO.P,C_EN,2*%
%TO.N,GND*%
X133500000Y-119050000D03*
%TD*%
D20*
%TO.P,D2,1*%
%TO.N,/SWR_FWD*%
X182450000Y-106000000D03*
%TO.P,D2,2*%
%TO.N,/FWD_AC*%
X184550000Y-106000000D03*
%TD*%
D12*
%TO.P,R_TU,1*%
%TO.N,+3V3*%
X187500000Y-126912500D03*
%TO.P,R_TU,2*%
%TO.N,/TUNE_UP*%
X187500000Y-125087500D03*
%TD*%
D18*
%TO.P,C4,1*%
%TO.N,+3V3*%
X133500000Y-102950000D03*
%TO.P,C4,2*%
%TO.N,GND*%
X133500000Y-101050000D03*
%TD*%
D13*
%TO.P,C11,1*%
%TO.N,/CP_C1P*%
X175550000Y-88000000D03*
%TO.P,C11,2*%
%TO.N,/CP_C1N*%
X177450000Y-88000000D03*
%TD*%
D25*
%TO.P,U3,1*%
%TO.N,/CP_C1P*%
X179025000Y-94555000D03*
%TO.P,U3,2*%
%TO.N,/CP_VSP*%
X179025000Y-95825000D03*
%TO.P,U3,3*%
%TO.N,/CP_C1N*%
X179025000Y-97095000D03*
%TO.P,U3,4*%
%TO.N,/CP_C2P*%
X179025000Y-98365000D03*
%TO.P,U3,5*%
%TO.N,/CP_C2N*%
X179025000Y-99635000D03*
%TO.P,U3,6*%
%TO.N,/CP_VSN*%
X179025000Y-100905000D03*
%TO.P,U3,7*%
%TO.N,unconnected-(U3-T2OUT-Pad7)*%
X179025000Y-102175000D03*
%TO.P,U3,8*%
%TO.N,unconnected-(U3-R2IN-Pad8)*%
X179025000Y-103445000D03*
%TO.P,U3,9*%
%TO.N,unconnected-(U3-R2OUT-Pad9)*%
X183975000Y-103445000D03*
%TO.P,U3,10*%
%TO.N,unconnected-(U3-T2IN-Pad10)*%
X183975000Y-102175000D03*
%TO.P,U3,11*%
%TO.N,/RADIO_TX*%
X183975000Y-100905000D03*
%TO.P,U3,12*%
%TO.N,/RADIO_RX*%
X183975000Y-99635000D03*
%TO.P,U3,13*%
%TO.N,/RS232_RX*%
X183975000Y-98365000D03*
%TO.P,U3,14*%
%TO.N,/RS232_TX*%
X183975000Y-97095000D03*
%TO.P,U3,15*%
%TO.N,GND*%
X183975000Y-95825000D03*
%TO.P,U3,16*%
%TO.N,+3V3*%
X183975000Y-94555000D03*
%TD*%
D12*
%TO.P,R7,1*%
%TO.N,+3V3*%
X183500000Y-122912500D03*
%TO.P,R7,2*%
%TO.N,/BTN_TUNE*%
X183500000Y-121087500D03*
%TD*%
D18*
%TO.P,C8,1*%
%TO.N,/VSAMPLE*%
X183500000Y-110950000D03*
%TO.P,C8,2*%
%TO.N,GND*%
X183500000Y-109050000D03*
%TD*%
D26*
%TO.P,D1,1*%
%TO.N,GND*%
X142350000Y-84000000D03*
%TO.P,D1,2*%
%TO.N,+12V*%
X146650000Y-84000000D03*
%TD*%
D10*
%TO.P,J8,1*%
%TO.N,GND*%
X189500000Y-77000000D03*
D11*
%TO.P,J8,2*%
%TO.N,+3V3*%
X189500000Y-79540000D03*
%TO.P,J8,3*%
%TO.N,/DBG_TX*%
X189500000Y-82080000D03*
%TO.P,J8,4*%
%TO.N,/DBG_RX*%
X189500000Y-84620000D03*
%TD*%
D23*
%TO.P,R_SA_PU,1*%
%TO.N,+3V3*%
X144587500Y-133000000D03*
%TO.P,R_SA_PU,2*%
%TO.N,/ANT_SENSE_A*%
X146412500Y-133000000D03*
%TD*%
D22*
%TO.P,U4,1*%
%TO.N,+12V*%
X139880000Y-118810000D03*
D21*
%TO.P,U4,2*%
%TO.N,/MTR_SNS*%
X139880000Y-116270000D03*
%TO.P,U4,3*%
%TO.N,/MTR_IN1*%
X139880000Y-113730000D03*
%TO.P,U4,4*%
%TO.N,/MTR_IN2*%
X139880000Y-111190000D03*
%TO.P,U4,5*%
%TO.N,/MTR_OUT1*%
X155120000Y-117540000D03*
%TO.P,U4,6*%
%TO.N,/MTR_OUT2*%
X155120000Y-112460000D03*
%TD*%
D22*
%TO.P,U1,1*%
%TO.N,+12V*%
X163960000Y-92000000D03*
D21*
%TO.P,U1,2*%
%TO.N,GND*%
X166500000Y-92000000D03*
%TO.P,U1,3*%
%TO.N,+3V3*%
X169040000Y-92000000D03*
%TD*%
M02*
