%TF.GenerationSoftware,KiCad,Pcbnew,10.0.3*%
%TF.CreationDate,2026-06-14T19:08:41-04:00*%
%TF.ProjectId,tuner,74756e65-722e-46b6-9963-61645f706362,rev?*%
%TF.SameCoordinates,Original*%
%TF.FileFunction,Copper,L1,Top*%
%TF.FilePolarity,Positive*%
%FSLAX46Y46*%
G04 Gerber Fmt 4.6, Leading zero omitted, Abs format (unit mm)*
G04 Created by KiCad (PCBNEW 10.0.3) date 2026-06-14 19:08:41*
%MOMM*%
%LPD*%
G01*
G04 APERTURE LIST*
G04 Aperture macros list*
%AMRoundRect*
0 Rectangle with rounded corners*
0 $1 Rounding radius*
0 $2 $3 $4 $5 $6 $7 $8 $9 X,Y pos of 4 corners*
0 Add a 4 corners polygon primitive as box body*
4,1,4,$2,$3,$4,$5,$6,$7,$8,$9,$2,$3,0*
0 Add four circle primitives for the rounded corners*
1,1,$1+$1,$2,$3*
1,1,$1+$1,$4,$5*
1,1,$1+$1,$6,$7*
1,1,$1+$1,$8,$9*
0 Add four rect primitives between the rounded corners*
20,1,$1+$1,$2,$3,$4,$5,0*
20,1,$1+$1,$4,$5,$6,$7,0*
20,1,$1+$1,$6,$7,$8,$9,0*
20,1,$1+$1,$8,$9,$2,$3,0*%
G04 Aperture macros list end*
%TA.AperFunction,SMDPad,CuDef*%
%ADD10RoundRect,0.250000X0.475000X-0.250000X0.475000X0.250000X-0.475000X0.250000X-0.475000X-0.250000X0*%
%TD*%
%TA.AperFunction,SMDPad,CuDef*%
%ADD11RoundRect,0.250000X1.425000X-0.362500X1.425000X0.362500X-1.425000X0.362500X-1.425000X-0.362500X0*%
%TD*%
%TA.AperFunction,SMDPad,CuDef*%
%ADD12RoundRect,0.112500X-0.187500X-0.112500X0.187500X-0.112500X0.187500X0.112500X-0.187500X0.112500X0*%
%TD*%
%TA.AperFunction,SMDPad,CuDef*%
%ADD13RoundRect,0.250000X-0.250000X-0.475000X0.250000X-0.475000X0.250000X0.475000X-0.250000X0.475000X0*%
%TD*%
%TA.AperFunction,SMDPad,CuDef*%
%ADD14RoundRect,0.250000X0.450000X-0.262500X0.450000X0.262500X-0.450000X0.262500X-0.450000X-0.262500X0*%
%TD*%
%TA.AperFunction,ComponentPad*%
%ADD15R,1.700000X1.700000*%
%TD*%
%TA.AperFunction,ComponentPad*%
%ADD16C,1.700000*%
%TD*%
%TA.AperFunction,SMDPad,CuDef*%
%ADD17RoundRect,0.150000X-0.587500X-0.150000X0.587500X-0.150000X0.587500X0.150000X-0.587500X0.150000X0*%
%TD*%
%TA.AperFunction,SMDPad,CuDef*%
%ADD18RoundRect,0.250000X-1.250000X-0.550000X1.250000X-0.550000X1.250000X0.550000X-1.250000X0.550000X0*%
%TD*%
%TA.AperFunction,SMDPad,CuDef*%
%ADD19RoundRect,0.250000X-1.000000X-0.900000X1.000000X-0.900000X1.000000X0.900000X-1.000000X0.900000X0*%
%TD*%
%TA.AperFunction,SMDPad,CuDef*%
%ADD20RoundRect,0.250000X-0.312500X-1.450000X0.312500X-1.450000X0.312500X1.450000X-0.312500X1.450000X0*%
%TD*%
%TA.AperFunction,ComponentPad*%
%ADD21O,2.800000X1.800000*%
%TD*%
%TA.AperFunction,ComponentPad*%
%ADD22R,1.800000X1.800000*%
%TD*%
%TA.AperFunction,ComponentPad*%
%ADD23C,1.800000*%
%TD*%
%TA.AperFunction,SMDPad,CuDef*%
%ADD24RoundRect,0.150000X-0.825000X-0.150000X0.825000X-0.150000X0.825000X0.150000X-0.825000X0.150000X0*%
%TD*%
%TA.AperFunction,SMDPad,CuDef*%
%ADD25RoundRect,0.250000X-1.500000X-0.550000X1.500000X-0.550000X1.500000X0.550000X-1.500000X0.550000X0*%
%TD*%
%TA.AperFunction,SMDPad,CuDef*%
%ADD26RoundRect,0.150000X-0.512500X-0.150000X0.512500X-0.150000X0.512500X0.150000X-0.512500X0.150000X0*%
%TD*%
%TA.AperFunction,ViaPad*%
%ADD27C,0.800000*%
%TD*%
%TA.AperFunction,Conductor*%
%ADD28C,0.300000*%
%TD*%
%TA.AperFunction,Conductor*%
%ADD29C,0.600000*%
%TD*%
%TA.AperFunction,Conductor*%
%ADD30C,1.000000*%
%TD*%
%TA.AperFunction,Conductor*%
%ADD31C,0.800000*%
%TD*%
G04 APERTURE END LIST*
D10*
%TO.P,C9,1*%
%TO.N,/SWR_FWD*%
X191500000Y-110950000D03*
%TO.P,C9,2*%
%TO.N,GND*%
X191500000Y-109050000D03*
%TD*%
%TO.P,C4,1*%
%TO.N,+3V3*%
X133500000Y-102950000D03*
%TO.P,C4,2*%
%TO.N,GND*%
X133500000Y-101050000D03*
%TD*%
D11*
%TO.P,R_SH,1*%
%TO.N,/MTR_SNS*%
X162500000Y-115962500D03*
%TO.P,R_SH,2*%
%TO.N,GND*%
X162500000Y-110037500D03*
%TD*%
D12*
%TO.P,D2,1*%
%TO.N,/SWR_FWD*%
X182450000Y-106000000D03*
%TO.P,D2,2*%
%TO.N,/FWD_AC*%
X184550000Y-106000000D03*
%TD*%
D13*
%TO.P,C11,1*%
%TO.N,/CP_C1P*%
X175550000Y-88000000D03*
%TO.P,C11,2*%
%TO.N,/CP_C1N*%
X177450000Y-88000000D03*
%TD*%
D14*
%TO.P,R_CIV2,1*%
%TO.N,/CIV_BUS*%
X187500000Y-118912500D03*
%TO.P,R_CIV2,2*%
%TO.N,/CIV_Q2B*%
X187500000Y-117087500D03*
%TD*%
%TO.P,R8,1*%
%TO.N,+3V3*%
X187500000Y-122912500D03*
%TO.P,R8,2*%
%TO.N,/BTN_PARK*%
X187500000Y-121087500D03*
%TD*%
D13*
%TO.P,C6,1*%
%TO.N,+12V*%
X161550000Y-103000000D03*
%TO.P,C6,2*%
%TO.N,GND*%
X163450000Y-103000000D03*
%TD*%
D14*
%TO.P,R_TU,1*%
%TO.N,+3V3*%
X187500000Y-126912500D03*
%TO.P,R_TU,2*%
%TO.N,/TUNE_UP*%
X187500000Y-125087500D03*
%TD*%
%TO.P,R5,1*%
%TO.N,/SWR_FWD*%
X187500000Y-114912500D03*
%TO.P,R5,2*%
%TO.N,GND*%
X187500000Y-113087500D03*
%TD*%
D10*
%TO.P,C10,1*%
%TO.N,/SWR_REV*%
X183500000Y-114950000D03*
%TO.P,C10,2*%
%TO.N,GND*%
X183500000Y-113050000D03*
%TD*%
D13*
%TO.P,C13,1*%
%TO.N,/CP_VSP*%
X183550000Y-88000000D03*
%TO.P,C13,2*%
%TO.N,+3V3*%
X185450000Y-88000000D03*
%TD*%
D15*
%TO.P,J6,1*%
%TO.N,/MTR_OUT1*%
X157500000Y-77000000D03*
D16*
%TO.P,J6,2*%
%TO.N,/MTR_OUT2*%
X157500000Y-79540000D03*
%TD*%
D10*
%TO.P,C5,1*%
%TO.N,+3V3*%
X133500000Y-108950000D03*
%TO.P,C5,2*%
%TO.N,GND*%
X133500000Y-107050000D03*
%TD*%
D15*
%TO.P,SW1,1*%
%TO.N,/BTN_TUNE*%
X145500000Y-128000000D03*
D16*
%TO.P,SW1,2*%
%TO.N,GND*%
X145500000Y-130540000D03*
%TD*%
D10*
%TO.P,C8,1*%
%TO.N,/VSAMPLE*%
X183500000Y-110950000D03*
%TO.P,C8,2*%
%TO.N,GND*%
X183500000Y-109050000D03*
%TD*%
D17*
%TO.P,Q1,1*%
%TO.N,/CIV_Q1B*%
X174562500Y-108050000D03*
%TO.P,Q1,2*%
%TO.N,GND*%
X174562500Y-109950000D03*
%TO.P,Q1,3*%
%TO.N,/CIV_BUS*%
X176437500Y-109000000D03*
%TD*%
D13*
%TO.P,C12,1*%
%TO.N,/CP_C2P*%
X179550000Y-88000000D03*
%TO.P,C12,2*%
%TO.N,/CP_C2N*%
X181450000Y-88000000D03*
%TD*%
%TO.P,C3,1*%
%TO.N,+3V3*%
X171550000Y-100000000D03*
%TO.P,C3,2*%
%TO.N,GND*%
X173450000Y-100000000D03*
%TD*%
D10*
%TO.P,C_EN,1*%
%TO.N,/ESP_EN*%
X133500000Y-120950000D03*
%TO.P,C_EN,2*%
%TO.N,GND*%
X133500000Y-119050000D03*
%TD*%
D15*
%TO.P,J8,1*%
%TO.N,GND*%
X189500000Y-77000000D03*
D16*
%TO.P,J8,2*%
%TO.N,+3V3*%
X189500000Y-79540000D03*
%TO.P,J8,3*%
%TO.N,/DBG_TX*%
X189500000Y-82080000D03*
%TO.P,J8,4*%
%TO.N,/DBG_RX*%
X189500000Y-84620000D03*
%TD*%
D14*
%TO.P,R6,1*%
%TO.N,/SWR_REV*%
X191500000Y-114912500D03*
%TO.P,R6,2*%
%TO.N,GND*%
X191500000Y-113087500D03*
%TD*%
D18*
%TO.P,C2,1*%
%TO.N,+3V3*%
X147300000Y-94000000D03*
%TO.P,C2,2*%
%TO.N,GND*%
X151700000Y-94000000D03*
%TD*%
D15*
%TO.P,J_TUNE,1*%
%TO.N,/TUNE_UP*%
X167500000Y-128000000D03*
D16*
%TO.P,J_TUNE,2*%
%TO.N,GND*%
X167500000Y-130540000D03*
%TO.P,J_TUNE,3*%
%TO.N,/TUNE_DOWN*%
X167500000Y-133080000D03*
%TD*%
D14*
%TO.P,R_EN,1*%
%TO.N,+3V3*%
X133500000Y-114912500D03*
%TO.P,R_EN,2*%
%TO.N,/ESP_EN*%
X133500000Y-113087500D03*
%TD*%
D15*
%TO.P,SW2,1*%
%TO.N,/BTN_PARK*%
X156500000Y-128000000D03*
D16*
%TO.P,SW2,2*%
%TO.N,GND*%
X156500000Y-130540000D03*
%TD*%
D14*
%TO.P,R4,1*%
%TO.N,/VSAMPLE*%
X187500000Y-110912500D03*
%TO.P,R4,2*%
%TO.N,GND*%
X187500000Y-109087500D03*
%TD*%
D19*
%TO.P,D1,1*%
%TO.N,GND*%
X142350000Y-84000000D03*
%TO.P,D1,2*%
%TO.N,+12V*%
X146650000Y-84000000D03*
%TD*%
D20*
%TO.P,F1,1*%
%TO.N,+12V*%
X134362500Y-84000000D03*
%TO.P,F1,2*%
%TO.N,/12V_FUSED_IN*%
X138637500Y-84000000D03*
%TD*%
D14*
%TO.P,R_CIV3,1*%
%TO.N,+3V3*%
X191500000Y-118912500D03*
%TO.P,R_CIV3,2*%
%TO.N,/CIV_RX*%
X191500000Y-117087500D03*
%TD*%
D21*
%TO.P,J5,R*%
%TO.N,/SWR_REV*%
X178500000Y-85900000D03*
%TO.P,J5,S*%
%TO.N,GND*%
X176500000Y-78000000D03*
%TO.P,J5,T*%
%TO.N,/SWR_FWD*%
X178500000Y-80400000D03*
%TD*%
D22*
%TO.P,U4,1*%
%TO.N,+12V*%
X139880000Y-118810000D03*
D23*
%TO.P,U4,2*%
%TO.N,/MTR_SNS*%
X139880000Y-116270000D03*
%TO.P,U4,3*%
%TO.N,/MTR_IN1*%
X139880000Y-113730000D03*
%TO.P,U4,4*%
%TO.N,/MTR_IN2*%
X139880000Y-111190000D03*
%TO.P,U4,5*%
%TO.N,/MTR_OUT1*%
X155120000Y-117540000D03*
%TO.P,U4,6*%
%TO.N,/MTR_OUT2*%
X155120000Y-112460000D03*
%TD*%
D14*
%TO.P,R12,1*%
%TO.N,+3V3*%
X191500000Y-122912500D03*
%TO.P,R12,2*%
%TO.N,/I2C_SDA*%
X191500000Y-121087500D03*
%TD*%
%TO.P,R3,1*%
%TO.N,/FWD_AC*%
X169500000Y-122912500D03*
%TO.P,R3,2*%
%TO.N,/REV_AC*%
X169500000Y-121087500D03*
%TD*%
D22*
%TO.P,T1,1*%
%TO.N,/RF_LINE_IN*%
X165880000Y-118540000D03*
D23*
%TO.P,T1,2*%
%TO.N,/RF_LINE_OUT*%
X165880000Y-113460000D03*
%TO.P,T1,3*%
%TO.N,/FWD_AC*%
X181120000Y-119810000D03*
%TO.P,T1,4*%
%TO.N,/VSAMPLE*%
X181120000Y-116000000D03*
%TO.P,T1,5*%
%TO.N,/REV_AC*%
X181120000Y-112190000D03*
%TD*%
D12*
%TO.P,D3,1*%
%TO.N,/SWR_REV*%
X188450000Y-106000000D03*
%TO.P,D3,2*%
%TO.N,/REV_AC*%
X190550000Y-106000000D03*
%TD*%
D15*
%TO.P,J_OLED,1*%
%TO.N,GND*%
X131500000Y-128000000D03*
D16*
%TO.P,J_OLED,2*%
%TO.N,+3V3*%
X131500000Y-130540000D03*
%TO.P,J_OLED,3*%
%TO.N,/I2C_SCL*%
X131500000Y-133080000D03*
%TO.P,J_OLED,4*%
%TO.N,/I2C_SDA*%
X131500000Y-135620000D03*
%TD*%
D13*
%TO.P,C15,1*%
%TO.N,+3V3*%
X191550000Y-88000000D03*
%TO.P,C15,2*%
%TO.N,GND*%
X193450000Y-88000000D03*
%TD*%
D14*
%TO.P,R_IO12,1*%
%TO.N,/IO12_STRAP*%
X133500000Y-126912500D03*
%TO.P,R_IO12,2*%
%TO.N,GND*%
X133500000Y-125087500D03*
%TD*%
D23*
%TO.P,U2,1*%
%TO.N,GND*%
X126930000Y-89760000D03*
%TO.P,U2,2*%
%TO.N,+3V3*%
X126930000Y-87220000D03*
D22*
%TO.P,U2,3*%
%TO.N,/ESP_EN*%
X104070000Y-87220000D03*
D23*
%TO.P,U2,4*%
%TO.N,unconnected-(U2-SENSOR_VP-Pad4)*%
X104070000Y-89760000D03*
%TO.P,U2,5*%
%TO.N,unconnected-(U2-SENSOR_VN-Pad5)*%
X104070000Y-92300000D03*
%TO.P,U2,6*%
%TO.N,/SWR_FWD*%
X104070000Y-94840000D03*
%TO.P,U2,7*%
%TO.N,/SWR_REV*%
X104070000Y-97380000D03*
%TO.P,U2,8*%
%TO.N,/BTN_TUNE*%
X104070000Y-99920000D03*
%TO.P,U2,9*%
%TO.N,/BTN_PARK*%
X104070000Y-102460000D03*
%TO.P,U2,10*%
%TO.N,/MTR_IN1*%
X104070000Y-105000000D03*
%TO.P,U2,11*%
%TO.N,/MTR_IN2*%
X104070000Y-107540000D03*
%TO.P,U2,12*%
%TO.N,/MTR_ISENSE*%
X104070000Y-110080000D03*
%TO.P,U2,13*%
%TO.N,/CIV_RX*%
X104070000Y-112620000D03*
%TO.P,U2,14*%
%TO.N,/IO12_STRAP*%
X104070000Y-115160000D03*
%TO.P,U2,15*%
%TO.N,GND*%
X104070000Y-117700000D03*
%TO.P,U2,16*%
%TO.N,/CIV_TX*%
X104070000Y-120240000D03*
%TO.P,U2,23*%
%TO.N,unconnected-(U2-IO15-Pad23)*%
X126930000Y-92300000D03*
%TO.P,U2,24*%
%TO.N,unconnected-(U2-IO2-Pad24)*%
X126930000Y-94840000D03*
%TO.P,U2,26*%
%TO.N,/I2C_SDA*%
X126930000Y-97380000D03*
%TO.P,U2,27*%
%TO.N,/RADIO_RX*%
X126930000Y-99920000D03*
%TO.P,U2,28*%
%TO.N,/RADIO_TX*%
X126930000Y-102460000D03*
%TO.P,U2,29*%
%TO.N,/I2C_SCL*%
X126930000Y-105000000D03*
%TO.P,U2,30*%
%TO.N,unconnected-(U2-IO18-Pad30)*%
X126930000Y-107540000D03*
%TO.P,U2,31*%
%TO.N,unconnected-(U2-IO19-Pad31)*%
X126930000Y-110080000D03*
%TO.P,U2,33*%
%TO.N,unconnected-(U2-IO21-Pad33)*%
X126930000Y-112620000D03*
%TO.P,U2,34*%
%TO.N,/DBG_RX*%
X126930000Y-115160000D03*
%TO.P,U2,35*%
%TO.N,/DBG_TX*%
X126930000Y-117700000D03*
%TO.P,U2,36*%
%TO.N,/TUNE_UP*%
X126930000Y-120240000D03*
%TO.P,U2,37*%
%TO.N,/TUNE_DOWN*%
X126930000Y-122780000D03*
%TO.P,U2,VIN*%
%TO.N,N/C*%
X104070000Y-122780000D03*
%TD*%
D15*
%TO.P,J3,1*%
%TO.N,/RF_LINE_IN*%
X129500000Y-77000000D03*
D16*
%TO.P,J3,2*%
%TO.N,GND*%
X129500000Y-79540000D03*
%TD*%
D13*
%TO.P,C_INA,1*%
%TO.N,+3V3*%
X155550000Y-106000000D03*
%TO.P,C_INA,2*%
%TO.N,GND*%
X157450000Y-106000000D03*
%TD*%
D14*
%TO.P,R13,1*%
%TO.N,+3V3*%
X183500000Y-126912500D03*
%TO.P,R13,2*%
%TO.N,/I2C_SCL*%
X183500000Y-125087500D03*
%TD*%
D24*
%TO.P,U3,1*%
%TO.N,/CP_C1P*%
X179025000Y-94555000D03*
%TO.P,U3,2*%
%TO.N,/CP_VSP*%
X179025000Y-95825000D03*
%TO.P,U3,3*%
%TO.N,/CP_C1N*%
X179025000Y-97095000D03*
%TO.P,U3,4*%
%TO.N,/CP_C2P*%
X179025000Y-98365000D03*
%TO.P,U3,5*%
%TO.N,/CP_C2N*%
X179025000Y-99635000D03*
%TO.P,U3,6*%
%TO.N,/CP_VSN*%
X179025000Y-100905000D03*
%TO.P,U3,7*%
%TO.N,unconnected-(U3-T2OUT-Pad7)*%
X179025000Y-102175000D03*
%TO.P,U3,8*%
%TO.N,unconnected-(U3-R2IN-Pad8)*%
X179025000Y-103445000D03*
%TO.P,U3,9*%
%TO.N,unconnected-(U3-R2OUT-Pad9)*%
X183975000Y-103445000D03*
%TO.P,U3,10*%
%TO.N,unconnected-(U3-T2IN-Pad10)*%
X183975000Y-102175000D03*
%TO.P,U3,11*%
%TO.N,/RADIO_TX*%
X183975000Y-100905000D03*
%TO.P,U3,12*%
%TO.N,/RADIO_RX*%
X183975000Y-99635000D03*
%TO.P,U3,13*%
%TO.N,/RS232_RX*%
X183975000Y-98365000D03*
%TO.P,U3,14*%
%TO.N,/RS232_TX*%
X183975000Y-97095000D03*
%TO.P,U3,15*%
%TO.N,GND*%
X183975000Y-95825000D03*
%TO.P,U3,16*%
%TO.N,+3V3*%
X183975000Y-94555000D03*
%TD*%
D14*
%TO.P,R7,1*%
%TO.N,+3V3*%
X183500000Y-122912500D03*
%TO.P,R7,2*%
%TO.N,/BTN_TUNE*%
X183500000Y-121087500D03*
%TD*%
D25*
%TO.P,C_VM,1*%
%TO.N,+12V*%
X150700000Y-102000000D03*
%TO.P,C_VM,2*%
%TO.N,GND*%
X156300000Y-102000000D03*
%TD*%
D13*
%TO.P,C14,1*%
%TO.N,/CP_VSN*%
X187550000Y-88000000D03*
%TO.P,C14,2*%
%TO.N,GND*%
X189450000Y-88000000D03*
%TD*%
D14*
%TO.P,R_TD,1*%
%TO.N,+3V3*%
X191500000Y-126912500D03*
%TO.P,R_TD,2*%
%TO.N,/TUNE_DOWN*%
X191500000Y-125087500D03*
%TD*%
D10*
%TO.P,C7,1*%
%TO.N,/VSAMPLE*%
X169500000Y-116950000D03*
%TO.P,C7,2*%
%TO.N,/RF_LINE_OUT*%
X169500000Y-115050000D03*
%TD*%
D15*
%TO.P,J4,1*%
%TO.N,/RF_LINE_OUT*%
X137500000Y-77000000D03*
D16*
%TO.P,J4,2*%
%TO.N,GND*%
X137500000Y-79540000D03*
%TD*%
D25*
%TO.P,C1,1*%
%TO.N,+12V*%
X134700000Y-94000000D03*
%TO.P,C1,2*%
%TO.N,GND*%
X140300000Y-94000000D03*
%TD*%
D14*
%TO.P,R_CIV1,1*%
%TO.N,/CIV_TX*%
X183500000Y-118912500D03*
%TO.P,R_CIV1,2*%
%TO.N,/CIV_Q1B*%
X183500000Y-117087500D03*
%TD*%
D15*
%TO.P,J2,1*%
%TO.N,GND*%
X194500000Y-93000000D03*
D16*
%TO.P,J2,2*%
%TO.N,/RS232_TX*%
X194500000Y-95540000D03*
%TO.P,J2,3*%
%TO.N,/RS232_RX*%
X194500000Y-98080000D03*
%TO.P,J2,4*%
%TO.N,/CIV_BUS*%
X194500000Y-100620000D03*
%TO.P,J2,5*%
%TO.N,+3V3*%
X194500000Y-103160000D03*
%TO.P,J2,6*%
%TO.N,GND*%
X194500000Y-105700000D03*
%TD*%
D17*
%TO.P,Q2,1*%
%TO.N,/CIV_Q2B*%
X178562500Y-108050000D03*
%TO.P,Q2,2*%
%TO.N,GND*%
X178562500Y-109950000D03*
%TO.P,Q2,3*%
%TO.N,/CIV_RX*%
X180437500Y-109000000D03*
%TD*%
D15*
%TO.P,J1,1*%
%TO.N,/12V_FUSED_IN*%
X147500000Y-77000000D03*
D16*
%TO.P,J1,2*%
%TO.N,GND*%
X147500000Y-79540000D03*
%TD*%
D26*
%TO.P,U6,1*%
%TO.N,/MTR_ISENSE*%
X155362500Y-109050000D03*
%TO.P,U6,2*%
%TO.N,GND*%
X155362500Y-110000000D03*
%TO.P,U6,3*%
%TO.N,/MTR_SNS*%
X155362500Y-110950000D03*
%TO.P,U6,4*%
%TO.N,GND*%
X157637500Y-110950000D03*
%TO.P,U6,5*%
%TO.N,+3V3*%
X157637500Y-109050000D03*
%TD*%
D22*
%TO.P,U1,1*%
%TO.N,+12V*%
X160150000Y-94540000D03*
D23*
%TO.P,U1,2*%
%TO.N,GND*%
X160150000Y-89460000D03*
%TO.P,U1,3*%
%TO.N,+3V3*%
X172850000Y-94540000D03*
%TO.P,U1,4*%
%TO.N,GND*%
X172850000Y-89460000D03*
%TD*%
D27*
%TO.N,/SWR_FWD*%
X182047600Y-104839300D03*
X190222600Y-110223100D03*
%TO.N,GND*%
X172724300Y-109575300D03*
X189082900Y-113687400D03*
X178444800Y-111104700D03*
X159181500Y-111075300D03*
X165834000Y-102307600D03*
X185995200Y-95856200D03*
X140304200Y-84116500D03*
X135559100Y-99997700D03*
X180976400Y-114087300D03*
X188068000Y-86387000D03*
X190234500Y-111980100D03*
X134787900Y-105580900D03*
X135012100Y-122972400D03*
X196618800Y-87450000D03*
X134660400Y-117393400D03*
X158815500Y-105995900D03*
X153337600Y-109842500D03*
X138866000Y-96000500D03*
X188640400Y-108170500D03*
X191728900Y-106774500D03*
X181974800Y-108875000D03*
X174714500Y-99997700D03*
X161989400Y-111725500D03*
X153500100Y-101876900D03*
X153955100Y-93976900D03*
%TO.N,+3V3*%
X130600700Y-103050000D03*
X191944000Y-86526300D03*
%TO.N,/FWD_AC*%
X184749000Y-107247900D03*
%TO.N,/CIV_BUS*%
X186172700Y-117781600D03*
%TO.N,/CIV_Q2B*%
X185860400Y-116340700D03*
X185870600Y-106974500D03*
%TO.N,/SWR_REV*%
X188465900Y-105114000D03*
X190141000Y-113274700D03*
%TO.N,/ESP_EN*%
X132120200Y-113299000D03*
%TO.N,/TUNE_DOWN*%
X129288000Y-132753600D03*
%TO.N,/CIV_RX*%
X190493300Y-116080800D03*
X180437500Y-110000800D03*
%TO.N,/I2C_SDA*%
X192867700Y-122455200D03*
%TO.N,/REV_AC*%
X173751300Y-121405400D03*
%TO.N,/I2C_SCL*%
X184897300Y-124989200D03*
%TO.N,/MTR_ISENSE*%
X154039800Y-108782500D03*
%TO.N,/CIV_TX*%
X184872700Y-119087500D03*
%TO.N,/RADIO_RX*%
X182347500Y-99471800D03*
%TO.N,/RADIO_TX*%
X182244600Y-100523600D03*
%TD*%
%TO.N,/SWR_FWD*%
D28*
X189106300Y-110950000D02*
X190222600Y-110950000D01*
X190222600Y-110950000D02*
X191500000Y-110950000D01*
X190222600Y-110223100D02*
X190222600Y-110950000D01*
X188056300Y-112000000D02*
X189106300Y-110950000D01*
X182047600Y-105597600D02*
X182450000Y-106000000D01*
X186394700Y-112498900D02*
X186893600Y-112000000D01*
X186893600Y-112000000D02*
X188056300Y-112000000D01*
X186394700Y-113807200D02*
X186394700Y-112498900D01*
X182047600Y-104839300D02*
X182047600Y-105597600D01*
X187500000Y-114912500D02*
X186394700Y-113807200D01*
%TO.N,GND*%
X140304200Y-84116500D02*
X142233500Y-84116500D01*
X142233500Y-84116500D02*
X142350000Y-84000000D01*
X164142400Y-102307600D02*
X163450000Y-103000000D01*
X155205000Y-109842500D02*
X153337600Y-109842500D01*
X190234500Y-111980100D02*
X190392600Y-111980100D01*
X153955100Y-93976900D02*
X151723100Y-93976900D01*
X135559100Y-99997700D02*
X134552300Y-99997700D01*
X196618800Y-87450000D02*
X194000000Y-87450000D01*
X188417000Y-108170500D02*
X188640400Y-108170500D01*
X180976400Y-114087300D02*
X181568700Y-114087300D01*
X153500100Y-101876900D02*
X156176900Y-101876900D01*
X172724300Y-109575300D02*
X174187800Y-109575300D01*
X191500000Y-107003400D02*
X191500000Y-109050000D01*
X174187800Y-109575300D02*
X174562500Y-109950000D01*
X133500000Y-118553800D02*
X133500000Y-119050000D01*
X178562500Y-110987000D02*
X178562500Y-109950000D01*
X161989400Y-111725500D02*
X162500000Y-111214900D01*
X155362500Y-110000000D02*
X155205000Y-109842500D01*
X189082900Y-113687400D02*
X188099900Y-113687400D01*
X183325000Y-108875000D02*
X183500000Y-109050000D01*
X190392600Y-111980100D02*
X191500000Y-113087500D01*
X181974800Y-108875000D02*
X183325000Y-108875000D01*
X194000000Y-87450000D02*
X193450000Y-88000000D01*
X185995200Y-95856200D02*
X184006200Y-95856200D01*
X157454100Y-105995900D02*
X157450000Y-106000000D01*
X187500000Y-109087500D02*
X188417000Y-108170500D01*
X134552300Y-99997700D02*
X133500000Y-101050000D01*
X165834000Y-102307600D02*
X164142400Y-102307600D01*
X174714500Y-99997700D02*
X173452300Y-99997700D01*
X135012100Y-122972400D02*
X133500000Y-124484500D01*
X162500000Y-111214900D02*
X162500000Y-110037500D01*
X134660400Y-117393400D02*
X133500000Y-118553800D01*
X159181500Y-111075300D02*
X157762800Y-111075300D01*
X151723100Y-93976900D02*
X151700000Y-94000000D01*
X157762800Y-111075300D02*
X157637500Y-110950000D01*
X184006200Y-95856200D02*
X183975000Y-95825000D01*
X140300000Y-94566500D02*
X140300000Y-94000000D01*
X134787900Y-105580900D02*
X133500000Y-106868800D01*
X156176900Y-101876900D02*
X156300000Y-102000000D01*
X191728900Y-106774500D02*
X191500000Y-107003400D01*
X189450000Y-87769000D02*
X189450000Y-88000000D01*
X133500000Y-124484500D02*
X133500000Y-125087500D01*
X138866000Y-96000500D02*
X140300000Y-94566500D01*
X181568700Y-114087300D02*
X182606000Y-113050000D01*
X188068000Y-86387000D02*
X189450000Y-87769000D01*
X188099900Y-113687400D02*
X187500000Y-113087500D01*
X133500000Y-106868800D02*
X133500000Y-107050000D01*
X158815500Y-105995900D02*
X157454100Y-105995900D01*
X173452300Y-99997700D02*
X173450000Y-100000000D01*
X178444800Y-111104700D02*
X178562500Y-110987000D01*
X182606000Y-113050000D02*
X183500000Y-113050000D01*
%TO.N,+3V3*%
D29*
X192864100Y-117686100D02*
X192864100Y-104795900D01*
X157637500Y-109050000D02*
X157637500Y-108087500D01*
X191550000Y-88000000D02*
X191550000Y-86920300D01*
X191422600Y-122912500D02*
X191500000Y-122912500D01*
X192864100Y-104795900D02*
X194500000Y-103160000D01*
X133400000Y-103050000D02*
X133500000Y-102950000D01*
X130600700Y-103050000D02*
X132197800Y-103050000D01*
X157637500Y-108087500D02*
X155550000Y-106000000D01*
X187522500Y-126912500D02*
X188752700Y-125682300D01*
X159021500Y-93088300D02*
X168798300Y-93088300D01*
X191500000Y-122912500D02*
X188752700Y-122912500D01*
X185450000Y-89307200D02*
X185450000Y-88000000D01*
X134773500Y-110223500D02*
X133500000Y-108950000D01*
X132197800Y-107647800D02*
X132197800Y-103050000D01*
X134773500Y-113720100D02*
X134773500Y-110223500D01*
X171550000Y-95840000D02*
X171550000Y-100000000D01*
X133581100Y-114912500D02*
X134773500Y-113720100D01*
X147300000Y-94000000D02*
X148705500Y-95405500D01*
X190244600Y-121734500D02*
X191422600Y-122912500D01*
X168798300Y-93088300D02*
X171550000Y-95840000D01*
X190244600Y-120167900D02*
X190244600Y-121734500D01*
X191550000Y-86920300D02*
X191944000Y-86526300D01*
X188752700Y-125682300D02*
X188752700Y-122912500D01*
X190242800Y-89307200D02*
X185450000Y-89307200D01*
X133500000Y-114912500D02*
X133581100Y-114912500D01*
X183500000Y-126912500D02*
X187500000Y-126912500D01*
X192780100Y-124192600D02*
X191500000Y-122912500D01*
X188752700Y-122912500D02*
X187500000Y-122912500D01*
X191500000Y-126912500D02*
X191564700Y-126912500D01*
X191637700Y-118912500D02*
X192864100Y-117686100D01*
X157637500Y-108087500D02*
X163462500Y-108087500D01*
X191500000Y-118912500D02*
X191637700Y-118912500D01*
X191550000Y-88000000D02*
X190242800Y-89307200D01*
X183975000Y-94555000D02*
X185450000Y-93080000D01*
X191500000Y-118912500D02*
X190244600Y-120167900D01*
X163462500Y-108087500D02*
X171550000Y-100000000D01*
X191564700Y-126912500D02*
X192780100Y-125697100D01*
X148705500Y-95405500D02*
X156704300Y-95405500D01*
X132197800Y-103050000D02*
X133400000Y-103050000D01*
X185450000Y-93080000D02*
X185450000Y-89307200D01*
X183500000Y-122912500D02*
X187500000Y-122912500D01*
X156704300Y-95405500D02*
X159021500Y-93088300D01*
X172850000Y-94540000D02*
X171550000Y-95840000D01*
X192780100Y-125697100D02*
X192780100Y-124192600D01*
X187500000Y-126912500D02*
X187522500Y-126912500D01*
X133500000Y-108950000D02*
X132197800Y-107647800D01*
%TO.N,/MTR_SNS*%
X155362500Y-110950000D02*
X154488800Y-110950000D01*
X150446300Y-116270000D02*
X153644800Y-113071500D01*
X154488800Y-110950000D02*
X153644800Y-111794000D01*
X156535800Y-115962500D02*
X162500000Y-115962500D01*
X153644800Y-111794000D02*
X153644800Y-113071500D01*
X139880000Y-116270000D02*
X150446300Y-116270000D01*
X153644800Y-113071500D02*
X156535800Y-115962500D01*
%TO.N,/FWD_AC*%
D28*
X184749000Y-106199000D02*
X184749000Y-107247900D01*
X178666500Y-122263500D02*
X181120000Y-119810000D01*
X169500000Y-122912500D02*
X170149000Y-122263500D01*
X184550000Y-106000000D02*
X184749000Y-106199000D01*
X170149000Y-122263500D02*
X178666500Y-122263500D01*
%TO.N,/CP_C1P*%
X179025000Y-94555000D02*
X179025000Y-91475000D01*
X179025000Y-91475000D02*
X175550000Y-88000000D01*
%TO.N,/CP_C1N*%
X180423900Y-96210800D02*
X180423900Y-90973900D01*
X179539700Y-97095000D02*
X180423900Y-96210800D01*
X179025000Y-97095000D02*
X179539700Y-97095000D01*
X180423900Y-90973900D02*
X177450000Y-88000000D01*
%TO.N,/CIV_BUS*%
X187303600Y-118912500D02*
X186172700Y-117781600D01*
X190965000Y-104155000D02*
X182497100Y-104155000D01*
X182379700Y-104037600D02*
X181033300Y-104037600D01*
X182497100Y-104155000D02*
X182379700Y-104037600D01*
X194500000Y-100620000D02*
X190965000Y-104155000D01*
X181033300Y-104037600D02*
X176437500Y-108633400D01*
X176437500Y-108633400D02*
X176437500Y-109000000D01*
X187500000Y-118912500D02*
X187303600Y-118912500D01*
%TO.N,/CIV_Q2B*%
X186428400Y-116908700D02*
X187321200Y-116908700D01*
X185137700Y-108050000D02*
X185870600Y-107317100D01*
X185860400Y-116340700D02*
X186428400Y-116908700D01*
X178562500Y-108050000D02*
X185137700Y-108050000D01*
X187321200Y-116908700D02*
X187500000Y-117087500D01*
X185870600Y-107317100D02*
X185870600Y-106974500D01*
%TO.N,/BTN_PARK*%
X156500000Y-128000000D02*
X157751700Y-128000000D01*
X159555100Y-126196600D02*
X167953400Y-126196600D01*
X179949000Y-122912500D02*
X182720600Y-120140900D01*
X157751700Y-128000000D02*
X159555100Y-126196600D01*
X182720600Y-120140900D02*
X186553400Y-120140900D01*
X167953400Y-126196600D02*
X171237500Y-122912500D01*
X186553400Y-120140900D02*
X187500000Y-121087500D01*
X171237500Y-122912500D02*
X179949000Y-122912500D01*
%TO.N,+12V*%
D30*
X142700000Y-102000000D02*
X150700000Y-102000000D01*
X144144700Y-86505300D02*
X146650000Y-84000000D01*
X134362500Y-86167800D02*
X134700000Y-86505300D01*
X160150000Y-100447300D02*
X161550000Y-101847300D01*
X150700000Y-102000000D02*
X152252700Y-100447300D01*
X161550000Y-101847300D02*
X161550000Y-103000000D01*
X134700000Y-94000000D02*
X142700000Y-102000000D01*
X138227900Y-106472100D02*
X142700000Y-102000000D01*
X134700000Y-94000000D02*
X134700000Y-86505300D01*
X134700000Y-86505300D02*
X144144700Y-86505300D01*
X152252700Y-100447300D02*
X160150000Y-100447300D01*
X138227900Y-117157900D02*
X138227900Y-106472100D01*
X139880000Y-118810000D02*
X138227900Y-117157900D01*
X160150000Y-94540000D02*
X160150000Y-96191700D01*
X160150000Y-96191700D02*
X160150000Y-100447300D01*
X134362500Y-84000000D02*
X134362500Y-86167800D01*
%TO.N,/TUNE_UP*%
D28*
X169531800Y-128000000D02*
X173394400Y-124137400D01*
X173394400Y-124137400D02*
X186549900Y-124137400D01*
X168751700Y-128000000D02*
X169531800Y-128000000D01*
X186549900Y-124137400D02*
X187500000Y-125087500D01*
X167500000Y-128000000D02*
X168751700Y-128000000D01*
%TO.N,/SWR_REV*%
X191390300Y-114802700D02*
X191390300Y-114802800D01*
X190141000Y-114582700D02*
X188892300Y-115831400D01*
X190361000Y-114802700D02*
X191390300Y-114802700D01*
X185603500Y-114950000D02*
X183500000Y-114950000D01*
X186484900Y-115831400D02*
X185603500Y-114950000D01*
X188450000Y-106000000D02*
X188465900Y-105984100D01*
X191390300Y-114802800D02*
X191500000Y-114912500D01*
X190141000Y-114582700D02*
X190361000Y-114802700D01*
X188892300Y-115831400D02*
X186484900Y-115831400D01*
X188465900Y-105984100D02*
X188465900Y-105114000D01*
X190141000Y-113274700D02*
X190141000Y-114582700D01*
%TO.N,/CP_VSP*%
X174640800Y-91984000D02*
X178481800Y-95825000D01*
X177263400Y-84595500D02*
X174640800Y-87218100D01*
X178481800Y-95825000D02*
X179025000Y-95825000D01*
X183550000Y-88000000D02*
X180145500Y-84595500D01*
X180145500Y-84595500D02*
X177263400Y-84595500D01*
X174640800Y-87218100D02*
X174640800Y-91984000D01*
%TO.N,/BTN_TUNE*%
X148021700Y-129270000D02*
X162895700Y-129270000D01*
X162895700Y-129270000D02*
X165417400Y-126748300D01*
X145500000Y-128000000D02*
X146751700Y-128000000D01*
X181123300Y-123464200D02*
X183500000Y-121087500D01*
X169614500Y-126748300D02*
X172898600Y-123464200D01*
X172898600Y-123464200D02*
X181123300Y-123464200D01*
X165417400Y-126748300D02*
X169614500Y-126748300D01*
X146751700Y-128000000D02*
X148021700Y-129270000D01*
%TO.N,/VSAMPLE*%
X184677400Y-113548500D02*
X184225800Y-114000100D01*
X187500000Y-110912500D02*
X184714900Y-110912500D01*
X182786400Y-114000100D02*
X181120000Y-115666500D01*
X184225800Y-114000100D02*
X182786400Y-114000100D01*
X184677400Y-110950000D02*
X184677400Y-113548500D01*
X184677400Y-110950000D02*
X183500000Y-110950000D01*
X180170000Y-116950000D02*
X181120000Y-116000000D01*
X181120000Y-115666500D02*
X181120000Y-116000000D01*
X184714900Y-110912500D02*
X184677400Y-110950000D01*
X169500000Y-116950000D02*
X180170000Y-116950000D01*
%TO.N,/CIV_Q1B*%
X170627700Y-110482900D02*
X170627700Y-115590000D01*
X182682500Y-117905000D02*
X183500000Y-117087500D01*
X168794400Y-116000000D02*
X168361100Y-116433300D01*
X168361100Y-116433300D02*
X168361100Y-117530800D01*
X173060600Y-108050000D02*
X170627700Y-110482900D01*
X170627700Y-115590000D02*
X170217700Y-116000000D01*
X174562500Y-108050000D02*
X173060600Y-108050000D01*
X168735300Y-117905000D02*
X182682500Y-117905000D01*
X168361100Y-117530800D02*
X168735300Y-117905000D01*
X170217700Y-116000000D02*
X168794400Y-116000000D01*
%TO.N,/CP_C2P*%
X179564500Y-98365000D02*
X180975600Y-96953900D01*
X179025000Y-98365000D02*
X179564500Y-98365000D01*
X180975600Y-89425600D02*
X179550000Y-88000000D01*
X180975600Y-96953900D02*
X180975600Y-89425600D01*
%TO.N,/CP_C2N*%
X181527300Y-97620900D02*
X181527300Y-88077300D01*
X179513200Y-99635000D02*
X181527300Y-97620900D01*
X179025000Y-99635000D02*
X179513200Y-99635000D01*
X181527300Y-88077300D02*
X181450000Y-88000000D01*
%TO.N,/ESP_EN*%
X132318800Y-119768800D02*
X133500000Y-120950000D01*
X133288500Y-113299000D02*
X132318800Y-113299000D01*
X132318800Y-113299000D02*
X132120200Y-113299000D01*
X133500000Y-113087500D02*
X133288500Y-113299000D01*
X132318800Y-113299000D02*
X132318800Y-119768800D01*
%TO.N,/TUNE_DOWN*%
X189452900Y-127134600D02*
X191500000Y-125087500D01*
X188975500Y-127614200D02*
X189452900Y-127136800D01*
X188973300Y-127614200D02*
X188975500Y-127614200D01*
X183507500Y-133080000D02*
X188973300Y-127614200D01*
X167500000Y-133080000D02*
X183507500Y-133080000D01*
X189452900Y-127136800D02*
X189452900Y-127134600D01*
%TO.N,/12V_FUSED_IN*%
D30*
X138637500Y-84000000D02*
X145637500Y-77000000D01*
X145637500Y-77000000D02*
X147500000Y-77000000D01*
%TO.N,/CIV_RX*%
D28*
X191500000Y-117087500D02*
X190493300Y-116080800D01*
X180437500Y-110000800D02*
X180437500Y-109000000D01*
%TO.N,/I2C_SDA*%
X191500000Y-121087500D02*
X192867700Y-122455200D01*
%TO.N,/REV_AC*%
X186740600Y-107509900D02*
X184250500Y-110000000D01*
X184250500Y-110000000D02*
X182800600Y-110000000D01*
X182800600Y-110000000D02*
X181120000Y-111680600D01*
X188167300Y-107509900D02*
X186740600Y-107509900D01*
X169817900Y-121405400D02*
X173751300Y-121405400D01*
X189677200Y-106000000D02*
X188167300Y-107509900D01*
X190550000Y-106000000D02*
X189677200Y-106000000D01*
X169500000Y-121087500D02*
X169817900Y-121405400D01*
X181120000Y-111680600D02*
X181120000Y-112190000D01*
%TO.N,/RF_LINE_OUT*%
D31*
X167910000Y-113460000D02*
X169500000Y-115050000D01*
X165880000Y-113460000D02*
X167910000Y-113460000D01*
%TO.N,/I2C_SCL*%
D28*
X183598300Y-124989200D02*
X183500000Y-125087500D01*
X184897300Y-124989200D02*
X183598300Y-124989200D01*
%TO.N,/IO12_STRAP*%
X132910500Y-126323000D02*
X133500000Y-126912500D01*
X115233000Y-126323000D02*
X132910500Y-126323000D01*
X104070000Y-115160000D02*
X115233000Y-126323000D01*
%TO.N,/MTR_ISENSE*%
X154039800Y-108782500D02*
X155095000Y-108782500D01*
X155095000Y-108782500D02*
X155362500Y-109050000D01*
%TO.N,/CIV_TX*%
X183675000Y-119087500D02*
X183500000Y-118912500D01*
X184872700Y-119087500D02*
X183675000Y-119087500D01*
%TO.N,/RADIO_RX*%
X183975000Y-99635000D02*
X182510700Y-99635000D01*
X182510700Y-99635000D02*
X182347500Y-99471800D01*
%TO.N,/RADIO_TX*%
X183975000Y-100905000D02*
X182626000Y-100905000D01*
X182626000Y-100905000D02*
X182244600Y-100523600D01*
%TO.N,/CP_VSN*%
X184500000Y-91253200D02*
X182079000Y-93674200D01*
X184500000Y-87302000D02*
X184500000Y-91253200D01*
X184951600Y-86850400D02*
X184500000Y-87302000D01*
X182079000Y-98347200D02*
X179521200Y-100905000D01*
X182079000Y-93674200D02*
X182079000Y-98347200D01*
X187550000Y-88000000D02*
X186400400Y-86850400D01*
X186400400Y-86850400D02*
X184951600Y-86850400D01*
X179521200Y-100905000D02*
X179025000Y-100905000D01*
%TO.N,/RS232_RX*%
X194500000Y-98080000D02*
X184260000Y-98080000D01*
X184260000Y-98080000D02*
X183975000Y-98365000D01*
%TO.N,/RS232_TX*%
X192945000Y-97095000D02*
X183975000Y-97095000D01*
X194500000Y-95540000D02*
X192945000Y-97095000D01*
%TD*%
M02*
