%TF.GenerationSoftware,KiCad,Pcbnew,10.0.3*%
%TF.CreationDate,2026-06-14T19:08:41-04:00*%
%TF.ProjectId,tuner,74756e65-722e-46b6-9963-61645f706362,rev?*%
%TF.SameCoordinates,Original*%
%TF.FileFunction,Soldermask,Top*%
%TF.FilePolarity,Negative*%
%FSLAX46Y46*%
G04 Gerber Fmt 4.6, Leading zero omitted, Abs format (unit mm)*
G04 Created by KiCad (PCBNEW 10.0.3) date 2026-06-14 19:08:41*
%MOMM*%
%LPD*%
G01*
G04 APERTURE LIST*
G04 Aperture macros list*
%AMRoundRect*
0 Rectangle with rounded corners*
0 $1 Rounding radius*
0 $2 $3 $4 $5 $6 $7 $8 $9 X,Y pos of 4 corners*
0 Add a 4 corners polygon primitive as box body*
4,1,4,$2,$3,$4,$5,$6,$7,$8,$9,$2,$3,0*
0 Add four circle primitives for the rounded corners*
1,1,$1+$1,$2,$3*
1,1,$1+$1,$4,$5*
1,1,$1+$1,$6,$7*
1,1,$1+$1,$8,$9*
0 Add four rect primitives between the rounded corners*
20,1,$1+$1,$2,$3,$4,$5,0*
20,1,$1+$1,$4,$5,$6,$7,0*
20,1,$1+$1,$6,$7,$8,$9,0*
20,1,$1+$1,$8,$9,$2,$3,0*%
G04 Aperture macros list end*
%ADD10RoundRect,0.250000X0.475000X-0.250000X0.475000X0.250000X-0.475000X0.250000X-0.475000X-0.250000X0*%
%ADD11RoundRect,0.250000X1.425000X-0.362500X1.425000X0.362500X-1.425000X0.362500X-1.425000X-0.362500X0*%
%ADD12RoundRect,0.112500X-0.187500X-0.112500X0.187500X-0.112500X0.187500X0.112500X-0.187500X0.112500X0*%
%ADD13RoundRect,0.250000X-0.250000X-0.475000X0.250000X-0.475000X0.250000X0.475000X-0.250000X0.475000X0*%
%ADD14RoundRect,0.250000X0.450000X-0.262500X0.450000X0.262500X-0.450000X0.262500X-0.450000X-0.262500X0*%
%ADD15R,1.700000X1.700000*%
%ADD16C,1.700000*%
%ADD17RoundRect,0.150000X-0.587500X-0.150000X0.587500X-0.150000X0.587500X0.150000X-0.587500X0.150000X0*%
%ADD18RoundRect,0.250000X-1.250000X-0.550000X1.250000X-0.550000X1.250000X0.550000X-1.250000X0.550000X0*%
%ADD19RoundRect,0.250000X-1.000000X-0.900000X1.000000X-0.900000X1.000000X0.900000X-1.000000X0.900000X0*%
%ADD20RoundRect,0.250000X-0.312500X-1.450000X0.312500X-1.450000X0.312500X1.450000X-0.312500X1.450000X0*%
%ADD21O,2.800000X1.800000*%
%ADD22R,1.800000X1.800000*%
%ADD23C,1.800000*%
%ADD24RoundRect,0.150000X-0.825000X-0.150000X0.825000X-0.150000X0.825000X0.150000X-0.825000X0.150000X0*%
%ADD25RoundRect,0.250000X-1.500000X-0.550000X1.500000X-0.550000X1.500000X0.550000X-1.500000X0.550000X0*%
%ADD26RoundRect,0.150000X-0.512500X-0.150000X0.512500X-0.150000X0.512500X0.150000X-0.512500X0.150000X0*%
G04 APERTURE END LIST*
D10*
%TO.C,C9*%
X191500000Y-110950000D03*
X191500000Y-109050000D03*
%TD*%
%TO.C,C4*%
X133500000Y-102950000D03*
X133500000Y-101050000D03*
%TD*%
D11*
%TO.C,R_SH*%
X162500000Y-115962500D03*
X162500000Y-110037500D03*
%TD*%
D12*
%TO.C,D2*%
X182450000Y-106000000D03*
X184550000Y-106000000D03*
%TD*%
D13*
%TO.C,C11*%
X175550000Y-88000000D03*
X177450000Y-88000000D03*
%TD*%
D14*
%TO.C,R_CIV2*%
X187500000Y-118912500D03*
X187500000Y-117087500D03*
%TD*%
%TO.C,R8*%
X187500000Y-122912500D03*
X187500000Y-121087500D03*
%TD*%
D13*
%TO.C,C6*%
X161550000Y-103000000D03*
X163450000Y-103000000D03*
%TD*%
D14*
%TO.C,R_TU*%
X187500000Y-126912500D03*
X187500000Y-125087500D03*
%TD*%
%TO.C,R5*%
X187500000Y-114912500D03*
X187500000Y-113087500D03*
%TD*%
D10*
%TO.C,C10*%
X183500000Y-114950000D03*
X183500000Y-113050000D03*
%TD*%
D13*
%TO.C,C13*%
X183550000Y-88000000D03*
X185450000Y-88000000D03*
%TD*%
D15*
%TO.C,J6*%
X157500000Y-77000000D03*
D16*
X157500000Y-79540000D03*
%TD*%
D10*
%TO.C,C5*%
X133500000Y-108950000D03*
X133500000Y-107050000D03*
%TD*%
D15*
%TO.C,SW1*%
X145500000Y-128000000D03*
D16*
X145500000Y-130540000D03*
%TD*%
D10*
%TO.C,C8*%
X183500000Y-110950000D03*
X183500000Y-109050000D03*
%TD*%
D17*
%TO.C,Q1*%
X174562500Y-108050000D03*
X174562500Y-109950000D03*
X176437500Y-109000000D03*
%TD*%
D13*
%TO.C,C12*%
X179550000Y-88000000D03*
X181450000Y-88000000D03*
%TD*%
%TO.C,C3*%
X171550000Y-100000000D03*
X173450000Y-100000000D03*
%TD*%
D10*
%TO.C,C_EN*%
X133500000Y-120950000D03*
X133500000Y-119050000D03*
%TD*%
D15*
%TO.C,J8*%
X189500000Y-77000000D03*
D16*
X189500000Y-79540000D03*
X189500000Y-82080000D03*
X189500000Y-84620000D03*
%TD*%
D14*
%TO.C,R6*%
X191500000Y-114912500D03*
X191500000Y-113087500D03*
%TD*%
D18*
%TO.C,C2*%
X147300000Y-94000000D03*
X151700000Y-94000000D03*
%TD*%
D15*
%TO.C,J_TUNE*%
X167500000Y-128000000D03*
D16*
X167500000Y-130540000D03*
X167500000Y-133080000D03*
%TD*%
D14*
%TO.C,R_EN*%
X133500000Y-114912500D03*
X133500000Y-113087500D03*
%TD*%
D15*
%TO.C,SW2*%
X156500000Y-128000000D03*
D16*
X156500000Y-130540000D03*
%TD*%
D14*
%TO.C,R4*%
X187500000Y-110912500D03*
X187500000Y-109087500D03*
%TD*%
D19*
%TO.C,D1*%
X142350000Y-84000000D03*
X146650000Y-84000000D03*
%TD*%
D20*
%TO.C,F1*%
X134362500Y-84000000D03*
X138637500Y-84000000D03*
%TD*%
D14*
%TO.C,R_CIV3*%
X191500000Y-118912500D03*
X191500000Y-117087500D03*
%TD*%
D21*
%TO.C,J5*%
X178500000Y-85900000D03*
X176500000Y-78000000D03*
X178500000Y-80400000D03*
%TD*%
D22*
%TO.C,U4*%
X139880000Y-118810000D03*
D23*
X139880000Y-116270000D03*
X139880000Y-113730000D03*
X139880000Y-111190000D03*
X155120000Y-117540000D03*
X155120000Y-112460000D03*
%TD*%
D14*
%TO.C,R12*%
X191500000Y-122912500D03*
X191500000Y-121087500D03*
%TD*%
%TO.C,R3*%
X169500000Y-122912500D03*
X169500000Y-121087500D03*
%TD*%
D22*
%TO.C,T1*%
X165880000Y-118540000D03*
D23*
X165880000Y-113460000D03*
X181120000Y-119810000D03*
X181120000Y-116000000D03*
X181120000Y-112190000D03*
%TD*%
D12*
%TO.C,D3*%
X188450000Y-106000000D03*
X190550000Y-106000000D03*
%TD*%
D15*
%TO.C,J_OLED*%
X131500000Y-128000000D03*
D16*
X131500000Y-130540000D03*
X131500000Y-133080000D03*
X131500000Y-135620000D03*
%TD*%
D13*
%TO.C,C15*%
X191550000Y-88000000D03*
X193450000Y-88000000D03*
%TD*%
D14*
%TO.C,R_IO12*%
X133500000Y-126912500D03*
X133500000Y-125087500D03*
%TD*%
D23*
%TO.C,U2*%
X126930000Y-89760000D03*
X126930000Y-87220000D03*
D22*
X104070000Y-87220000D03*
D23*
X104070000Y-89760000D03*
X104070000Y-92300000D03*
X104070000Y-94840000D03*
X104070000Y-97380000D03*
X104070000Y-99920000D03*
X104070000Y-102460000D03*
X104070000Y-105000000D03*
X104070000Y-107540000D03*
X104070000Y-110080000D03*
X104070000Y-112620000D03*
X104070000Y-115160000D03*
X104070000Y-117700000D03*
X104070000Y-120240000D03*
X126930000Y-92300000D03*
X126930000Y-94840000D03*
X126930000Y-97380000D03*
X126930000Y-99920000D03*
X126930000Y-102460000D03*
X126930000Y-105000000D03*
X126930000Y-107540000D03*
X126930000Y-110080000D03*
X126930000Y-112620000D03*
X126930000Y-115160000D03*
X126930000Y-117700000D03*
X126930000Y-120240000D03*
X126930000Y-122780000D03*
X104070000Y-122780000D03*
%TD*%
D15*
%TO.C,J3*%
X129500000Y-77000000D03*
D16*
X129500000Y-79540000D03*
%TD*%
D13*
%TO.C,C_INA*%
X155550000Y-106000000D03*
X157450000Y-106000000D03*
%TD*%
D14*
%TO.C,R13*%
X183500000Y-126912500D03*
X183500000Y-125087500D03*
%TD*%
D24*
%TO.C,U3*%
X179025000Y-94555000D03*
X179025000Y-95825000D03*
X179025000Y-97095000D03*
X179025000Y-98365000D03*
X179025000Y-99635000D03*
X179025000Y-100905000D03*
X179025000Y-102175000D03*
X179025000Y-103445000D03*
X183975000Y-103445000D03*
X183975000Y-102175000D03*
X183975000Y-100905000D03*
X183975000Y-99635000D03*
X183975000Y-98365000D03*
X183975000Y-97095000D03*
X183975000Y-95825000D03*
X183975000Y-94555000D03*
%TD*%
D14*
%TO.C,R7*%
X183500000Y-122912500D03*
X183500000Y-121087500D03*
%TD*%
D25*
%TO.C,C_VM*%
X150700000Y-102000000D03*
X156300000Y-102000000D03*
%TD*%
D13*
%TO.C,C14*%
X187550000Y-88000000D03*
X189450000Y-88000000D03*
%TD*%
D14*
%TO.C,R_TD*%
X191500000Y-126912500D03*
X191500000Y-125087500D03*
%TD*%
D10*
%TO.C,C7*%
X169500000Y-116950000D03*
X169500000Y-115050000D03*
%TD*%
D15*
%TO.C,J4*%
X137500000Y-77000000D03*
D16*
X137500000Y-79540000D03*
%TD*%
D25*
%TO.C,C1*%
X134700000Y-94000000D03*
X140300000Y-94000000D03*
%TD*%
D14*
%TO.C,R_CIV1*%
X183500000Y-118912500D03*
X183500000Y-117087500D03*
%TD*%
D15*
%TO.C,J2*%
X194500000Y-93000000D03*
D16*
X194500000Y-95540000D03*
X194500000Y-98080000D03*
X194500000Y-100620000D03*
X194500000Y-103160000D03*
X194500000Y-105700000D03*
%TD*%
D17*
%TO.C,Q2*%
X178562500Y-108050000D03*
X178562500Y-109950000D03*
X180437500Y-109000000D03*
%TD*%
D15*
%TO.C,J1*%
X147500000Y-77000000D03*
D16*
X147500000Y-79540000D03*
%TD*%
D26*
%TO.C,U6*%
X155362500Y-109050000D03*
X155362500Y-110000000D03*
X155362500Y-110950000D03*
X157637500Y-110950000D03*
X157637500Y-109050000D03*
%TD*%
D22*
%TO.C,U1*%
X160150000Y-94540000D03*
D23*
X160150000Y-89460000D03*
X172850000Y-94540000D03*
X172850000Y-89460000D03*
%TD*%
M02*
